<svg width="24" height="25" viewBox="0 0 24 25" fill="none" xmlns="http://www.w3.org/2000/svg">
<path d="M20.625 3.125H3.375C2.96016 3.125 2.625 3.46016 2.625 3.875V21.125C2.625 21.5398 2.96016 21.875 3.375 21.875H20.625C21.0398 21.875 21.375 21.5398 21.375 21.125V3.875C21.375 3.46016 21.0398 3.125 20.625 3.125ZM18.4594 8.59766H16.9617C15.7875 8.59766 15.5602 9.15547 15.5602 9.97578V11.7828H18.3633L17.9977 14.6117H15.5602V21.875H12.6375V14.6141H10.193V11.7828H12.6375V9.69687C12.6375 7.27578 14.1164 5.95625 16.2773 5.95625C17.3133 5.95625 18.2016 6.03359 18.4617 6.06875V8.59766H18.4594Z" fill="#707070"/>
</svg>
