<svg width="14" height="14" viewBox="0 0 14 14" fill="none" xmlns="http://www.w3.org/2000/svg">
<path d="M4.9502 0.655017C3.3005 1.18749 1.93182 2.34541 1.12361 3.84933C1.13162 3.85138 1.13962 3.85364 1.14761 3.85611C1.93869 4.10045 2.87664 4.28583 3.89326 4.40907C4.08208 3.02599 4.42982 1.71651 4.9502 0.655017Z" fill="white"/>
<path d="M0.72271 4.75003C0.470598 5.4531 0.333252 6.21084 0.333252 7.00065C0.333252 7.81938 0.480838 8.60363 0.750856 9.32826C0.782354 9.3102 0.816322 9.29531 0.852467 9.28414C1.71948 9.01629 2.72608 8.81974 3.79474 8.69124C3.70055 7.6082 3.69749 6.48859 3.78553 5.40333C2.72038 5.2748 1.71709 5.07862 0.852494 4.81157C0.805306 4.79699 0.761828 4.77607 0.72271 4.75003Z" fill="white"/>
<path d="M1.16806 10.2333C1.98307 11.7005 3.33569 12.8279 4.9598 13.3494C4.44768 12.312 4.10163 11.0356 3.90848 9.68476C2.8947 9.80693 1.95873 9.99082 1.16806 10.2333Z" fill="white"/>
<path d="M7.39177 13.656C7.26211 13.6635 7.13146 13.6673 6.99992 13.6673C6.78325 13.6673 6.56899 13.657 6.35761 13.6368C6.25705 13.5634 6.16743 13.4669 6.09571 13.3471C5.52485 12.394 5.12094 11.0706 4.90465 9.58645C6.20171 9.48544 7.56941 9.48002 8.87447 9.57028C8.65878 11.0608 8.25408 12.3904 7.68111 13.347C7.60293 13.4776 7.50346 13.5806 7.39177 13.656Z" fill="white"/>
<path d="M8.7778 13.4276C10.5183 12.9472 11.9733 11.7788 12.8318 10.2333C11.9839 9.97336 10.9695 9.78086 9.87189 9.65948C9.6746 11.0539 9.3147 12.3702 8.7778 13.4276Z" fill="white"/>
<path d="M13.249 9.32821C13.519 8.60359 13.6666 7.81936 13.6666 7.00065C13.6666 6.21089 13.5293 5.45321 13.2772 4.75017C13.2381 4.77614 13.1947 4.79701 13.1476 4.81156C12.2238 5.09696 11.1412 5.30152 9.99331 5.429C10.0786 6.49774 10.0755 7.59923 9.98422 8.66581C11.1354 8.79323 12.2213 8.99811 13.1476 9.28422C13.1837 9.29536 13.2176 9.3102 13.249 9.32821Z" fill="white"/>
<path d="M12.8763 3.84939C12.0256 2.26647 10.5541 1.06684 8.78745 0.576345C9.3328 1.65789 9.69431 3.00766 9.88699 4.43466C10.9878 4.3122 12.0044 4.11811 12.8525 3.85612C12.8604 3.85367 12.8683 3.85143 12.8763 3.84939Z" fill="white"/>
<path d="M6.33265 0.366962C6.55211 0.345152 6.77471 0.333984 6.99992 0.333984C7.14005 0.333984 7.27918 0.338308 7.41717 0.34683C7.5185 0.420333 7.60882 0.517352 7.68111 0.6379C8.26833 1.6183 8.6786 2.99005 8.88998 4.52444C7.57508 4.61615 6.19594 4.61065 4.88906 4.50802C5.10112 2.98015 5.51057 1.61473 6.09566 0.6379C6.1614 0.528105 6.2422 0.437739 6.33265 0.366962Z" fill="white"/>
<path d="M4.78993 8.59239C4.70215 7.57516 4.69909 6.52243 4.78077 5.50258C6.15874 5.61238 7.61214 5.61794 8.99734 5.51935C9.07721 6.52843 9.07417 7.5693 8.98827 8.5758C7.60881 8.47806 6.16212 8.48356 4.78993 8.59239Z" fill="white"/>
</svg>
