<svg width="24" height="25" viewBox="0 0 24 25" fill="none" xmlns="http://www.w3.org/2000/svg">
<path d="M20.625 3.125H3.375C2.96016 3.125 2.625 3.46016 2.625 3.875V21.125C2.625 21.5398 2.96016 21.875 3.375 21.875H20.625C21.0398 21.875 21.375 21.5398 21.375 21.125V3.875C21.375 3.46016 21.0398 3.125 20.625 3.125ZM8.18672 19.1023H5.40469V10.1539H8.18672V19.1023ZM6.79688 8.93047C6.47795 8.93047 6.16619 8.8359 5.90102 8.65871C5.63584 8.48153 5.42917 8.22969 5.30712 7.93505C5.18507 7.6404 5.15314 7.31618 5.21536 7.00339C5.27758 6.69059 5.43115 6.40327 5.65667 6.17776C5.88218 5.95225 6.1695 5.79867 6.48229 5.73645C6.79509 5.67423 7.11931 5.70617 7.41395 5.82821C7.7086 5.95026 7.96044 6.15694 8.13762 6.42211C8.3148 6.68729 8.40937 6.99905 8.40937 7.31797C8.40703 8.20859 7.68516 8.93047 6.79688 8.93047ZM18.6023 19.1023H15.8227V14.75C15.8227 13.7117 15.8039 12.3781 14.3766 12.3781C12.9305 12.3781 12.7078 13.5078 12.7078 14.675V19.1023H9.93047V10.1539H12.5977V11.3773H12.6352C13.0055 10.6742 13.9125 9.93125 15.2672 9.93125C18.0844 9.93125 18.6023 11.7852 18.6023 14.1945V19.1023Z" fill="#707070"/>
</svg>
