<svg width="16" height="16" viewBox="0 0 16 16" fill="none" xmlns="http://www.w3.org/2000/svg">
<path fill-rule="evenodd" clip-rule="evenodd" d="M8.13213 15.2699L11.7357 14.4688C12.3958 14.3228 12.8653 13.7374 12.8653 13.0619V2.91686C12.8653 2.24139 12.3958 1.65592 11.7365 1.50996L8.13294 0.708807C7.23204 0.508517 6.37817 1.19372 6.37817 2.11651V13.863C6.37817 14.785 7.23204 15.4702 8.13213 15.2699ZM8.81084 6.55436C9.14672 6.55436 9.41901 6.82664 9.41901 7.16252V8.7843C9.41901 9.12018 9.14672 9.39247 8.81084 9.39247C8.47496 9.39247 8.20267 9.12018 8.20267 8.7843V7.16252C8.20267 6.82664 8.47496 6.55436 8.81084 6.55436Z" fill="white"/>
<path d="M3.13501 10.6895V12.3453C3.13501 13.2413 3.86076 13.9671 4.75679 13.9671H7.18946" stroke="white" stroke-linecap="round" stroke-linejoin="round"/>
<path d="M3.13501 11.0519V3.88936C3.13501 2.99332 3.86076 2.26758 4.75679 2.26758H7.18946" stroke="white" stroke-linecap="round" stroke-linejoin="round"/>
</svg>
