<svg width="158" height="64" viewBox="0 0 158 64" fill="none" xmlns="http://www.w3.org/2000/svg">
<g clip-path="url(#clip0_956_8065)">
<path fill-rule="evenodd" clip-rule="evenodd" d="M21.0847 52.6516L17.0105 45.5508C17.0083 45.5474 17.005 45.5424 17.0028 45.5384C16.388 44.4632 16.7471 43.0851 17.8101 42.4612C18.8725 41.8385 20.2343 42.2031 20.8485 43.2788C20.8811 43.3354 20.9115 43.3948 20.9392 43.4552L24.921 50.3992C27.3623 54.6536 33.289 55.7898 37.4922 53.3196C41.6975 50.8512 43.4577 45.1996 41.0175 40.9453L35.1798 30.7365C35.1798 30.7354 35.1792 30.7343 35.177 30.7332C35.177 30.732 35.177 30.7304 35.1748 30.7298L35.1482 30.6788C34.5728 29.6143 34.9402 28.2714 35.9838 27.6576C37.0462 27.0349 38.4068 27.4006 39.0227 28.473C39.0542 28.5284 39.083 28.5828 39.1085 28.6388L44.8559 38.6919C48.5251 45.0904 46.0439 53.4916 39.7204 57.2055C33.3958 60.9188 24.7533 59.0535 21.0847 52.6516ZM59.2918 44.7091C58.7905 44.508 58.3578 44.2247 57.9943 43.8596C57.6307 43.4944 57.3502 43.0655 57.1532 42.5716C56.9557 42.0776 56.8561 41.5367 56.8539 40.9492V40.9268C56.8566 40.3612 56.959 39.8326 57.161 39.3404C57.3629 38.8481 57.6473 38.4147 58.0142 38.0406C58.3811 37.6665 58.8132 37.3736 59.3107 37.162C59.8087 36.9508 60.3548 36.8433 60.9496 36.8394C61.3419 36.84 61.6961 36.8691 62.0115 36.9279C62.3263 36.9867 62.6146 37.0735 62.8763 37.1877C63.1381 37.3014 63.3854 37.4414 63.6172 37.6077C63.7058 37.6699 63.786 37.76 63.8585 37.8776C63.9315 37.9947 63.9697 38.1386 63.9741 38.3083C63.9725 38.4679 63.9343 38.6124 63.8585 38.7412C63.7832 38.87 63.682 38.9724 63.5547 39.0486C63.4275 39.1248 63.2847 39.164 63.1264 39.1656C63.0053 39.164 62.9023 39.1449 62.8188 39.1091C62.7347 39.0738 62.6627 39.0324 62.6024 38.9853C62.3722 38.8145 62.121 38.6818 61.8488 38.5877C61.5766 38.4931 61.2584 38.4449 60.8937 38.4438C60.5789 38.446 60.2862 38.511 60.0156 38.6392C59.7445 38.7675 59.5065 38.9444 59.3024 39.1701C59.0982 39.3958 58.9383 39.6568 58.8237 39.953C58.7092 40.2487 58.6511 40.5656 58.6489 40.9039V40.9268C58.6527 41.4129 58.7546 41.8441 58.9554 42.2199C59.1557 42.5956 59.4329 42.8913 59.7871 43.1064C60.1418 43.322 60.5512 43.4317 61.0166 43.4356C61.3303 43.4356 61.6241 43.3964 61.8975 43.3169C62.1708 43.238 62.4171 43.1192 62.6362 42.9608V41.8301H61.4747C61.3353 41.829 61.2091 41.7954 61.0968 41.7299C60.9845 41.6644 60.8948 41.5759 60.8284 41.4639C60.762 41.3519 60.7277 41.2253 60.7261 41.0848C60.7277 40.9436 60.762 40.8165 60.8284 40.7028C60.8948 40.5892 60.9845 40.4984 61.0968 40.4312C61.2091 40.364 61.3353 40.3293 61.4747 40.3282H63.4391C63.6006 40.3299 63.7456 40.3691 63.8745 40.4452C64.0035 40.522 64.1058 40.6256 64.1816 40.756C64.2575 40.8871 64.2962 41.0344 64.2978 41.1979V43.1192C64.2984 43.3724 64.2497 43.5891 64.1512 43.77C64.0533 43.9508 63.9011 44.1026 63.6953 44.2258C63.4833 44.3596 63.2399 44.4868 62.9643 44.606C62.6893 44.7253 62.3844 44.8228 62.0497 44.8984C61.7149 44.974 61.3519 45.0132 60.9607 45.0154C60.3498 45.0126 59.7937 44.9107 59.2918 44.7091ZM76.8513 44.8211C76.6897 44.7007 76.5641 44.5321 76.4745 44.3154L73.9413 38.1817C73.9126 38.1145 73.8888 38.0462 73.87 37.9773C73.8511 37.9084 73.8417 37.8373 73.8406 37.764C73.8423 37.6004 73.8816 37.4543 73.9568 37.3255C74.0326 37.1967 74.135 37.0948 74.2639 37.0203C74.3929 36.9452 74.5384 36.9072 74.7 36.9055C74.9235 36.9088 75.1078 36.9671 75.2527 37.0791C75.3977 37.1916 75.504 37.3367 75.5709 37.5153L77.5236 42.6326L79.499 37.4588C79.5366 37.363 79.5942 37.2734 79.6711 37.19C79.748 37.1065 79.8415 37.0382 79.9522 36.9861C80.0623 36.934 80.1868 36.9072 80.3251 36.9055C80.4828 36.9072 80.6256 36.9441 80.7534 37.0169C80.8807 37.0892 80.982 37.1883 81.0578 37.3137C81.133 37.4392 81.1712 37.5814 81.1734 37.741C81.1723 37.8104 81.1629 37.8788 81.1452 37.946C81.1275 38.0137 81.107 38.0736 81.0838 38.1252L78.5279 44.3154C78.4388 44.5321 78.3132 44.7007 78.1517 44.8211C77.9895 44.9415 77.7914 45.0025 77.5574 45.0048H77.4456C77.211 45.0025 77.0129 44.9415 76.8513 44.8211ZM67.4026 44.6105C66.8985 44.3484 66.5112 43.957 66.2406 43.4362C65.9695 42.9154 65.8328 42.2675 65.83 41.4913V37.7752C65.8317 37.6116 65.8704 37.4644 65.9462 37.3339C66.0215 37.2034 66.1244 37.0998 66.2533 37.0231C66.3823 36.9464 66.5278 36.9072 66.6894 36.9055C66.8509 36.9072 66.9965 36.9464 67.1254 37.0231C67.2543 37.0998 67.3567 37.2034 67.4325 37.3339C67.5083 37.4644 67.547 37.6116 67.5487 37.7752V41.446C67.5503 41.8755 67.6178 42.235 67.7529 42.5251C67.8868 42.8146 68.0799 43.033 68.3311 43.1797C68.5823 43.3264 68.8833 43.3998 69.2347 43.4004C69.5855 43.3998 69.8865 43.3287 70.1377 43.187C70.3889 43.0448 70.5815 42.8331 70.716 42.552C70.851 42.2703 70.9185 41.9208 70.9201 41.5025V37.7752C70.9218 37.6116 70.9605 37.4644 71.0363 37.3339C71.1121 37.2034 71.2145 37.0998 71.3434 37.0231C71.4724 36.9464 71.6179 36.9072 71.7795 36.9055C71.941 36.9072 72.0866 36.9464 72.2155 37.0231C72.3444 37.0998 72.4468 37.2034 72.5226 37.3339C72.5984 37.4644 72.6371 37.6116 72.6388 37.7752V41.4348C72.6355 42.2328 72.4949 42.8958 72.2166 43.4244C71.9388 43.9531 71.5443 44.3484 71.033 44.6111C70.5217 44.8732 69.9147 45.0048 69.212 45.0042C68.5098 45.0042 67.9061 44.8726 67.4026 44.6105ZM90.393 44.8317C90.2641 44.755 90.1618 44.6514 90.0859 44.5204C90.0107 44.3899 89.972 44.2426 89.9697 44.0785V37.8435C89.972 37.68 90.0107 37.5327 90.0859 37.4022C90.1618 37.2717 90.2641 37.1681 90.393 37.092C90.522 37.0152 90.6675 36.976 90.8296 36.9744H93.5415C94.039 36.9755 94.4783 37.0438 94.8596 37.1804C95.2408 37.3165 95.5606 37.5153 95.8179 37.7757C96.0359 37.9969 96.2019 38.2601 96.3159 38.5642C96.4294 38.8688 96.4869 39.2082 96.4875 39.5823V39.6047C96.4858 40.018 96.4211 40.3808 96.2932 40.6928C96.1654 41.0047 95.985 41.269 95.7521 41.4868C95.5186 41.7047 95.243 41.8788 94.9248 42.0099L96.1189 43.4793C96.2042 43.584 96.2717 43.6882 96.3215 43.7918C96.3713 43.8954 96.3973 44.0136 96.3984 44.1463C96.3956 44.3098 96.3558 44.4509 96.2789 44.5708C96.2014 44.6906 96.1012 44.7836 95.9784 44.8491C95.855 44.9152 95.7239 44.9482 95.5839 44.9493C95.3896 44.9471 95.2247 44.904 95.0881 44.8211C94.952 44.7376 94.8341 44.6296 94.7356 44.4974L93.0612 42.3487H91.689V44.0785C91.6867 44.2426 91.648 44.3899 91.5728 44.5204C91.4969 44.6514 91.3946 44.755 91.2657 44.8317C91.1367 44.9084 90.9912 44.9476 90.8296 44.9493C90.6675 44.9476 90.522 44.9084 90.393 44.8317ZM98.4612 44.8323C98.3334 44.7561 98.2321 44.6531 98.1569 44.5243C98.0816 44.3955 98.0429 44.2504 98.0412 44.0908V37.7998C98.0429 37.6363 98.0816 37.489 98.1574 37.3585C98.2327 37.228 98.335 37.1244 98.4645 37.0477C98.5934 36.971 98.739 36.9318 98.9005 36.9301H99.0793C99.2823 36.9324 99.4533 36.9788 99.5928 37.0701C99.7317 37.1608 99.8584 37.284 99.9724 37.438L103.286 41.8413V37.764C103.288 37.6038 103.327 37.4593 103.402 37.3305C103.478 37.2012 103.579 37.0987 103.706 37.0225C103.834 36.9464 103.977 36.9072 104.135 36.9055C104.293 36.9072 104.436 36.9464 104.563 37.0225C104.691 37.0987 104.792 37.2012 104.867 37.3305C104.943 37.4593 104.981 37.6038 104.983 37.764V44.055C104.982 44.2185 104.943 44.3658 104.867 44.4963C104.791 44.6268 104.689 44.7304 104.56 44.8071C104.431 44.8838 104.285 44.923 104.123 44.9247H104.068C103.865 44.9224 103.694 44.876 103.555 44.7847C103.415 44.6934 103.289 44.5708 103.175 44.4162L99.7377 39.8539V44.0908C99.7361 44.2504 99.6973 44.3955 99.6221 44.5243C99.5468 44.6531 99.445 44.7561 99.3178 44.8323C99.1899 44.9084 99.0472 44.9476 98.8895 44.9493C98.7312 44.9476 98.5885 44.9084 98.4612 44.8323ZM106.711 44.839C106.592 44.7668 106.498 44.6699 106.428 44.5478C106.359 44.4252 106.324 44.288 106.322 44.1356C106.323 44.0735 106.332 44.0113 106.351 43.9492C106.37 43.887 106.394 43.8248 106.423 43.7627L109.146 37.5394C109.242 37.3227 109.374 37.1541 109.544 37.0337C109.713 36.9133 109.916 36.8523 110.15 36.85H110.251C110.486 36.8523 110.686 36.9133 110.853 37.0337C111.019 37.1541 111.149 37.3227 111.244 37.5394L113.968 43.7627C113.996 43.8248 114.018 43.8842 114.034 43.9419C114.049 44.0001 114.057 44.0567 114.057 44.1132C114.056 44.2695 114.019 44.41 113.948 44.536C113.877 44.6615 113.78 44.7612 113.657 44.8356C113.535 44.9096 113.397 44.9476 113.242 44.9493C113.042 44.9471 112.874 44.8922 112.737 44.7858C112.601 44.6783 112.494 44.5332 112.416 44.3501L111.892 43.1069H108.454L107.907 44.4072C107.833 44.578 107.727 44.7108 107.59 44.8054C107.453 44.9 107.295 44.9476 107.115 44.9493C106.964 44.9476 106.83 44.9107 106.711 44.839ZM115.82 44.8351C115.695 44.7606 115.596 44.6598 115.522 44.5327C115.449 44.4056 115.411 44.2622 115.409 44.102V37.7998C115.411 37.6363 115.45 37.489 115.525 37.3585C115.601 37.228 115.703 37.1244 115.832 37.0477C115.961 36.971 116.106 36.9318 116.268 36.9301H116.457C116.642 36.9329 116.798 36.9755 116.927 37.0589C117.057 37.1418 117.16 37.2493 117.238 37.382L119.314 40.8042L121.402 37.3708C121.49 37.2241 121.598 37.1138 121.724 37.0404C121.851 36.9671 121.999 36.9301 122.172 36.9301H122.362C122.523 36.9318 122.668 36.971 122.798 37.0477C122.927 37.1244 123.029 37.228 123.105 37.3585C123.181 37.489 123.22 37.6363 123.221 37.7998V44.0796C123.22 44.2432 123.181 44.3904 123.105 44.5209C123.029 44.6514 122.927 44.755 122.798 44.8317C122.668 44.9084 122.523 44.9476 122.362 44.9493C122.204 44.9476 122.061 44.9073 121.934 44.8295C121.806 44.7511 121.705 44.6469 121.629 44.5159C121.554 44.3854 121.515 44.2398 121.514 44.0796V40.1378L120.006 42.487C119.918 42.6242 119.815 42.7317 119.699 42.809C119.583 42.8868 119.447 42.926 119.292 42.9277C119.136 42.926 119.001 42.8868 118.885 42.809C118.769 42.7317 118.666 42.6242 118.578 42.487L117.093 40.172V44.102C117.091 44.2622 117.053 44.4056 116.977 44.5327C116.902 44.6598 116.801 44.7606 116.673 44.8351C116.546 44.9096 116.404 44.9476 116.246 44.9493C116.088 44.9476 115.946 44.9096 115.82 44.8351ZM132.997 44.8323C132.869 44.7561 132.768 44.6531 132.693 44.5243C132.617 44.3955 132.579 44.2504 132.577 44.0908V37.7998C132.579 37.6363 132.617 37.489 132.693 37.3585C132.768 37.228 132.871 37.1244 133 37.0477C133.129 36.971 133.275 36.9318 133.436 36.9301H133.615C133.818 36.9324 133.989 36.9788 134.129 37.0701C134.267 37.1608 134.394 37.284 134.508 37.438L137.822 41.8413V37.764C137.824 37.6038 137.862 37.4593 137.938 37.3305C138.013 37.2012 138.115 37.0987 138.242 37.0225C138.37 36.9464 138.513 36.9072 138.67 36.9055C138.829 36.9072 138.971 36.9464 139.099 37.0225C139.226 37.0987 139.328 37.2012 139.403 37.3305C139.479 37.4593 139.517 37.6038 139.519 37.764V44.055C139.517 44.2185 139.479 44.3658 139.403 44.4963C139.327 44.6268 139.225 44.7304 139.096 44.8071C138.966 44.8838 138.821 44.923 138.659 44.9247H138.603C138.4 44.9224 138.229 44.876 138.09 44.7847C137.951 44.6934 137.825 44.5708 137.711 44.4162L134.273 39.8539V44.0908C134.272 44.2504 134.233 44.3955 134.158 44.5243C134.083 44.6531 133.981 44.7561 133.854 44.8323C133.726 44.9084 133.583 44.9476 133.425 44.9493C133.267 44.9476 133.124 44.9084 132.997 44.8323ZM143.638 44.8317C143.509 44.755 143.407 44.6514 143.331 44.5209C143.255 44.3904 143.216 44.2432 143.215 44.0796V38.5788H141.563C141.416 38.5771 141.283 38.5407 141.164 38.469C141.045 38.3973 140.95 38.301 140.879 38.1806C140.808 38.0596 140.772 37.9252 140.771 37.7768C140.772 37.6279 140.808 37.4935 140.879 37.3731C140.95 37.2521 141.045 37.1564 141.164 37.0847C141.283 37.013 141.416 36.976 141.563 36.9744H146.586C146.732 36.976 146.865 37.013 146.984 37.0847C147.104 37.1564 147.199 37.2521 147.269 37.3731C147.34 37.4935 147.376 37.6279 147.378 37.7768C147.376 37.9252 147.34 38.0596 147.269 38.1806C147.199 38.301 147.104 38.3973 146.984 38.469C146.865 38.5407 146.732 38.5771 146.586 38.5788H144.933V44.0796C144.932 44.2432 144.893 44.3904 144.817 44.5209C144.742 44.6514 144.64 44.755 144.51 44.8317C144.381 44.9084 144.236 44.9476 144.074 44.9493C143.913 44.9476 143.767 44.9084 143.638 44.8317ZM147.64 44.839C147.521 44.7668 147.427 44.6699 147.357 44.5478C147.288 44.4252 147.252 44.288 147.251 44.1356C147.252 44.0735 147.261 44.0113 147.28 43.9492C147.299 43.887 147.323 43.8248 147.352 43.7627L150.075 37.5394C150.171 37.3227 150.303 37.1541 150.473 37.0337C150.642 36.9133 150.845 36.8523 151.079 36.85H151.18C151.415 36.8523 151.615 36.9133 151.781 37.0337C151.947 37.1541 152.078 37.3227 152.173 37.5394L154.897 43.7627C154.925 43.8248 154.947 43.8842 154.963 43.9419C154.978 44.0001 154.986 44.0567 154.986 44.1132C154.985 44.2695 154.948 44.41 154.877 44.536C154.805 44.6615 154.708 44.7612 154.586 44.8356C154.464 44.9096 154.326 44.9476 154.171 44.9493C153.971 44.9471 153.803 44.8922 153.666 44.7858C153.53 44.6783 153.423 44.5332 153.345 44.3501L152.821 43.1069H149.383L148.836 44.4072C148.762 44.578 148.656 44.7108 148.519 44.8054C148.382 44.9 148.224 44.9476 148.044 44.9493C147.893 44.9476 147.759 44.9107 147.64 44.839ZM82.9164 44.7628C82.7869 44.6861 82.6846 44.5831 82.6093 44.452C82.5335 44.3216 82.4948 44.1748 82.4931 44.0113V37.8435C82.4948 37.68 82.5335 37.5332 82.6093 37.4028C82.6846 37.2723 82.7869 37.1687 82.9164 37.092C83.0453 37.0152 83.1909 36.976 83.3524 36.9744H87.6828C87.8261 36.976 87.9551 37.0113 88.0713 37.0808C88.1869 37.1502 88.2788 37.2437 88.3474 37.3608C88.416 37.4778 88.4514 37.6088 88.4531 37.7533C88.4514 37.8978 88.416 38.0277 88.3474 38.1431C88.2788 38.2584 88.1869 38.3497 88.0713 38.4175C87.9551 38.4852 87.8261 38.5194 87.6828 38.5211H84.2007V40.1266H87.1804C87.3237 40.1283 87.4532 40.1636 87.5688 40.233C87.6845 40.3024 87.7769 40.396 87.8455 40.513C87.9141 40.63 87.949 40.7611 87.9506 40.9056C87.949 41.05 87.9141 41.18 87.8455 41.2953C87.7769 41.4107 87.6845 41.502 87.5688 41.5697C87.4532 41.6369 87.3237 41.6716 87.1804 41.6733H84.2007V43.3337H87.7387C87.882 43.3354 88.0109 43.3707 88.1272 43.4401C88.2428 43.5096 88.3346 43.6031 88.4033 43.7201C88.4719 43.8372 88.5073 43.9682 88.5089 44.1127C88.5073 44.2572 88.4719 44.3871 88.4033 44.5024C88.3346 44.6178 88.2428 44.7091 88.1272 44.7768C88.0109 44.844 87.882 44.8788 87.7387 44.8804H83.3524C83.1909 44.8788 83.0453 44.8396 82.9164 44.7628ZM125.523 44.7628C125.394 44.6861 125.291 44.5831 125.216 44.452C125.14 44.3216 125.101 44.1748 125.1 44.0113V37.8435C125.101 37.68 125.14 37.5332 125.216 37.4028C125.291 37.2723 125.394 37.1687 125.523 37.092C125.652 37.0152 125.798 36.976 125.959 36.9744H130.289C130.433 36.976 130.562 37.0113 130.678 37.0808C130.794 37.1502 130.885 37.2437 130.954 37.3608C131.023 37.4778 131.058 37.6088 131.06 37.7533C131.058 37.8978 131.023 38.0277 130.954 38.1431C130.885 38.2584 130.794 38.3497 130.678 38.4175C130.562 38.4852 130.433 38.5194 130.289 38.5211H126.807V40.1266H129.787C129.93 40.1283 130.06 40.1636 130.176 40.233C130.291 40.3024 130.384 40.396 130.452 40.513C130.521 40.63 130.556 40.7611 130.557 40.9056C130.556 41.05 130.521 41.18 130.452 41.2953C130.384 41.4107 130.291 41.502 130.176 41.5697C130.06 41.6369 129.93 41.6716 129.787 41.6733H126.807V43.3337H130.345C130.489 43.3354 130.618 43.3707 130.734 43.4401C130.849 43.5096 130.941 43.6031 131.01 43.7201C131.079 43.8372 131.114 43.9682 131.116 44.1127C131.114 44.2572 131.079 44.3871 131.01 44.5024C130.941 44.6178 130.849 44.7091 130.734 44.7768C130.618 44.844 130.489 44.8788 130.345 44.8804H125.959C125.798 44.8788 125.652 44.8396 125.523 44.7628ZM156.762 44.7628C156.633 44.6861 156.53 44.5831 156.454 44.4526C156.379 44.3221 156.34 44.1748 156.338 44.0113V37.7757C156.34 37.6116 156.379 37.4649 156.454 37.3339C156.53 37.2034 156.633 37.0998 156.762 37.0231C156.89 36.9464 157.036 36.9072 157.198 36.9055C157.36 36.9072 157.505 36.9464 157.634 37.0231C157.763 37.0998 157.865 37.2034 157.941 37.3339C158.016 37.4649 158.055 37.6116 158.057 37.7757V43.3007H161.238C161.385 43.3024 161.517 43.3376 161.634 43.4076C161.751 43.4771 161.844 43.5717 161.914 43.6904C161.983 43.8086 162.018 43.9419 162.019 44.0903C162.018 44.2387 161.983 44.3725 161.914 44.4907C161.844 44.6094 161.751 44.7035 161.634 44.7735C161.517 44.8429 161.385 44.8788 161.238 44.8804H157.198C157.036 44.8788 156.89 44.8396 156.762 44.7628ZM111.256 41.5714L110.173 38.9624L109.09 41.5714H111.256ZM152.185 41.5714L151.102 38.9624L150.019 41.5714H152.185ZM94.143 40.6715C94.3389 40.5785 94.4883 40.448 94.5912 40.2812C94.6941 40.1137 94.7456 39.9188 94.7467 39.6948V39.6724C94.7422 39.2995 94.6222 39.0178 94.3853 38.8285C94.1485 38.6387 93.8187 38.5435 93.396 38.5429H91.689V40.8132H93.4297C93.7097 40.8115 93.9471 40.7644 94.143 40.6715ZM66.7851 31.1397C66.281 30.9303 65.8444 30.6402 65.4748 30.2684C65.1052 29.8971 64.8196 29.4664 64.6171 28.9764C64.4146 28.4864 64.3122 27.9589 64.3095 27.3933V27.3709C64.3122 26.8053 64.4157 26.2767 64.6204 25.7844C64.8252 25.2922 65.1135 24.8588 65.4859 24.4847C65.8582 24.11 66.2976 23.8172 66.8039 23.606C67.3102 23.3944 67.8657 23.2868 68.4716 23.2829C69.077 23.2868 69.632 23.3932 70.1361 23.6021C70.6396 23.8116 71.0767 24.1016 71.4458 24.4729C71.8154 24.8448 72.1015 25.2754 72.304 25.7654C72.5065 26.2554 72.6089 26.7829 72.6117 27.3485V27.3709C72.6089 27.9365 72.5049 28.4652 72.3007 28.9574C72.096 29.4496 71.8071 29.8831 71.4347 30.2572C71.0623 30.6318 70.623 30.9247 70.1173 31.1358C69.611 31.3475 69.0549 31.455 68.4495 31.4589C67.8436 31.455 67.2892 31.3486 66.7851 31.1397ZM105.296 31.054C104.792 30.792 104.405 30.4005 104.134 29.8797C103.863 29.3589 103.726 28.711 103.723 27.9348V24.2187C103.725 24.0552 103.764 23.9079 103.84 23.7774C103.915 23.6469 104.018 23.5433 104.147 23.4666C104.276 23.3899 104.421 23.3507 104.583 23.349C104.744 23.3507 104.89 23.3899 105.019 23.4666C105.148 23.5433 105.25 23.6469 105.326 23.7774C105.402 23.9079 105.44 24.0552 105.442 24.2187V27.8895C105.444 28.319 105.511 28.6785 105.646 28.9686C105.78 29.2581 105.973 29.4765 106.224 29.6232C106.476 29.77 106.777 29.8433 107.128 29.8439C107.479 29.8433 107.78 29.7722 108.031 29.6305C108.282 29.4883 108.475 29.2766 108.609 28.9955C108.744 28.7138 108.812 28.3644 108.814 27.946V24.2187C108.815 24.0552 108.854 23.9079 108.93 23.7774C109.006 23.6469 109.108 23.5433 109.237 23.4666C109.366 23.3899 109.511 23.3507 109.673 23.349C109.834 23.3507 109.98 23.3899 110.109 23.4666C110.238 23.5433 110.34 23.6469 110.416 23.7774C110.492 23.9079 110.531 24.0552 110.532 24.2187V27.8783C110.529 28.6763 110.388 29.3393 110.11 29.868C109.832 30.3966 109.438 30.792 108.926 31.0546C108.415 31.3167 107.808 31.4483 107.105 31.4477C106.403 31.4477 105.8 31.3161 105.296 31.054ZM57.623 31.2752C57.4941 31.1985 57.3917 31.0949 57.3159 30.9644C57.2406 30.834 57.2019 30.6867 57.1997 30.5232V24.287C57.2019 24.1235 57.2406 23.9762 57.3159 23.8457C57.3917 23.7152 57.4941 23.6116 57.623 23.5355C57.7519 23.4588 57.8974 23.4196 58.0596 23.4179H60.3913C61.0155 23.4218 61.55 23.5383 61.9954 23.7673C62.4409 23.9964 62.7828 24.3156 63.0208 24.7244C63.2592 25.1332 63.3799 25.6086 63.3821 26.1507V26.1736C63.3793 26.6312 63.2974 27.0332 63.1353 27.3799C62.9732 27.7265 62.7485 28.016 62.4602 28.2496C62.1725 28.4825 61.8377 28.6578 61.4565 28.7754C61.0758 28.893 60.6652 28.9524 60.2242 28.9524H58.9189V30.5232C58.9167 30.6867 58.8779 30.834 58.8027 30.9644C58.7269 31.0949 58.6245 31.1985 58.4956 31.2752C58.3667 31.352 58.2211 31.3912 58.0596 31.3928C57.8974 31.3912 57.7519 31.352 57.623 31.2752ZM74.5666 31.2752C74.4377 31.1985 74.3353 31.0949 74.2595 30.9639C74.1842 30.8334 74.1455 30.6861 74.1433 30.522V24.287C74.1455 24.1235 74.1842 23.9762 74.2595 23.8457C74.3353 23.7152 74.4377 23.6116 74.5666 23.5355C74.6955 23.4588 74.8411 23.4196 75.0032 23.4179H77.7151C78.2125 23.419 78.6519 23.4873 79.0331 23.624C79.4144 23.76 79.7342 23.9588 79.9915 24.2192C80.2095 24.4404 80.3755 24.7036 80.4895 25.0077C80.6029 25.3124 80.6605 25.6517 80.661 26.0258V26.0482C80.6594 26.4615 80.5946 26.8244 80.4668 27.1363C80.339 27.4482 80.1586 27.7125 79.9256 27.9304C79.6921 28.1482 79.4166 28.3224 79.0984 28.4534L80.2925 29.9228C80.3777 30.0276 80.4452 30.1317 80.495 30.2353C80.5448 30.3389 80.5708 30.4571 80.5719 30.5898C80.5692 30.7533 80.5293 30.8944 80.4524 31.0143C80.3749 31.1341 80.2748 31.2271 80.152 31.2926C80.0286 31.3587 79.8974 31.3917 79.7574 31.3928C79.5632 31.3906 79.3983 31.3475 79.2616 31.2646C79.1255 31.1812 79.0077 31.0731 78.9092 30.9409L77.2353 28.7922H75.8625V30.522C75.8603 30.6861 75.8216 30.8334 75.7463 30.9639C75.6705 31.0949 75.5681 31.1985 75.4392 31.2752C75.3103 31.352 75.1648 31.3912 75.0032 31.3928C74.8411 31.3912 74.6955 31.352 74.5666 31.2752ZM84.458 31.2752C84.3291 31.1985 84.2267 31.0949 84.1509 30.9644C84.0751 30.834 84.0364 30.6867 84.0347 30.5232V25.0223H82.383C82.2358 25.0206 82.103 24.9842 81.984 24.9125C81.8651 24.8408 81.7699 24.7445 81.6991 24.6241C81.6283 24.5032 81.5923 24.3688 81.5906 24.2204C81.5923 24.0714 81.6283 23.937 81.6991 23.8166C81.7699 23.6956 81.8651 23.5999 81.984 23.5282C82.103 23.4565 82.2358 23.4196 82.383 23.4179H87.4056C87.5522 23.4196 87.685 23.4565 87.804 23.5282C87.9235 23.5999 88.0187 23.6956 88.089 23.8166C88.1598 23.937 88.1958 24.0714 88.198 24.2204C88.1958 24.3688 88.1598 24.5032 88.089 24.6241C88.0187 24.7445 87.9235 24.8408 87.804 24.9125C87.685 24.9842 87.5522 25.0206 87.4056 25.0223H85.7533V30.5232C85.7517 30.6867 85.713 30.834 85.6372 30.9644C85.5619 31.0949 85.4595 31.1985 85.33 31.2752C85.2011 31.352 85.0556 31.3912 84.894 31.3928C84.7325 31.3912 84.5869 31.352 84.458 31.2752ZM88.4597 31.2825C88.3407 31.2103 88.2467 31.1134 88.1769 30.9913C88.1078 30.8687 88.0724 30.7315 88.0713 30.5792C88.0718 30.517 88.0812 30.4548 88.1006 30.3927C88.1189 30.3305 88.1426 30.2684 88.1714 30.2062L90.8949 23.9829C90.9906 23.7662 91.1229 23.5976 91.2928 23.4772C91.4621 23.3568 91.6646 23.2958 91.8992 23.2936H91.9999C92.2345 23.2958 92.4349 23.3568 92.6014 23.4772C92.7674 23.5976 92.898 23.7662 92.9932 23.9829L95.7167 30.2062C95.7449 30.2684 95.767 30.3277 95.7825 30.3854C95.798 30.4436 95.8058 30.5002 95.8063 30.5568C95.8046 30.713 95.7681 30.8536 95.6967 30.9796C95.6254 31.105 95.5285 31.2047 95.4057 31.2792C95.284 31.3531 95.1456 31.3912 94.9912 31.3928C94.7909 31.3906 94.6227 31.3357 94.4861 31.2293C94.3499 31.1218 94.2431 30.9768 94.1651 30.7936L93.6406 29.5504H90.2027L89.656 30.8508C89.5819 31.0216 89.4762 31.1543 89.3389 31.2489C89.2023 31.3436 89.0435 31.3912 88.8636 31.3928C88.7131 31.3912 88.5787 31.3542 88.4597 31.2825ZM97.5814 31.2064C97.4525 31.1296 97.3501 31.0266 97.2743 30.8961C97.199 30.7656 97.1603 30.6184 97.1581 30.4548V24.2192C97.1603 24.0552 97.199 23.9084 97.2743 23.7774C97.3501 23.6469 97.4525 23.5433 97.5814 23.4666C97.7103 23.3899 97.8559 23.3507 98.018 23.349C98.1796 23.3507 98.3251 23.3899 98.454 23.4666C98.5829 23.5433 98.6853 23.6469 98.7611 23.7774C98.8364 23.9084 98.8751 24.0552 98.8773 24.2192V29.7442H102.058C102.204 29.7459 102.337 29.7812 102.454 29.8512C102.571 29.9206 102.664 30.0152 102.733 30.134C102.803 30.2521 102.838 30.3854 102.839 30.5338C102.838 30.6822 102.803 30.816 102.733 30.9342C102.664 31.0529 102.571 31.147 102.454 31.217C102.337 31.2864 102.204 31.3223 102.058 31.324H98.018C97.8559 31.3223 97.7103 31.2831 97.5814 31.2064ZM112.705 31.2064C112.576 31.1296 112.474 31.0266 112.398 30.8961C112.323 30.7656 112.284 30.6184 112.282 30.4548V24.2192C112.284 24.0552 112.323 23.9084 112.398 23.7774C112.474 23.6469 112.576 23.5433 112.705 23.4666C112.834 23.3899 112.98 23.3507 113.142 23.349C113.303 23.3507 113.449 23.3899 113.578 23.4666C113.707 23.5433 113.809 23.6469 113.885 23.7774C113.96 23.9084 113.999 24.0552 114.001 24.2192V29.7442H117.182C117.328 29.7459 117.46 29.7812 117.578 29.8512C117.695 29.9206 117.788 30.0152 117.857 30.134C117.926 30.2521 117.961 30.3854 117.963 30.5338C117.961 30.6822 117.926 30.816 117.857 30.9342C117.788 31.0529 117.695 31.147 117.578 31.217C117.46 31.2864 117.328 31.3223 117.182 31.324H113.142C112.98 31.3223 112.834 31.2831 112.705 31.2064ZM69.4223 29.6608C69.7083 29.5336 69.9557 29.3572 70.1632 29.1321C70.3712 28.907 70.5317 28.646 70.6446 28.3498C70.758 28.053 70.815 27.7344 70.8167 27.3933V27.3709C70.815 27.0299 70.7564 26.7101 70.6413 26.4111C70.5256 26.1126 70.3629 25.8494 70.1521 25.6209C69.9413 25.393 69.6917 25.2144 69.4035 25.0844C69.1152 24.9556 68.797 24.8896 68.4495 24.8873C68.102 24.8896 67.785 24.954 67.4989 25.0811C67.2128 25.2082 66.966 25.3846 66.758 25.6097C66.5499 25.8348 66.3894 26.0958 66.2766 26.392C66.1631 26.6888 66.1061 27.0075 66.1045 27.3485V27.3709C66.1061 27.712 66.1648 28.0317 66.2799 28.3308C66.395 28.6292 66.5582 28.893 66.769 29.1209C66.9799 29.3488 67.2294 29.528 67.5177 29.6568C67.806 29.7868 68.1241 29.8523 68.4716 29.8545C68.8191 29.8523 69.1362 29.7879 69.4223 29.6608ZM93.0048 28.0149L91.9219 25.4059L90.839 28.0149H93.0048ZM61.0149 27.2455C61.2174 27.1413 61.3724 26.9991 61.4792 26.8193C61.5865 26.6396 61.6407 26.4357 61.6413 26.2072V26.1848C61.6369 25.794 61.5118 25.4966 61.2661 25.2933C61.0205 25.09 60.6807 24.9881 60.2469 24.9864H58.9189V27.4056H60.2801C60.5673 27.4034 60.8124 27.3502 61.0149 27.2455ZM78.3165 27.115C78.5124 27.022 78.6618 26.8916 78.7647 26.7247C78.8677 26.5572 78.9191 26.3624 78.9202 26.1384V26.116C78.9158 25.743 78.7957 25.4613 78.5589 25.272C78.3221 25.0822 77.9923 24.987 77.5695 24.9864H75.8625V27.2567H77.6033C77.8833 27.255 78.1207 27.208 78.3165 27.115Z" fill="#2F2F2F"/>
<path fill-rule="evenodd" clip-rule="evenodd" d="M24.4851 46.7422C24.4547 46.6873 24.4259 46.6319 24.3993 46.5776L12.4756 25.7977C11.8592 24.7225 12.2205 23.3454 13.2829 22.7221C14.3254 22.1084 15.6622 22.4533 16.2908 23.4888L28.3286 44.4793C28.3308 44.4804 28.3308 44.4826 28.3319 44.4843C28.3319 44.4843 28.333 44.4854 28.333 44.4877L28.3601 44.5353C28.935 45.6004 28.5687 46.9449 27.5251 47.5593C26.4633 48.1831 25.1004 47.8157 24.4851 46.7422Z" fill="#013DA6"/>
<path fill-rule="evenodd" clip-rule="evenodd" d="M26.6573 39.1825C26.6268 39.1299 26.5975 39.0733 26.5715 39.0196L21.4537 30.1077C20.8384 29.0353 21.1992 27.6572 22.261 27.0345C23.3057 26.4207 24.6415 26.7657 25.2684 27.7994L27.9006 32.3892L30.5013 36.9218C30.5013 36.9224 30.5024 36.9235 30.5024 36.9246C30.5035 36.928 30.5046 36.9291 30.5051 36.9302L30.5317 36.9761C31.1066 38.0424 30.7414 39.3853 29.6962 40.0007C28.6365 40.6245 27.2748 40.2572 26.6573 39.1825Z" fill="#FFD100"/>
<path fill-rule="evenodd" clip-rule="evenodd" d="M35.9395 17.2723L35.9461 7.47953L40.1559 7.48289V17.3126H40.1492C40.1326 17.6111 39.9472 17.8675 39.6888 17.9818C39.9312 18.0999 40.1011 18.3503 40.1011 18.6403C40.1 19.0407 39.7774 19.3672 39.3812 19.3672C39.0769 19.3672 38.8157 19.1729 38.7128 18.903C38.6065 19.174 38.3465 19.3672 38.0421 19.3672C37.7394 19.3672 37.4799 19.1774 37.3737 18.9103C37.2686 19.1774 37.0079 19.3672 36.7064 19.3672C36.313 19.3672 35.9893 19.0419 35.9893 18.6403C35.9893 18.3503 36.1575 18.0999 36.3993 17.9818C36.1392 17.8692 35.9549 17.6099 35.9395 17.3103V17.2723ZM36.7291 19.5408C37.0832 19.5408 37.372 19.8326 37.372 20.1921C37.372 20.5499 37.0832 20.8445 36.7291 20.8445C36.3722 20.8445 36.085 20.5499 36.085 20.1921C36.085 19.8326 36.3722 19.5408 36.7291 19.5408ZM36.7163 21.288C37.0008 21.288 37.2304 21.5227 37.2304 21.8099C37.2304 22.0961 37.0008 22.3296 36.7163 22.3296C36.433 22.3296 36.2012 22.0961 36.2012 21.8099C36.2012 21.5227 36.433 21.288 36.7163 21.288ZM36.7108 23.0755C36.9399 23.0755 37.1264 23.2654 37.1264 23.4983C37.1264 23.7296 36.9399 23.9189 36.7108 23.9189C36.4817 23.9189 36.2952 23.7291 36.2952 23.4983C36.2952 23.2654 36.4817 23.0755 36.7108 23.0755ZM36.723 24.6822C36.8962 24.6822 37.0395 24.8283 37.0395 25.0042C37.0395 25.1811 36.8962 25.3262 36.723 25.3262C36.5481 25.3262 36.4037 25.1811 36.4037 25.0042C36.4037 24.8272 36.5481 24.6822 36.723 24.6822ZM37.3737 18.3693C37.4423 18.2002 37.5712 18.063 37.7339 17.9829C37.5823 17.9146 37.4545 17.7992 37.3737 17.6564C37.2912 17.7992 37.1656 17.9146 37.0157 17.9829C37.1767 18.063 37.3067 18.2002 37.3737 18.3693ZM38.0626 19.5408C38.4167 19.5408 38.7061 19.8326 38.7061 20.1921C38.7061 20.5499 38.4167 20.8445 38.0626 20.8445C37.7079 20.8445 37.4196 20.5499 37.4196 20.1921C37.4196 19.8326 37.7079 19.5408 38.0626 19.5408ZM38.0504 21.288C38.3343 21.288 38.5661 21.5227 38.5661 21.8099C38.5661 22.0961 38.3343 22.3296 38.0493 22.3296C37.7666 22.3296 37.5364 22.0961 37.5364 21.8099C37.5364 21.5227 37.7666 21.288 38.0504 21.288ZM38.0454 23.0755C38.274 23.0755 38.4621 23.2654 38.4621 23.4983C38.4621 23.7296 38.2734 23.9189 38.0443 23.9189C37.8164 23.9189 37.6293 23.7296 37.6293 23.4983C37.6293 23.2654 37.8164 23.0755 38.0454 23.0755ZM38.0565 24.6822C38.2325 24.6822 38.3752 24.8283 38.3752 25.0042C38.3752 25.1811 38.2325 25.3262 38.0565 25.3262C37.8828 25.3262 37.7395 25.1811 37.7395 25.0042C37.7395 24.8283 37.8828 24.6822 38.0565 24.6822ZM38.7117 18.3777C38.7775 18.203 38.9081 18.0596 39.0735 17.9818C38.9192 17.9146 38.793 17.797 38.7128 17.6508C38.6292 17.797 38.5019 17.9146 38.3492 17.9829C38.5141 18.063 38.6441 18.2047 38.7117 18.3777ZM39.4022 19.5408C39.7564 19.5408 40.0463 19.8326 40.0463 20.1921C40.0463 20.5499 39.7564 20.8445 39.4022 20.8445C39.0481 20.8445 38.7592 20.5499 38.7592 20.191C38.7592 19.8315 39.0481 19.5408 39.4022 19.5408ZM39.3912 21.288C39.6739 21.288 39.9058 21.5215 39.9058 21.8083C39.9058 22.095 39.6739 22.3296 39.3912 22.3296C39.1062 22.3291 38.8754 22.095 38.8754 21.8071C38.8754 21.5215 39.1073 21.2858 39.3912 21.288ZM39.384 23.0755C39.613 23.0755 39.8012 23.2654 39.8012 23.4972C39.8012 23.7291 39.613 23.9189 39.384 23.9189C39.1554 23.9178 38.9701 23.7268 38.9701 23.4972C38.9701 23.2654 39.156 23.0755 39.384 23.0755ZM39.3961 24.6822C39.5721 24.6822 39.7154 24.8272 39.7154 25.0025C39.7154 25.1795 39.5721 25.3245 39.3961 25.3245C39.2213 25.3245 39.0785 25.1795 39.0785 25.0025C39.0785 24.8261 39.2213 24.6811 39.3961 24.6822Z" fill="#1473E4"/>
<path fill-rule="evenodd" clip-rule="evenodd" d="M5.71648 58.8633L1.50838 54.6028V7H1.49731L1.50838 6.98992V6.98768H1.50949L5.70707 2.74176L35.8527 2.73616L40.0669 7H5.74581L5.71648 58.8633Z" fill="#1473E6"/>
<path fill-rule="evenodd" clip-rule="evenodd" d="M13.1429 58.9219L5.99048 58.9152L5.9949 54.6547H13.1827V54.6608C13.4782 54.6765 13.7305 54.8647 13.8434 55.1256C13.9607 54.8809 14.2086 54.7096 14.4947 54.7096C14.8892 54.7107 15.2129 55.0366 15.2129 55.437C15.2129 55.7461 15.0203 56.0104 14.7536 56.1152C15.022 56.2227 15.2129 56.4859 15.2129 56.7939C15.2129 57.0985 15.0242 57.3623 14.7619 57.4698C15.0242 57.5762 15.2129 57.84 15.2129 58.144C15.2129 58.5439 14.8903 58.8704 14.4947 58.8704C14.2086 58.8704 13.9607 58.7012 13.8445 58.4554C13.7316 58.7197 13.4771 58.9062 13.1816 58.9196V58.9219H13.1429ZM15.3844 58.1222C15.3844 57.7644 15.6733 57.472 16.0274 57.472C16.3815 57.472 16.672 57.7644 16.672 58.1222C16.672 58.4812 16.3815 58.7735 16.0274 58.7735C15.6733 58.7735 15.3844 58.4812 15.3844 58.1222ZM17.1108 58.134C17.1108 57.8478 17.3427 57.6132 17.626 57.6132C17.9093 57.6132 18.14 57.8478 18.14 58.134C18.14 58.4224 17.9093 58.6559 17.626 58.6559C17.3427 58.6559 17.1108 58.4224 17.1108 58.134ZM18.8771 58.1412C18.8771 57.9094 19.0657 57.7184 19.2943 57.7184C19.5234 57.7184 19.7104 57.9094 19.7104 58.1412C19.7104 58.3725 19.5211 58.5601 19.2943 58.5601C19.0646 58.5601 18.8771 58.3725 18.8771 58.1412ZM20.464 58.1289C20.464 57.9508 20.6084 57.808 20.7822 57.808C20.9565 57.808 21.0998 57.9508 21.0998 58.1289C21.0998 58.3059 20.9565 58.4504 20.7822 58.4504C20.6073 58.4504 20.464 58.3059 20.464 58.1289ZM14.2268 57.4698C14.0592 57.3998 13.9231 57.2704 13.8445 57.1058C13.7775 57.2592 13.6636 57.3875 13.5213 57.4698C13.6636 57.5527 13.7775 57.6798 13.8445 57.8327C13.9231 57.6686 14.0592 57.5381 14.2268 57.4698ZM15.3844 56.7732C15.3844 56.4148 15.6733 56.1208 16.0274 56.1208C16.3815 56.1208 16.672 56.4148 16.672 56.7732C16.672 57.1316 16.3815 57.4239 16.0274 57.4239C15.6733 57.4239 15.3844 57.1316 15.3844 56.7732ZM17.1108 56.7849C17.1108 56.4971 17.3427 56.2636 17.626 56.2636C17.9093 56.2636 18.14 56.4971 18.14 56.7849C18.14 57.0728 17.9093 57.3052 17.626 57.3052C17.3427 57.3052 17.1108 57.0728 17.1108 56.7849ZM18.8771 56.7888C18.8771 56.5581 19.0657 56.3677 19.2943 56.3677C19.5234 56.3677 19.7104 56.5598 19.7104 56.7888C19.7104 57.0212 19.5234 57.2105 19.2943 57.2105C19.0657 57.2105 18.8771 57.0212 18.8771 56.7888ZM20.464 56.7771C20.464 56.6012 20.6084 56.4551 20.7822 56.4551C20.9565 56.4551 21.0998 56.6012 21.0998 56.7771C21.0998 56.9535 20.9565 57.0985 20.7822 57.0985C20.6084 57.0985 20.464 56.9535 20.464 56.7771ZM14.2351 56.1163C14.0631 56.0491 13.9209 55.9158 13.8434 55.7489C13.7775 55.9052 13.6613 56.0328 13.5169 56.1152C13.6613 56.1986 13.7775 56.328 13.8445 56.4831C13.9231 56.3151 14.0642 56.184 14.2351 56.1163ZM15.3844 55.4163C15.3844 55.0573 15.6733 54.7628 16.0274 54.7628C16.3815 54.7628 16.672 55.0573 16.672 55.4163C16.672 55.7758 16.3815 56.0681 16.0263 56.0681C15.6733 56.0681 15.3844 55.7758 15.3844 55.4163ZM17.1097 55.4286C17.1097 55.1408 17.3416 54.9072 17.6249 54.9072C17.9082 54.9072 18.14 55.1408 18.14 55.4286C18.14 55.7142 17.9082 55.9505 17.6232 55.9505C17.3416 55.9505 17.1086 55.7142 17.1097 55.4286ZM18.8771 55.4331C18.8771 55.2035 19.0657 55.0125 19.2926 55.0125C19.5211 55.0125 19.7104 55.2035 19.7104 55.4353C19.7093 55.6655 19.52 55.8548 19.2926 55.8548C19.0646 55.8548 18.8771 55.6649 18.8771 55.4331ZM20.464 55.4208C20.464 55.2455 20.6073 55.1004 20.7822 55.1004C20.9554 55.1004 21.0987 55.2455 21.0987 55.4208C21.0987 55.5977 20.9554 55.7428 20.7822 55.7428C20.6073 55.7428 20.464 55.5977 20.464 55.4208Z" fill="url(#paint0_linear_956_8065)"/>
<path d="M109.316 62.3465C109.257 62.2838 109.227 62.2087 109.229 62.1202C109.231 62.0346 109.258 61.9646 109.314 61.913C109.368 61.8604 109.438 61.8251 109.523 61.8061C109.775 61.7462 110.077 61.5334 110.067 61.3026C109.951 61.2741 109.841 61.2237 109.737 61.1531C109.632 61.0814 109.548 60.993 109.482 60.886C109.416 60.7796 109.383 60.6575 109.38 60.5203V60.5018C109.382 60.3518 109.414 60.2179 109.483 60.1003C109.549 59.9838 109.645 59.8903 109.765 59.8237C109.888 59.7565 110.031 59.7223 110.196 59.7206C110.472 59.7246 110.686 59.8192 110.838 60.0079C110.989 60.1955 111.123 60.4559 111.125 60.7874V60.8261C111.185 61.9718 110.114 62.3521 109.983 62.3896C109.851 62.426 109.724 62.4434 109.602 62.4434C109.47 62.4411 109.375 62.4081 109.316 62.3465ZM78.1273 58.7832C77.6415 58.576 77.2182 58.2876 76.8585 57.9174C76.4988 57.5478 76.2194 57.1172 76.0208 56.6266C75.8216 56.1355 75.7209 55.6046 75.7181 55.034V55.0116C75.7209 54.446 75.8199 53.9174 76.0169 53.4251C76.2133 52.9323 76.4928 52.4994 76.8546 52.1248C77.216 51.7507 77.6448 51.4578 78.1417 51.2462C78.6386 51.035 79.188 50.9275 79.7901 50.9236C80.1796 50.9247 80.531 50.9578 80.8442 51.0233C81.1579 51.0894 81.4423 51.1823 81.6974 51.3016C81.953 51.4214 82.1877 51.5626 82.4018 51.7255C82.4942 51.7944 82.5722 51.8879 82.6364 52.0066C82.7006 52.1248 82.7338 52.2609 82.7366 52.4149C82.7349 52.5745 82.6967 52.7178 82.6209 52.845C82.5457 52.9721 82.4444 53.0729 82.3171 53.1474C82.1893 53.2218 82.0466 53.2599 81.8883 53.2616C81.7721 53.2594 81.6731 53.2414 81.5901 53.2067C81.5071 53.172 81.4357 53.1339 81.3754 53.0919C81.1369 52.9105 80.8879 52.771 80.6273 52.6747C80.3672 52.5773 80.0844 52.5286 79.779 52.5274C79.4481 52.5297 79.1449 52.5946 78.8693 52.7218C78.5938 52.8489 78.3547 53.0253 78.1522 53.2504C77.9497 53.4755 77.7931 53.7365 77.6824 54.0327C77.5712 54.329 77.5148 54.6482 77.5131 54.9886V55.0116C77.5148 55.3526 77.5701 55.6724 77.6791 55.9709C77.7881 56.2699 77.943 56.5331 78.1439 56.7616C78.3448 56.9895 78.5838 57.1682 78.8599 57.2975C79.1366 57.4269 79.4431 57.493 79.779 57.4952C80.0191 57.4952 80.2372 57.4706 80.4325 57.4218C80.6273 57.3737 80.8099 57.3031 80.9786 57.2107C81.1479 57.1183 81.3134 57.0063 81.4755 56.8742C81.543 56.817 81.6205 56.7706 81.7074 56.7358C81.7942 56.7011 81.8883 56.6832 81.989 56.6821C82.1362 56.6843 82.2701 56.7207 82.3907 56.7924C82.5119 56.8635 82.6087 56.9598 82.6812 57.0802C82.7537 57.2012 82.7908 57.3356 82.7925 57.484C82.7902 57.6201 82.7615 57.7405 82.7061 57.8452C82.6508 57.9505 82.5827 58.0367 82.5025 58.105C82.2701 58.3134 82.0183 58.4909 81.7472 58.6393C81.4761 58.7871 81.1751 58.9008 80.8431 58.9798C80.5116 59.0587 80.1381 59.0985 79.7231 59.0996C79.1454 59.0957 78.6137 58.9904 78.1273 58.7832ZM141.087 58.6947C140.583 58.4321 140.195 58.0406 139.925 57.5204C139.654 56.9996 139.517 56.3511 139.514 55.5755V51.8594C139.516 51.6953 139.554 51.5486 139.63 51.4181C139.706 51.287 139.808 51.1834 139.937 51.1073C140.066 51.0306 140.212 50.9914 140.373 50.9897C140.535 50.9914 140.681 51.0306 140.809 51.1073C140.938 51.1834 141.041 51.287 141.117 51.4181C141.192 51.5486 141.231 51.6953 141.233 51.8594V55.5302C141.234 55.9597 141.302 56.3192 141.437 56.6093C141.571 56.8988 141.764 57.1172 142.015 57.2639C142.266 57.4106 142.567 57.484 142.919 57.484C143.27 57.484 143.571 57.4129 143.822 57.2706C144.073 57.129 144.266 56.9173 144.401 56.6356C144.535 56.3545 144.603 56.0045 144.604 55.5867V51.8594C144.606 51.6953 144.645 51.5486 144.72 51.4181C144.796 51.287 144.899 51.1834 145.028 51.1073C145.156 51.0306 145.302 50.9914 145.464 50.9897C145.625 50.9914 145.771 51.0306 145.9 51.1073C146.029 51.1834 146.131 51.287 146.207 51.4181C146.282 51.5486 146.321 51.6953 146.323 51.8594V55.519C146.32 56.317 146.179 56.98 145.901 57.5086C145.623 58.0367 145.228 58.4326 144.718 58.6947C144.206 58.9574 143.599 59.0884 142.896 59.0884C142.194 59.0878 141.591 58.9568 141.087 58.6947ZM156.21 58.6947C155.706 58.4321 155.319 58.0406 155.048 57.5204C154.777 56.9996 154.641 56.3511 154.638 55.5755V51.8594C154.639 51.6953 154.678 51.5486 154.754 51.4181C154.83 51.287 154.932 51.1834 155.061 51.1073C155.19 51.0306 155.336 50.9914 155.497 50.9897C155.659 50.9914 155.804 51.0306 155.933 51.1073C156.062 51.1834 156.165 51.287 156.24 51.4181C156.316 51.5486 156.355 51.6953 156.356 51.8594V55.5302C156.358 55.9597 156.426 56.3192 156.561 56.6093C156.695 56.8988 156.888 57.1172 157.139 57.2639C157.39 57.4106 157.691 57.484 158.042 57.484C158.393 57.484 158.695 57.4129 158.946 57.2706C159.197 57.129 159.39 56.9173 159.524 56.6356C159.659 56.3545 159.727 56.0045 159.728 55.5867V51.8594C159.73 51.6953 159.768 51.5486 159.844 51.4181C159.92 51.287 160.022 51.1834 160.151 51.1073C160.28 51.0306 160.426 50.9914 160.587 50.9897C160.749 50.9914 160.894 51.0306 161.023 51.1073C161.153 51.1834 161.255 51.287 161.33 51.4181C161.406 51.5486 161.445 51.6953 161.447 51.8594V55.519C161.443 56.317 161.303 56.98 161.025 57.5086C160.747 58.0367 160.352 58.4326 159.841 58.6947C159.33 58.9574 158.723 59.0884 158.02 59.0884C157.318 59.0878 156.714 58.9568 156.21 58.6947ZM57.1089 58.9226C56.99 58.851 56.8959 58.7535 56.8267 58.6314C56.757 58.5094 56.7216 58.3722 56.7205 58.2198C56.721 58.1577 56.731 58.0955 56.7498 58.0334C56.7686 57.9712 56.7919 57.909 56.8206 57.8469L59.5442 51.623C59.6399 51.4069 59.7727 51.2383 59.942 51.1179C60.1113 50.9975 60.3138 50.9365 60.549 50.9342H60.6492C60.8838 50.9365 61.0846 50.9975 61.2506 51.1179C61.4166 51.2383 61.5478 51.4069 61.6429 51.623L64.3665 57.8469C64.3941 57.9085 64.4163 57.9684 64.4317 58.0261C64.4472 58.0838 64.455 58.1409 64.4555 58.1969C64.4539 58.3531 64.4174 58.4942 64.346 58.6197C64.2746 58.7457 64.1778 58.8454 64.0555 58.9198C63.9332 58.9938 63.7949 59.0318 63.6405 59.0335C63.4402 59.0313 63.272 58.9764 63.1358 58.8694C62.9992 58.7625 62.8924 58.6174 62.8149 58.4343L62.2903 57.1911H58.8525L58.3052 58.4909C58.2311 58.6617 58.1254 58.795 57.9887 58.8896C57.8515 58.9837 57.6927 59.0318 57.5129 59.0335C57.3624 59.0318 57.2279 58.9949 57.1089 58.9226ZM94.0196 58.9159C93.8907 58.8392 93.7883 58.7356 93.7125 58.6051C93.6367 58.4746 93.5979 58.3274 93.5963 58.1638V52.663H91.9446C91.798 52.6613 91.6646 52.6243 91.5456 52.5526C91.4267 52.481 91.3315 52.3852 91.2607 52.2642C91.1898 52.1438 91.1539 52.0094 91.1522 51.8605C91.1539 51.7121 91.1898 51.5777 91.2607 51.4567C91.3315 51.3363 91.4267 51.24 91.5456 51.1689C91.6646 51.0972 91.798 51.0602 91.9446 51.0586H96.9672C97.1138 51.0602 97.2466 51.0972 97.3661 51.1689C97.4851 51.24 97.5803 51.3363 97.6511 51.4567C97.7214 51.5777 97.7579 51.7121 97.7596 51.8605C97.7579 52.0094 97.7214 52.1438 97.6511 52.2642C97.5803 52.3852 97.4851 52.481 97.3661 52.5526C97.2466 52.6243 97.1138 52.6613 96.9672 52.663H95.3149V58.1638C95.3133 58.3274 95.2751 58.4746 95.1993 58.6051C95.1235 58.7356 95.0211 58.8392 94.8916 58.9159C94.7627 58.9926 94.6177 59.0318 94.4556 59.0335C94.294 59.0318 94.1491 58.9926 94.0196 58.9159ZM98.8601 58.9226C98.7412 58.851 98.6471 58.7535 98.5779 58.6314C98.5082 58.5094 98.4728 58.3722 98.4717 58.2198C98.4723 58.1577 98.4822 58.0955 98.501 58.0334C98.5199 57.9712 98.5431 57.909 98.5719 57.8469L101.295 51.623C101.391 51.4069 101.524 51.2383 101.693 51.1179C101.863 50.9975 102.065 50.9365 102.3 50.9342H102.4C102.635 50.9365 102.836 50.9975 103.002 51.1179C103.168 51.2383 103.299 51.4069 103.394 51.623L106.118 57.8469C106.145 57.9085 106.167 57.9684 106.183 58.0261C106.198 58.0838 106.206 58.1409 106.207 58.1969C106.205 58.3531 106.169 58.4942 106.097 58.6197C106.026 58.7457 105.929 58.8454 105.807 58.9198C105.684 58.9938 105.546 59.0318 105.392 59.0335C105.191 59.0313 105.023 58.9764 104.887 58.8694C104.75 58.7625 104.644 58.6174 104.566 58.4343L104.042 57.1911H100.604L100.056 58.4909C99.9823 58.6617 99.8766 58.795 99.7399 58.8896C99.6027 58.9837 99.4439 59.0318 99.2641 59.0335C99.1136 59.0318 98.9791 58.9949 98.8601 58.9226ZM109.802 58.9159C109.673 58.8392 109.571 58.7356 109.495 58.6051C109.419 58.4746 109.381 58.3274 109.379 58.1638V52.663H107.727C107.581 52.6613 107.447 52.6243 107.328 52.5526C107.209 52.481 107.114 52.3852 107.043 52.2642C106.973 52.1438 106.937 52.0094 106.935 51.8605C106.937 51.7121 106.973 51.5777 107.043 51.4567C107.114 51.3363 107.209 51.24 107.328 51.1689C107.447 51.0972 107.581 51.0602 107.727 51.0586H112.75C112.897 51.0602 113.029 51.0972 113.149 51.1689C113.268 51.24 113.363 51.3363 113.434 51.4567C113.504 51.5777 113.541 51.7121 113.542 51.8605C113.541 52.0094 113.504 52.1438 113.434 52.2642C113.363 52.3852 113.268 52.481 113.149 52.5526C113.029 52.6243 112.897 52.6613 112.75 52.663H111.098V58.1638C111.096 58.3274 111.058 58.4746 110.982 58.6051C110.906 58.7356 110.804 58.8392 110.674 58.9159C110.545 58.9926 110.4 59.0318 110.238 59.0335C110.077 59.0318 109.932 58.9926 109.802 58.9159ZM122.12 58.9226C122.001 58.851 121.907 58.7535 121.838 58.6314C121.768 58.5094 121.733 58.3722 121.732 58.2198C121.732 58.1577 121.742 58.0955 121.761 58.0334C121.78 57.9712 121.803 57.909 121.832 57.8469L124.555 51.623C124.651 51.4069 124.784 51.2383 124.953 51.1179C125.122 50.9975 125.325 50.9365 125.56 50.9342H125.66C125.895 50.9365 126.096 50.9975 126.262 51.1179C126.428 51.2383 126.559 51.4069 126.654 51.623L129.378 57.8469C129.405 57.9085 129.427 57.9684 129.443 58.0261C129.458 58.0838 129.466 58.1409 129.467 58.1969C129.465 58.3531 129.428 58.4942 129.357 58.6197C129.286 58.7457 129.189 58.8454 129.067 58.9198C128.944 58.9938 128.806 59.0318 128.652 59.0335C128.451 59.0313 128.283 58.9764 128.147 58.8694C128.01 58.7625 127.904 58.6174 127.826 58.4343L127.301 57.1911H123.864L123.316 58.4909C123.242 58.6617 123.137 58.795 123 58.8896C122.863 58.9837 122.704 59.0318 122.524 59.0335C122.373 59.0318 122.239 58.9949 122.12 58.9226ZM131.239 58.9165C131.112 58.8398 131.01 58.7373 130.935 58.6085C130.859 58.4791 130.821 58.3346 130.819 58.1745V51.884C130.821 51.7199 130.859 51.5732 130.935 51.4427C131.01 51.3117 131.113 51.2086 131.242 51.1319C131.371 51.0552 131.517 51.016 131.678 51.0143H131.857C132.06 51.0166 132.232 51.063 132.371 51.1538C132.509 51.245 132.636 51.3677 132.75 51.5222L136.064 55.925V51.8476C136.066 51.688 136.105 51.5435 136.18 51.4142C136.256 51.2854 136.357 51.1829 136.485 51.1067C136.612 51.0306 136.755 50.9914 136.913 50.9897C137.071 50.9914 137.213 51.0306 137.341 51.1067C137.468 51.1829 137.57 51.2854 137.645 51.4142C137.721 51.5435 137.759 51.688 137.761 51.8476V58.1392C137.759 58.3027 137.721 58.4494 137.645 58.5805C137.569 58.711 137.467 58.8146 137.338 58.8913C137.208 58.968 137.063 59.0066 136.901 59.0083H136.846C136.642 59.0066 136.471 58.9596 136.332 58.8689C136.193 58.7776 136.067 58.655 135.953 58.5004L132.516 53.9381V58.1745C132.514 58.3346 132.475 58.4791 132.4 58.6085C132.325 58.7373 132.223 58.8398 132.096 58.9165C131.968 58.9926 131.826 59.0318 131.667 59.0335C131.509 59.0318 131.366 58.9926 131.239 58.9165ZM163.699 58.9159C163.57 58.8392 163.467 58.7356 163.392 58.6051C163.316 58.4746 163.277 58.3274 163.276 58.1633V51.8594C163.277 51.6953 163.316 51.5486 163.392 51.4181C163.467 51.287 163.57 51.1834 163.699 51.1073C163.828 51.0306 163.973 50.9914 164.135 50.9897C164.297 50.9914 164.442 51.0306 164.571 51.1073C164.7 51.1834 164.803 51.287 164.878 51.4181C164.954 51.5486 164.992 51.6953 164.995 51.8594V58.1633C164.992 58.3274 164.954 58.4746 164.878 58.6051C164.803 58.7356 164.7 58.8392 164.571 58.9159C164.442 58.9926 164.297 59.0318 164.135 59.0335C163.973 59.0318 163.828 58.9926 163.699 58.9159ZM66.2306 58.847C66.1017 58.7703 65.9993 58.6667 65.9235 58.5362C65.8483 58.4058 65.8095 58.259 65.8079 58.0955V51.8594C65.8095 51.6958 65.8483 51.5486 65.9235 51.4181C65.9993 51.2876 66.1017 51.1834 66.2306 51.1073C66.3601 51.0306 66.5051 50.9914 66.6672 50.9897C66.8288 50.9914 66.9743 51.0306 67.1032 51.1073C67.2322 51.1834 67.3345 51.2876 67.4103 51.4181C67.4861 51.5486 67.5249 51.6958 67.5265 51.8594V57.3849H70.7077C70.8543 57.386 70.986 57.4218 71.1033 57.4918C71.2206 57.5613 71.3141 57.6554 71.3827 57.7741C71.4519 57.8928 71.4873 58.0261 71.489 58.1745C71.4873 58.3229 71.4519 58.4562 71.3827 58.5749C71.3141 58.6936 71.2206 58.7877 71.1033 58.8577C70.986 58.9271 70.8543 58.963 70.7077 58.9646H66.6672C66.5051 58.963 66.3601 58.9238 66.2306 58.847ZM84.7225 58.847C84.5936 58.7703 84.4906 58.6667 84.4154 58.5362C84.3396 58.4058 84.3008 58.259 84.2992 58.095V51.9277C84.3008 51.7642 84.3396 51.6169 84.4154 51.4864C84.4906 51.3559 84.5936 51.2523 84.7225 51.1762C84.8514 51.0994 84.9969 51.0602 85.1585 51.0586H89.4889C89.6322 51.0602 89.7617 51.0955 89.8773 51.165C89.993 51.2344 90.0854 51.3279 90.154 51.445C90.2221 51.5614 90.2575 51.6925 90.2591 51.8375C90.2575 51.982 90.2221 52.1119 90.154 52.2273C90.0854 52.3426 89.993 52.4339 89.8773 52.5017C89.7617 52.5689 89.6322 52.6036 89.4889 52.6053H86.0068V54.2102H88.987C89.1298 54.2119 89.2593 54.2478 89.3749 54.3172C89.4906 54.3866 89.583 54.4796 89.6516 54.5966C89.7202 54.7142 89.755 54.8447 89.7567 54.9898C89.755 55.1342 89.7202 55.2642 89.6516 55.379C89.583 55.4943 89.4906 55.5862 89.3749 55.6534C89.2593 55.7211 89.1298 55.7558 88.987 55.7575H86.0068V57.4179H89.5448C89.6881 57.4196 89.817 57.4549 89.9332 57.5243C90.0489 57.5938 90.1407 57.6867 90.2099 57.8043C90.2779 57.9214 90.3134 58.0518 90.315 58.1969C90.3134 58.3414 90.2779 58.4713 90.2099 58.5866C90.1407 58.7014 90.0489 58.7933 89.9332 58.861C89.817 58.9282 89.6881 58.963 89.5448 58.9646H85.1585C84.9969 58.963 84.8514 58.9238 84.7225 58.847ZM115.214 58.847C115.086 58.7703 114.983 58.6667 114.907 58.5362C114.832 58.4058 114.793 58.259 114.791 58.095V51.9277C114.793 51.7642 114.832 51.6169 114.907 51.4864C114.983 51.3559 115.086 51.2523 115.214 51.1762C115.343 51.0994 115.489 51.0602 115.65 51.0586H119.981C120.124 51.0602 120.254 51.0955 120.369 51.165C120.485 51.2344 120.577 51.3279 120.646 51.445C120.714 51.5614 120.749 51.6925 120.751 51.8375C120.749 51.982 120.714 52.1119 120.646 52.2273C120.577 52.3426 120.485 52.4339 120.369 52.5017C120.254 52.5689 120.124 52.6036 119.981 52.6053H116.499V54.2102H119.479C119.622 54.2119 119.751 54.2478 119.867 54.3172C119.983 54.3866 120.075 54.4796 120.144 54.5966C120.212 54.7142 120.247 54.8447 120.249 54.9898C120.247 55.1342 120.212 55.2642 120.144 55.379C120.075 55.4943 119.983 55.5862 119.867 55.6534C119.751 55.7211 119.622 55.7558 119.479 55.7575H116.499V57.4179H120.037C120.18 57.4196 120.309 57.4549 120.425 57.5243C120.541 57.5938 120.633 57.6867 120.702 57.8043C120.77 57.9214 120.805 58.0518 120.807 58.1969C120.805 58.3414 120.77 58.4713 120.702 58.5866C120.633 58.7014 120.541 58.7933 120.425 58.861C120.309 58.9282 120.18 58.963 120.037 58.9646H115.65C115.489 58.963 115.343 58.9238 115.214 58.847ZM148.496 58.847C148.367 58.7703 148.265 58.6667 148.189 58.5362C148.113 58.4058 148.075 58.259 148.073 58.0955V51.8594C148.075 51.6958 148.113 51.5486 148.189 51.4181C148.265 51.2876 148.367 51.1834 148.496 51.1073C148.625 51.0306 148.77 50.9914 148.932 50.9897C149.094 50.9914 149.239 51.0306 149.368 51.1073C149.497 51.1834 149.6 51.2876 149.675 51.4181C149.751 51.5486 149.79 51.6958 149.792 51.8594V57.3849H152.973C153.119 57.386 153.251 57.4218 153.368 57.4918C153.486 57.5613 153.579 57.6554 153.648 57.7741C153.717 57.8928 153.752 58.0261 153.754 58.1745C153.752 58.3229 153.717 58.4562 153.648 58.5749C153.579 58.6936 153.486 58.7877 153.368 58.8577C153.251 58.9271 153.119 58.963 152.973 58.9646H148.932C148.77 58.963 148.625 58.9238 148.496 58.847ZM61.654 55.6556L60.5711 53.0466L59.4883 55.6556H61.654ZM103.405 55.6556L102.322 53.0466L101.239 55.6556H103.405ZM126.665 55.6556L125.582 53.0466L124.499 55.6556H126.665ZM101.201 50.0909C100.883 49.9229 100.639 49.6877 100.47 49.3858C100.442 49.3354 100.422 49.2839 100.409 49.2318C100.397 49.1798 100.391 49.1254 100.391 49.0694C100.395 48.9014 100.452 48.7626 100.561 48.6528C100.669 48.543 100.806 48.4859 100.972 48.482C101.104 48.4848 101.21 48.5156 101.29 48.5738C101.37 48.6321 101.431 48.6993 101.474 48.7754C101.555 48.9132 101.664 49.0224 101.799 49.103C101.935 49.1842 102.113 49.2257 102.333 49.2274C102.554 49.2257 102.732 49.1842 102.868 49.103C103.004 49.0224 103.112 48.9132 103.193 48.7754C103.236 48.6993 103.298 48.6321 103.377 48.5738C103.457 48.5156 103.563 48.4848 103.695 48.482C103.861 48.4859 103.998 48.543 104.107 48.6528C104.215 48.7626 104.272 48.9014 104.276 49.0694C104.276 49.1254 104.27 49.1798 104.257 49.2318C104.245 49.2839 104.225 49.3354 104.198 49.3858C104.028 49.6877 103.784 49.9229 103.467 50.0909C103.149 50.2583 102.771 50.344 102.333 50.3462C101.896 50.344 101.518 50.2583 101.201 50.0909ZM31.7403 36.4879C31.7087 36.4325 31.6799 36.3787 31.6545 36.3222L28.0152 29.9337C27.4005 28.8613 27.7607 27.4831 28.8231 26.8593C29.8678 26.2466 31.2024 26.5916 31.8327 27.6259L33.8778 31.2502L35.5837 34.2261C35.5837 34.2261 35.5848 34.2283 35.5859 34.2294C35.587 34.2306 35.587 34.2317 35.5881 34.2328L35.6141 34.2798C36.1902 35.3461 35.8233 36.6906 34.7786 37.3044C33.7173 37.9282 32.3567 37.562 31.7403 36.4879Z" fill="#CE0E2D"/>
</g>
<path d="M54.994 15.5313H59.516C60.6173 15.5313 61.4713 15.7973 62.078 16.3293C62.694 16.8613 63.002 17.5846 63.002 18.4993C63.002 19.4046 62.694 20.128 62.078 20.6693C61.462 21.2013 60.608 21.4673 59.516 21.4673H57.178V25.4993H54.994V15.5313ZM59.236 19.8013C60.3746 19.8013 60.944 19.372 60.944 18.5133C60.944 17.6453 60.3746 17.2113 59.236 17.2113H57.178V19.8013H59.236Z" fill="#1373E6"/>
<path d="M67.4158 25.6113C66.6598 25.6113 65.9971 25.462 65.4278 25.1633C64.8678 24.8646 64.4338 24.4353 64.1258 23.8753C63.8271 23.3153 63.6778 22.662 63.6778 21.9153C63.6778 21.1686 63.8271 20.5153 64.1258 19.9553C64.4338 19.3953 64.8678 18.966 65.4278 18.6673C65.9971 18.3686 66.6598 18.2193 67.4158 18.2193C68.1624 18.2193 68.8158 18.3686 69.3758 18.6673C69.9358 18.966 70.3651 19.3953 70.6638 19.9553C70.9718 20.5153 71.1258 21.1686 71.1258 21.9153C71.1258 22.662 70.9718 23.3153 70.6638 23.8753C70.3651 24.4353 69.9358 24.8646 69.3758 25.1633C68.8158 25.462 68.1624 25.6113 67.4158 25.6113ZM67.4158 24.0013C67.9384 24.0013 68.3351 23.8286 68.6058 23.4833C68.8858 23.138 69.0258 22.6153 69.0258 21.9153C69.0258 21.2246 68.8858 20.7066 68.6058 20.3613C68.3351 20.0066 67.9384 19.8293 67.4158 19.8293C66.8838 19.8293 66.4778 20.0066 66.1978 20.3613C65.9178 20.7066 65.7778 21.2246 65.7778 21.9153C65.7778 23.306 66.3238 24.0013 67.4158 24.0013Z" fill="#1373E6"/>
<path d="M76.607 18.2333C76.9057 18.2333 77.1577 18.28 77.363 18.3733L77.349 20.3053C77.0037 20.1466 76.6583 20.0673 76.313 20.0673C75.753 20.0673 75.3237 20.2213 75.025 20.5293C74.7357 20.828 74.591 21.248 74.591 21.7893V25.4993H72.477V20.4313C72.477 19.6753 72.4397 18.9986 72.365 18.4013H74.353L74.493 19.6193C74.6703 19.1713 74.9457 18.8306 75.319 18.5973C75.7017 18.3546 76.131 18.2333 76.607 18.2333Z" fill="#1373E6"/>
<path d="M81.5765 19.9833V22.7413C81.5765 23.1333 81.6791 23.4226 81.8845 23.6093C82.0898 23.7866 82.3558 23.8753 82.6825 23.8753C82.8878 23.8753 83.1211 23.8426 83.3825 23.7773V25.4153C83.0464 25.546 82.6404 25.6113 82.1644 25.6113C81.2871 25.6113 80.6151 25.364 80.1485 24.8693C79.6911 24.3746 79.4625 23.6793 79.4625 22.7833V19.9833H78.1185V18.4013H79.4625V16.7353L81.5765 16.0493V18.4013H83.3825V19.9833H81.5765Z" fill="#1373E6"/>
<path d="M91.5792 18.4013V25.4993H89.4932V24.4493C89.2786 24.8133 88.9752 25.098 88.5832 25.3033C88.1912 25.5086 87.7479 25.6113 87.2532 25.6113C86.6372 25.6113 86.0912 25.462 85.6152 25.1633C85.1486 24.8646 84.7799 24.44 84.5092 23.8893C84.2479 23.3293 84.1172 22.6853 84.1172 21.9573C84.1172 21.2293 84.2479 20.5806 84.5092 20.0113C84.7799 19.442 85.1532 19.0033 85.6292 18.6953C86.1052 18.378 86.6466 18.2193 87.2532 18.2193C87.7479 18.2193 88.1912 18.3266 88.5832 18.5413C88.9752 18.756 89.2786 19.0453 89.4932 19.4093V18.4013H91.5792ZM87.8692 24.0013C88.3919 24.0013 88.7932 23.824 89.0732 23.4693C89.3532 23.1146 89.4932 22.6013 89.4932 21.9293C89.4932 21.2573 89.3532 20.744 89.0732 20.3893C88.7932 20.0253 88.3919 19.8433 87.8692 19.8433C87.3466 19.8433 86.9406 20.03 86.6512 20.4033C86.3619 20.7766 86.2172 21.2946 86.2172 21.9573C86.2172 22.62 86.3572 23.1286 86.6372 23.4833C86.9266 23.8286 87.3372 24.0013 87.8692 24.0013Z" fill="#1373E6"/>
<path d="M93.2856 15.1953H95.3996V25.4993H93.2856V15.1953Z" fill="#1373E6"/>
<path d="M103.903 18.4013V25.4993H101.845V24.4633C101.621 24.8366 101.327 25.1213 100.963 25.3173C100.599 25.5133 100.189 25.6113 99.7314 25.6113C98.8447 25.6113 98.1821 25.364 97.7434 24.8693C97.3047 24.3746 97.0854 23.628 97.0854 22.6293V18.4013H99.1994V22.6713C99.1994 23.53 99.5681 23.9593 100.305 23.9593C100.744 23.9593 101.099 23.81 101.369 23.5113C101.64 23.2126 101.775 22.8206 101.775 22.3353V18.4013H103.903Z" fill="#1373E6"/>
<path d="M105.618 15.1953H107.732V25.4993H105.618V15.1953Z" fill="#1373E6"/>
<path d="M63.548 34.9973V39.8833C63.0626 40.1166 62.4933 40.2986 61.84 40.4293C61.196 40.56 60.5333 40.6253 59.852 40.6253C58.7973 40.6253 57.8826 40.42 57.108 40.0093C56.3333 39.5986 55.736 39.0106 55.316 38.2453C54.9053 37.48 54.7 36.5653 54.7 35.5013C54.7 34.4653 54.9053 33.5646 55.316 32.7993C55.736 32.034 56.324 31.446 57.08 31.0353C57.8453 30.6153 58.7366 30.4053 59.754 30.4053C60.4726 30.4053 61.14 30.5033 61.756 30.6993C62.3813 30.8953 62.8946 31.1706 63.296 31.5253L62.596 33.0933C62.1293 32.7573 61.6766 32.5146 61.238 32.3653C60.7993 32.216 60.3233 32.1413 59.81 32.1413C57.8873 32.1413 56.926 33.2613 56.926 35.5013C56.926 37.788 57.9293 38.9313 59.936 38.9313C60.4866 38.9313 61.0373 38.8613 61.588 38.7213V36.5233H59.628V34.9973H63.548Z" fill="#1373E6"/>
<path d="M72.0616 33.4013V40.4993H70.0036V39.4633C69.7796 39.8366 69.4856 40.1213 69.1216 40.3173C68.7576 40.5133 68.3469 40.6113 67.8896 40.6113C67.0029 40.6113 66.3403 40.364 65.9016 39.8693C65.4629 39.3746 65.2436 38.628 65.2436 37.6293V33.4013H67.3576V37.6713C67.3576 38.53 67.7263 38.9593 68.4636 38.9593C68.9023 38.9593 69.2569 38.81 69.5276 38.5113C69.7983 38.2126 69.9336 37.8206 69.9336 37.3353V33.4013H72.0616Z" fill="#1373E6"/>
<path d="M80.7758 33.4153L77.6538 40.4993H75.8618L72.7818 33.4153H74.9938L76.8138 38.0073L78.6898 33.4153H80.7758Z" fill="#1373E6"/>
<path d="M87.7064 37.1253H83.0304C83.0677 37.788 83.2404 38.2733 83.5484 38.5813C83.8564 38.88 84.3137 39.0293 84.9204 39.0293C85.2844 39.0293 85.6484 38.9686 86.0124 38.8473C86.3764 38.726 86.7124 38.5486 87.0204 38.3153L87.5804 39.7433C87.2444 40.014 86.8244 40.2286 86.3204 40.3873C85.8257 40.5366 85.3264 40.6113 84.8224 40.6113C83.6277 40.6113 82.6897 40.2846 82.0084 39.6313C81.327 38.9686 80.9864 38.068 80.9864 36.9293C80.9864 36.2106 81.131 35.5713 81.4204 35.0113C81.719 34.442 82.1344 34.0033 82.6664 33.6953C83.1984 33.378 83.8004 33.2193 84.4724 33.2193C85.471 33.2193 86.2597 33.546 86.8384 34.1993C87.417 34.8433 87.7064 35.716 87.7064 36.8173V37.1253ZM84.5284 34.7033C84.127 34.7033 83.8004 34.82 83.5484 35.0533C83.3057 35.2866 83.147 35.6273 83.0724 36.0753H85.8864C85.7744 35.1606 85.3217 34.7033 84.5284 34.7033Z" fill="#1373E6"/>
<path d="M93.1636 33.2333C93.4623 33.2333 93.7143 33.28 93.9196 33.3733L93.9056 35.3053C93.5603 35.1466 93.215 35.0673 92.8696 35.0673C92.3096 35.0673 91.8803 35.2213 91.5816 35.5293C91.2923 35.828 91.1476 36.248 91.1476 36.7893V40.4993H89.0336V35.4313C89.0336 34.6753 88.9963 33.9986 88.9216 33.4013H90.9096L91.0496 34.6193C91.227 34.1713 91.5023 33.8306 91.8756 33.5973C92.2583 33.3546 92.6876 33.2333 93.1636 33.2333Z" fill="#1373E6"/>
<path d="M99.1578 33.2193C100.838 33.2193 101.678 34.2133 101.678 36.2013V40.4993H99.5638V36.2993C99.5638 35.8046 99.4705 35.4453 99.2838 35.2213C99.1065 34.988 98.8218 34.8713 98.4298 34.8713C97.9632 34.8713 97.5898 35.0206 97.3098 35.3193C97.0298 35.618 96.8898 36.0193 96.8898 36.5233V40.4993H94.7758V35.4313C94.7758 34.6753 94.7385 33.9986 94.6638 33.4013H96.6518L96.7918 34.5213C97.0438 34.1013 97.3705 33.7793 97.7718 33.5553C98.1825 33.3313 98.6445 33.2193 99.1578 33.2193Z" fill="#1373E6"/>
<path d="M110.474 33.4013V40.4993H108.388V39.4493C108.173 39.8133 107.87 40.098 107.478 40.3033C107.086 40.5086 106.642 40.6113 106.148 40.6113C105.532 40.6113 104.986 40.462 104.51 40.1633C104.043 39.8646 103.674 39.44 103.404 38.8893C103.142 38.3293 103.012 37.6853 103.012 36.9573C103.012 36.2293 103.142 35.5806 103.404 35.0113C103.674 34.442 104.048 34.0033 104.524 33.6953C105 33.378 105.541 33.2193 106.148 33.2193C106.642 33.2193 107.086 33.3266 107.478 33.5413C107.87 33.756 108.173 34.0453 108.388 34.4093V33.4013H110.474ZM106.764 39.0013C107.286 39.0013 107.688 38.824 107.968 38.4693C108.248 38.1146 108.388 37.6013 108.388 36.9293C108.388 36.2573 108.248 35.744 107.968 35.3893C107.688 35.0253 107.286 34.8433 106.764 34.8433C106.241 34.8433 105.835 35.03 105.546 35.4033C105.256 35.7766 105.112 36.2946 105.112 36.9573C105.112 37.62 105.252 38.1286 105.532 38.4833C105.821 38.8286 106.232 39.0013 106.764 39.0013Z" fill="#1373E6"/>
<path d="M120.86 33.2193C121.672 33.2193 122.274 33.4666 122.666 33.9613C123.067 34.4466 123.268 35.1933 123.268 36.2013V40.4993H121.154V36.2713C121.154 35.7766 121.075 35.422 120.916 35.2073C120.757 34.9833 120.496 34.8713 120.132 34.8713C119.703 34.8713 119.371 35.0206 119.138 35.3193C118.905 35.618 118.788 36.038 118.788 36.5793V40.4993H116.674V36.2713C116.674 35.786 116.59 35.4313 116.422 35.2073C116.263 34.9833 116.007 34.8713 115.652 34.8713C115.223 34.8713 114.887 35.0206 114.644 35.3193C114.411 35.618 114.294 36.038 114.294 36.5793V40.4993H112.18V35.4313C112.18 34.6753 112.143 33.9986 112.068 33.4013H114.056L114.182 34.4653C114.397 34.064 114.695 33.756 115.078 33.5413C115.47 33.3266 115.918 33.2193 116.422 33.2193C117.477 33.2193 118.177 33.658 118.522 34.5353C118.755 34.134 119.077 33.8166 119.488 33.5833C119.908 33.3406 120.365 33.2193 120.86 33.2193Z" fill="#1373E6"/>
<path d="M131.306 37.1253H126.63C126.667 37.788 126.84 38.2733 127.148 38.5813C127.456 38.88 127.913 39.0293 128.52 39.0293C128.884 39.0293 129.248 38.9686 129.612 38.8473C129.976 38.726 130.312 38.5486 130.62 38.3153L131.18 39.7433C130.844 40.014 130.424 40.2286 129.92 40.3873C129.425 40.5366 128.926 40.6113 128.422 40.6113C127.227 40.6113 126.289 40.2846 125.608 39.6313C124.927 38.9686 124.586 38.068 124.586 36.9293C124.586 36.2106 124.731 35.5713 125.02 35.0113C125.319 34.442 125.734 34.0033 126.266 33.6953C126.798 33.378 127.4 33.2193 128.072 33.2193C129.071 33.2193 129.859 33.546 130.438 34.1993C131.017 34.8433 131.306 35.716 131.306 36.8173V37.1253ZM128.128 34.7033C127.727 34.7033 127.4 34.82 127.148 35.0533C126.905 35.2866 126.747 35.6273 126.672 36.0753H129.486C129.374 35.1606 128.921 34.7033 128.128 34.7033Z" fill="#1373E6"/>
<path d="M137.015 33.2193C138.695 33.2193 139.535 34.2133 139.535 36.2013V40.4993H137.421V36.2993C137.421 35.8046 137.328 35.4453 137.141 35.2213C136.964 34.988 136.679 34.8713 136.287 34.8713C135.821 34.8713 135.447 35.0206 135.167 35.3193C134.887 35.618 134.747 36.0193 134.747 36.5233V40.4993H132.633V35.4313C132.633 34.6753 132.596 33.9986 132.521 33.4013H134.509L134.649 34.5213C134.901 34.1013 135.228 33.7793 135.629 33.5553C136.04 33.3313 136.502 33.2193 137.015 33.2193Z" fill="#1373E6"/>
<path d="M143.879 34.9833V37.7413C143.879 38.1333 143.982 38.4226 144.187 38.6093C144.393 38.7866 144.659 38.8753 144.985 38.8753C145.191 38.8753 145.424 38.8426 145.685 38.7773V40.4153C145.349 40.546 144.943 40.6113 144.467 40.6113C143.59 40.6113 142.918 40.364 142.451 39.8693C141.994 39.3746 141.765 38.6793 141.765 37.7833V34.9833H140.421V33.4013H141.765V31.7353L143.879 31.0493V33.4013H145.685V34.9833H143.879Z" fill="#1373E6"/>
<path d="M153.882 33.4013V40.4993H151.796V39.4493C151.581 39.8133 151.278 40.098 150.886 40.3033C150.494 40.5086 150.051 40.6113 149.556 40.6113C148.94 40.6113 148.394 40.462 147.918 40.1633C147.451 39.8646 147.083 39.44 146.812 38.8893C146.551 38.3293 146.42 37.6853 146.42 36.9573C146.42 36.2293 146.551 35.5806 146.812 35.0113C147.083 34.442 147.456 34.0033 147.932 33.6953C148.408 33.378 148.949 33.2193 149.556 33.2193C150.051 33.2193 150.494 33.3266 150.886 33.5413C151.278 33.756 151.581 34.0453 151.796 34.4093V33.4013H153.882ZM150.172 39.0013C150.695 39.0013 151.096 38.824 151.376 38.4693C151.656 38.1146 151.796 37.6013 151.796 36.9293C151.796 36.2573 151.656 35.744 151.376 35.3893C151.096 35.0253 150.695 34.8433 150.172 34.8433C149.649 34.8433 149.243 35.03 148.954 35.4033C148.665 35.7766 148.52 36.2946 148.52 36.9573C148.52 37.62 148.66 38.1286 148.94 38.4833C149.229 38.8286 149.64 39.0013 150.172 39.0013Z" fill="#1373E6"/>
<path d="M155.588 30.1953H157.702V40.4993H155.588V30.1953Z" fill="#1373E6"/>
<path d="M60.2519 49.4634V55.4994H59.2919V54.4074C59.1159 54.7834 58.8479 55.0754 58.4879 55.2834C58.1359 55.4834 57.7239 55.5834 57.2519 55.5834C56.7159 55.5834 56.2439 55.4554 55.8359 55.1994C55.4359 54.9434 55.1239 54.5834 54.8999 54.1194C54.6839 53.6474 54.5759 53.0994 54.5759 52.4754C54.5759 51.8514 54.6879 51.3034 54.9119 50.8314C55.1359 50.3514 55.4479 49.9794 55.8479 49.7154C56.2559 49.4514 56.7239 49.3194 57.2519 49.3194C57.7239 49.3194 58.1359 49.4234 58.4879 49.6314C58.8399 49.8394 59.1079 50.1314 59.2919 50.5074V49.4634H60.2519ZM57.4439 54.7794C58.0359 54.7794 58.4919 54.5794 58.8119 54.1794C59.1319 53.7714 59.2919 53.1954 59.2919 52.4514C59.2919 51.7074 59.1319 51.1354 58.8119 50.7354C58.4919 50.3354 58.0359 50.1354 57.4439 50.1354C56.8519 50.1354 56.3879 50.3434 56.0519 50.7594C55.7239 51.1674 55.5599 51.7394 55.5599 52.4754C55.5599 53.2114 55.7239 53.7794 56.0519 54.1794C56.3799 54.5794 56.8439 54.7794 57.4439 54.7794Z" fill="#2F2F2F"/>
<path d="M62.1312 46.6674H63.1032V55.4994H62.1312V46.6674Z" fill="#2F2F2F"/>
<path d="M70.6515 55.5834C70.0675 55.5834 69.5555 55.4554 69.1155 55.1994C68.6835 54.9434 68.3475 54.5834 68.1075 54.1194C67.8755 53.6474 67.7595 53.0994 67.7595 52.4754C67.7595 51.8514 67.8795 51.3034 68.1195 50.8314C68.3595 50.3514 68.6995 49.9794 69.1395 49.7154C69.5875 49.4514 70.1075 49.3194 70.6995 49.3194C71.1075 49.3194 71.4995 49.3914 71.8755 49.5354C72.2595 49.6714 72.5755 49.8634 72.8235 50.1114L72.4995 50.8314C72.1955 50.5914 71.8995 50.4154 71.6115 50.3034C71.3315 50.1914 71.0435 50.1354 70.7475 50.1354C70.1315 50.1354 69.6475 50.3434 69.2955 50.7594C68.9435 51.1674 68.7675 51.7394 68.7675 52.4754C68.7675 53.2034 68.9395 53.7714 69.2835 54.1794C69.6355 54.5794 70.1235 54.7794 70.7475 54.7794C71.0435 54.7794 71.3315 54.7234 71.6115 54.6114C71.8995 54.4994 72.1955 54.3234 72.4995 54.0834L72.8235 54.8034C72.5675 55.0434 72.2435 55.2354 71.8515 55.3794C71.4675 55.5154 71.0675 55.5834 70.6515 55.5834Z" fill="#2F2F2F"/>
<path d="M79.1129 52.4514H74.6849C74.6929 53.2194 74.8689 53.7994 75.2129 54.1914C75.5649 54.5834 76.0729 54.7794 76.7369 54.7794C77.4409 54.7794 78.0889 54.5434 78.6809 54.0714L79.0049 54.7794C78.7409 55.0274 78.4009 55.2234 77.9849 55.3674C77.5769 55.5114 77.1569 55.5834 76.7249 55.5834C75.7809 55.5834 75.0409 55.3074 74.5049 54.7554C73.9689 54.1954 73.7009 53.4314 73.7009 52.4634C73.7009 51.8474 73.8209 51.3034 74.0609 50.8314C74.3009 50.3514 74.6369 49.9794 75.0689 49.7154C75.5009 49.4514 75.9929 49.3194 76.5449 49.3194C77.3449 49.3194 77.9729 49.5834 78.4289 50.1114C78.8849 50.6314 79.1129 51.3514 79.1129 52.2714V52.4514ZM76.5569 50.0754C76.0529 50.0754 75.6409 50.2274 75.3209 50.5314C75.0089 50.8354 74.8089 51.2634 74.7209 51.8154H78.2369C78.1889 51.2474 78.0209 50.8154 77.7329 50.5194C77.4529 50.2234 77.0609 50.0754 76.5569 50.0754Z" fill="#2F2F2F"/>
<path d="M81.8491 50.2314V53.5314C81.8491 53.9794 81.9411 54.2954 82.1251 54.4794C82.3091 54.6554 82.5691 54.7434 82.9051 54.7434C83.1291 54.7434 83.3451 54.7074 83.5531 54.6354V55.4634C83.3051 55.5434 83.0251 55.5834 82.7131 55.5834C82.1371 55.5834 81.6851 55.4234 81.3571 55.1034C81.0371 54.7754 80.8771 54.2954 80.8771 53.6634V50.2314H79.7011V49.4634H80.8771V47.9154L81.8491 47.5674V49.4634H83.5771V50.2314H81.8491Z" fill="#2F2F2F"/>
<path d="M90.0644 49.4634V55.4994H89.1044V54.4074C88.9284 54.7834 88.6604 55.0754 88.3004 55.2834C87.9484 55.4834 87.5364 55.5834 87.0644 55.5834C86.5284 55.5834 86.0564 55.4554 85.6484 55.1994C85.2484 54.9434 84.9364 54.5834 84.7124 54.1194C84.4964 53.6474 84.3884 53.0994 84.3884 52.4754C84.3884 51.8514 84.5004 51.3034 84.7244 50.8314C84.9484 50.3514 85.2604 49.9794 85.6604 49.7154C86.0684 49.4514 86.5364 49.3194 87.0644 49.3194C87.5364 49.3194 87.9484 49.4234 88.3004 49.6314C88.6524 49.8394 88.9204 50.1314 89.1044 50.5074V49.4634H90.0644ZM87.2564 54.7794C87.8484 54.7794 88.3044 54.5794 88.6244 54.1794C88.9444 53.7714 89.1044 53.1954 89.1044 52.4514C89.1044 51.7074 88.9444 51.1354 88.6244 50.7354C88.3044 50.3354 87.8484 50.1354 87.2564 50.1354C86.6644 50.1354 86.2004 50.3434 85.8644 50.7594C85.5364 51.1674 85.3724 51.7394 85.3724 52.4754C85.3724 53.2114 85.5364 53.7794 85.8644 54.1794C86.1924 54.5794 86.6564 54.7794 87.2564 54.7794ZM87.4244 48.3234C86.9764 48.3234 86.5724 48.1994 86.2124 47.9514C85.8524 47.6954 85.5884 47.3074 85.4204 46.7874L86.0324 46.5234C86.2084 46.9074 86.4124 47.1834 86.6444 47.3514C86.8764 47.5194 87.1364 47.6034 87.4244 47.6034C88.0084 47.6034 88.4684 47.2434 88.8044 46.5234L89.4164 46.7874C89.2484 47.3074 88.9844 47.6954 88.6244 47.9514C88.2724 48.1994 87.8724 48.3234 87.4244 48.3234Z" fill="#2F2F2F"/>
<path d="M93.2397 50.2314V53.5314C93.2397 53.9794 93.3317 54.2954 93.5157 54.4794C93.6997 54.6554 93.9597 54.7434 94.2957 54.7434C94.5197 54.7434 94.7357 54.7074 94.9437 54.6354V55.4634C94.6957 55.5434 94.4157 55.5834 94.1037 55.5834C93.5277 55.5834 93.0757 55.4234 92.7477 55.1034C92.4277 54.7754 92.2677 54.2954 92.2677 53.6634V50.2314H91.0917V49.4634H92.2677V47.9154L93.2397 47.5674V49.4634H94.9677V50.2314H93.2397ZM94.2957 56.3754V57.0714C94.2957 57.3914 94.2477 57.6754 94.1517 57.9234C94.0637 58.1794 93.9037 58.4194 93.6717 58.6434L93.2277 58.3074C93.3797 58.1474 93.4877 57.9954 93.5517 57.8514C93.6157 57.7074 93.6557 57.5474 93.6717 57.3714H93.1077V56.3754H94.2957Z" fill="#2F2F2F"/>
<path d="M101.191 52.4514H96.7631C96.7711 53.2194 96.9471 53.7994 97.2911 54.1914C97.6431 54.5834 98.1511 54.7794 98.8151 54.7794C99.5191 54.7794 100.167 54.5434 100.759 54.0714L101.083 54.7794C100.819 55.0274 100.479 55.2234 100.063 55.3674C99.6551 55.5114 99.2351 55.5834 98.8031 55.5834C97.8591 55.5834 97.1191 55.3074 96.5831 54.7554C96.0471 54.1954 95.7791 53.4314 95.7791 52.4634C95.7791 51.8474 95.8991 51.3034 96.1391 50.8314C96.3791 50.3514 96.7151 49.9794 97.1471 49.7154C97.5791 49.4514 98.0711 49.3194 98.6231 49.3194C99.4231 49.3194 100.051 49.5834 100.507 50.1114C100.963 50.6314 101.191 51.3514 101.191 52.2714V52.4514ZM98.6351 50.0754C98.1311 50.0754 97.7191 50.2274 97.3991 50.5314C97.0871 50.8354 96.8871 51.2634 96.7991 51.8154H100.315C100.267 51.2474 100.099 50.8154 99.8111 50.5194C99.5311 50.2234 99.1391 50.0754 98.6351 50.0754Z" fill="#2F2F2F"/>
<path d="M107.982 49.4634V55.4994H107.022V54.4074C106.846 54.7834 106.578 55.0754 106.218 55.2834C105.866 55.4834 105.454 55.5834 104.982 55.5834C104.446 55.5834 103.974 55.4554 103.566 55.1994C103.166 54.9434 102.854 54.5834 102.63 54.1194C102.414 53.6474 102.306 53.0994 102.306 52.4754C102.306 51.8514 102.418 51.3034 102.642 50.8314C102.866 50.3514 103.178 49.9794 103.578 49.7154C103.986 49.4514 104.454 49.3194 104.982 49.3194C105.454 49.3194 105.866 49.4234 106.218 49.6314C106.57 49.8394 106.838 50.1314 107.022 50.5074V49.4634H107.982ZM105.174 54.7794C105.766 54.7794 106.222 54.5794 106.542 54.1794C106.862 53.7714 107.022 53.1954 107.022 52.4514C107.022 51.7074 106.862 51.1354 106.542 50.7354C106.222 50.3354 105.766 50.1354 105.174 50.1354C104.582 50.1354 104.118 50.3434 103.782 50.7594C103.454 51.1674 103.29 51.7394 103.29 52.4754C103.29 53.2114 103.454 53.7794 103.782 54.1794C104.11 54.5794 104.574 54.7794 105.174 54.7794Z" fill="#2F2F2F"/>
<path d="M112.874 49.3194C114.322 49.3194 115.046 50.1154 115.046 51.7074V55.4994H114.074V51.7554C114.074 51.1954 113.962 50.7874 113.738 50.5314C113.514 50.2674 113.162 50.1354 112.682 50.1354C112.122 50.1354 111.674 50.3074 111.338 50.6514C111.002 50.9954 110.834 51.4594 110.834 52.0434V55.4994H109.862V51.1554C109.862 50.5314 109.83 49.9674 109.766 49.4634H110.69L110.786 50.5434C110.97 50.1514 111.246 49.8514 111.614 49.6434C111.982 49.4274 112.402 49.3194 112.874 49.3194Z" fill="#2F2F2F"/>
<path d="M121.933 49.4634V55.4994H120.985V54.4554C120.793 54.8234 120.525 55.1034 120.181 55.2954C119.837 55.4874 119.449 55.5834 119.017 55.5834C118.305 55.5834 117.765 55.3834 117.397 54.9834C117.029 54.5834 116.845 53.9914 116.845 53.2074V49.4634H117.817V53.1834C117.817 53.7274 117.929 54.1274 118.153 54.3834C118.377 54.6394 118.717 54.7674 119.173 54.7674C119.709 54.7674 120.141 54.5954 120.469 54.2514C120.797 53.8994 120.961 53.4394 120.961 52.8714V49.4634H121.933Z" fill="#2F2F2F"/>
<path d="M123.807 46.6674H124.779V55.4994H123.807V46.6674Z" fill="#2F2F2F"/>
<path d="M131.718 49.4634V55.4994H130.77V54.4554C130.578 54.8234 130.31 55.1034 129.966 55.2954C129.622 55.4874 129.234 55.5834 128.802 55.5834C128.09 55.5834 127.55 55.3834 127.182 54.9834C126.814 54.5834 126.63 53.9914 126.63 53.2074V49.4634H127.602V53.1834C127.602 53.7274 127.714 54.1274 127.938 54.3834C128.162 54.6394 128.502 54.7674 128.958 54.7674C129.494 54.7674 129.926 54.5954 130.254 54.2514C130.582 53.8994 130.746 53.4394 130.746 52.8714V49.4634H131.718Z" fill="#2F2F2F"/>
<path d="M133.592 49.4634H134.564V55.4994H133.592V49.4634ZM134.684 46.9074V48.0114H133.496V46.9074H134.684Z" fill="#2F2F2F"/>
<defs>
<linearGradient id="paint0_linear_956_8065" x1="6.00044" y1="56.5805" x2="29.5005" y2="56.68" gradientUnits="userSpaceOnUse">
<stop stop-color="#1473E5"/>
<stop offset="1" stop-color="#6AABDE"/>
</linearGradient>
<clipPath id="clip0_956_8065">
<rect width="50" height="63" fill="white" transform="translate(0 0.5)"/>
</clipPath>
</defs>
</svg>
