<svg width="22" height="24" viewBox="0 0 22 24" fill="none" xmlns="http://www.w3.org/2000/svg">
<path d="M10.5181 8.08134e-06C4.72275 -0.00760854 0.00772638 5.36973 9.48997e-06 11.9886C-0.0077074 18.6074 4.69188 23.9924 10.4873 24C16.2749 24.0076 20.9977 18.6303 21.0054 12.0114C21.0131 5.40019 16.3058 0.00762471 10.5181 8.08134e-06Z" fill="#003DA6"/>
<path d="M10.4873 21.2344C8.51178 21.2344 6.62886 20.3128 5.19352 18.6524C3.67329 16.8929 2.83215 14.5241 2.83987 11.9954C2.83987 9.4667 3.68873 7.09793 5.21667 5.34611C6.65973 3.68569 8.54265 2.77931 10.5182 2.77931C12.4937 2.77931 14.3766 3.70092 15.812 5.36134C17.3322 7.12078 18.1733 9.48955 18.1656 12.0183C18.1656 14.547 17.3168 16.9158 15.7888 18.6676C14.3535 20.3204 12.4705 21.2344 10.4873 21.2344ZM10.5182 0.197274C4.83855 0.189657 0.20841 5.47559 0.200693 11.9878C0.192976 18.5 4.80768 23.8012 10.4873 23.8088C16.1669 23.8164 20.7971 18.5229 20.8048 12.0183C20.8125 5.50606 16.1978 0.20489 10.5182 0.197274Z" fill="#FFD100"/>
<path d="M4.63021 4.81472C4.6688 4.84518 4.6688 4.84518 4.6688 4.86803C4.64565 4.9899 4.55305 5.13461 4.46816 5.24125C4.20578 5.56876 3.81222 5.72871 3.4341 5.43166C3.21802 5.25648 3.14857 5.02798 3.17172 4.84518C3.19487 4.65477 3.27976 4.52528 3.37236 4.41865C3.44953 4.32725 3.55757 4.22062 3.58843 4.19777C3.6193 4.17492 3.6656 4.13684 3.68875 4.10637C3.70419 4.09114 3.7119 4.09114 3.71962 4.09875C3.73505 4.11399 3.76592 4.15207 3.93569 4.28917C3.95884 4.3044 3.95884 4.31964 3.95113 4.32725C3.94341 4.33487 3.93569 4.33487 3.92026 4.32725C3.88168 4.3044 3.83537 4.28155 3.76592 4.28155C3.68875 4.28917 3.54213 4.34249 3.41866 4.49482C3.35693 4.57098 3.28747 4.67 3.28747 4.82233C3.28747 4.95182 3.35693 5.07368 3.5267 5.21078C3.81994 5.4469 4.19035 5.43928 4.42186 5.15746C4.45273 5.11938 4.49131 5.07368 4.49903 5.0356C4.50674 5.00513 4.49131 4.9899 4.46816 4.96705L4.33697 4.86803C4.26752 4.81472 4.2135 4.76902 4.17492 4.73855C4.12862 4.70047 4.09775 4.70047 4.05145 4.73093C4.04373 4.73855 4.02058 4.7614 4.00515 4.77663C3.99743 4.79187 3.98971 4.79187 3.97428 4.78425C3.96656 4.77663 3.96656 4.7614 3.98199 4.74617C4.03601 4.67762 4.11318 4.59383 4.14405 4.55575C4.17492 4.51767 4.22894 4.4415 4.26752 4.3958C4.28295 4.38057 4.29067 4.37295 4.3061 4.38057C4.31382 4.38818 4.31382 4.3958 4.3061 4.40342C4.29839 4.41103 4.29067 4.42627 4.28295 4.4415C4.2598 4.47958 4.27524 4.51767 4.32154 4.55575C4.36012 4.58622 4.41414 4.63192 4.48359 4.68523L4.63021 4.81472Z" fill="#003DA6"/>
<path d="M5.03944 3.40414C4.87738 3.19087 4.84651 3.15279 4.80793 3.11471C4.76935 3.06901 4.73848 3.05377 4.68446 3.08424C4.66903 3.09186 4.64587 3.10709 4.63044 3.12232C4.61501 3.12994 4.60729 3.13756 4.59957 3.12994C4.59186 3.12232 4.59957 3.10709 4.62272 3.09186C4.69218 3.03854 4.78478 2.97761 4.82336 2.94714C4.85423 2.92429 4.93912 2.85574 4.99314 2.81766C5.01629 2.80243 5.024 2.79481 5.03172 2.81004C5.03944 2.81766 5.03172 2.82528 5.01629 2.84051C5.00085 2.84813 4.99314 2.85574 4.9777 2.87098C4.94683 2.90906 4.95455 2.93953 4.98542 2.98523C5.01629 3.03092 5.04715 3.06901 5.20921 3.28227L5.35583 3.47269C5.51017 3.67072 5.6182 3.72404 5.72624 3.73165C5.82656 3.73927 5.89601 3.69357 5.94231 3.65549C6.00405 3.60979 6.06578 3.53362 6.0735 3.43461C6.08893 3.30512 5.99633 3.17564 5.8883 3.03092L5.75711 2.85574C5.59505 2.64248 5.56419 2.60439 5.5256 2.56631C5.48702 2.52061 5.45615 2.50538 5.40213 2.53584C5.3867 2.54346 5.36355 2.55869 5.34811 2.56631C5.33268 2.57393 5.32496 2.58154 5.31725 2.57393C5.30953 2.56631 5.31724 2.55108 5.3404 2.53584C5.40985 2.48253 5.50245 2.42159 5.50245 2.42159C5.51788 2.40636 5.60277 2.33781 5.65679 2.29973C5.67222 2.2845 5.68766 2.2845 5.69537 2.29211C5.70309 2.29973 5.69537 2.30735 5.67994 2.32258C5.66451 2.3302 5.65679 2.33781 5.64135 2.35305C5.61049 2.39113 5.6182 2.4216 5.64907 2.46729C5.67994 2.51299 5.71081 2.55108 5.87286 2.76434L5.98862 2.90906C6.10437 3.06139 6.22012 3.23657 6.18154 3.41937C6.15067 3.57932 6.05807 3.6631 5.97318 3.73165C5.90373 3.78497 5.76483 3.88399 5.59505 3.86875C5.4793 3.86114 5.34811 3.79259 5.19377 3.59456L5.03944 3.40414Z" fill="#003DA6"/>
<path d="M6.79105 1.83594C6.71388 1.75977 6.68301 1.75977 6.62128 1.76739C6.59813 1.76739 6.56726 1.78262 6.55954 1.79024C6.54411 1.79786 6.53639 1.79024 6.53639 1.78262C6.52867 1.76739 6.54411 1.75977 6.57497 1.75216C6.65986 1.71407 6.75246 1.68361 6.80648 1.66076C6.84507 1.64553 6.92223 1.60744 6.9994 1.57698C7.01484 1.56936 7.03799 1.56174 7.04571 1.57698C7.05342 1.58459 7.0457 1.59221 7.03027 1.59983C7.00712 1.60744 6.98397 1.62268 6.97625 1.63791C6.96854 1.65314 6.96854 1.66076 6.97625 1.67599C6.98397 1.69884 7.01484 1.73692 7.06114 1.78262L7.63991 2.39957H7.64762C7.63991 2.19392 7.63219 1.59221 7.62447 1.47034C7.62447 1.44749 7.61675 1.41703 7.61675 1.40179C7.60904 1.38656 7.60132 1.37894 7.58589 1.37894C7.56274 1.37894 7.53959 1.38656 7.51644 1.39418C7.501 1.40179 7.48557 1.40179 7.48557 1.39418C7.47785 1.37894 7.49328 1.37133 7.52415 1.36371C7.60132 1.33324 7.67077 1.31039 7.69392 1.30278C7.72479 1.29516 7.79424 1.25708 7.84054 1.23423C7.86369 1.22661 7.87913 1.22661 7.87913 1.23423C7.88685 1.24184 7.87913 1.24946 7.85598 1.25708C7.84054 1.26469 7.80968 1.27993 7.78653 1.31039C7.77109 1.33324 7.75566 1.37133 7.75566 1.49319C7.75566 1.66838 7.74794 1.77501 7.74794 2.00351C7.74794 2.2777 7.74022 2.48335 7.74022 2.58237C7.74022 2.689 7.74022 2.71947 7.71707 2.7347C7.69392 2.74232 7.67849 2.72709 7.61675 2.65854L6.79105 1.83594Z" fill="#003DA6"/>
<path d="M9.10617 1.45542C9.06758 1.19646 9.05987 1.14314 9.05215 1.08983C9.03672 1.02889 9.02128 1.00604 8.96726 1.00604C8.95183 1.00604 8.92096 1.00604 8.89781 1.01366C8.88238 1.01366 8.86694 1.01366 8.86694 1.00604C8.86694 0.990811 8.87466 0.990811 8.90553 0.983194C8.99813 0.967961 9.10617 0.960344 9.15247 0.952728C9.20649 0.945111 9.54603 0.899411 9.58462 0.891795C9.61548 0.884178 9.64635 0.876561 9.65407 0.868945C9.66178 0.868945 9.6695 0.861328 9.67722 0.861328C9.68494 0.861328 9.68494 0.868945 9.69265 0.876561C9.69265 0.891795 9.69265 0.907028 9.69265 0.990811C9.69265 1.00604 9.70037 1.08221 9.70037 1.10506C9.70037 1.11268 9.70037 1.12791 9.68494 1.12791C9.6695 1.12791 9.6695 1.12029 9.6695 1.10506C9.6695 1.08983 9.66178 1.06698 9.65407 1.04413C9.63863 1.01366 9.61548 0.998427 9.5306 0.998427C9.49973 0.998427 9.32224 1.02128 9.28366 1.02889C9.27594 1.02889 9.27594 1.03651 9.27594 1.04413L9.33767 1.47827C9.33767 1.49351 9.34539 1.49351 9.35311 1.49351C9.39169 1.48589 9.58462 1.46304 9.6232 1.44781C9.66178 1.44019 9.69265 1.43257 9.70037 1.40972C9.70809 1.39449 9.7158 1.38688 9.72352 1.38688C9.73124 1.38688 9.73895 1.38688 9.73895 1.40211C9.73895 1.40972 9.73895 1.44019 9.74667 1.53159C9.74667 1.56967 9.75439 1.63822 9.75439 1.64584C9.75439 1.66107 9.76211 1.67631 9.74667 1.68392C9.73124 1.68392 9.73124 1.67631 9.73124 1.66869C9.72352 1.65346 9.72352 1.63061 9.7158 1.60776C9.70037 1.57729 9.67722 1.55444 9.60777 1.55444C9.5769 1.55444 9.40713 1.57729 9.36083 1.58491C9.35311 1.58491 9.35311 1.59252 9.35311 1.60014L9.37626 1.73724C9.38398 1.79817 9.40713 1.95051 9.41484 2.00382C9.43799 2.11807 9.46886 2.14092 9.63863 2.11807C9.68494 2.11045 9.75439 2.10284 9.80069 2.07237C9.83927 2.0419 9.85471 2.00382 9.86242 1.93527C9.86242 1.91242 9.86242 1.91242 9.87786 1.90481C9.89329 1.90481 9.89329 1.92004 9.89329 1.93527C9.90101 1.97336 9.90101 2.09522 9.90101 2.12569C9.89329 2.17139 9.87786 2.17139 9.81612 2.18662C9.55375 2.2247 9.43799 2.23232 9.33767 2.23994C9.29909 2.24755 9.19105 2.26279 9.1216 2.27802C9.09845 2.27802 9.08302 2.27802 9.08302 2.26279C9.08302 2.25517 9.09073 2.24755 9.10617 2.24755C9.12932 2.24755 9.15247 2.23994 9.1679 2.23232C9.19877 2.21709 9.20649 2.179 9.20649 2.1333C9.20649 2.05714 9.18334 1.92766 9.16019 1.76771L9.10617 1.45542Z" fill="#003DA6"/>
<path d="M11.2746 1.5073C11.2746 1.52253 11.2746 1.53015 11.2901 1.53776C11.3209 1.553 11.375 1.56823 11.4213 1.56823C11.4907 1.57585 11.5139 1.56823 11.5447 1.553C11.5987 1.52253 11.6605 1.44636 11.6759 1.30927C11.7068 1.06553 11.5524 0.974134 11.4521 0.966517C11.4058 0.9589 11.375 0.9589 11.3595 0.966517C11.3441 0.966517 11.3441 0.974134 11.3441 0.989367L11.2746 1.5073ZM11.0894 1.34735C11.1203 1.08838 11.128 1.03507 11.128 0.98175C11.128 0.920817 11.1203 0.890351 11.0663 0.875117C11.0508 0.867501 11.0277 0.867501 10.9968 0.859884C10.9814 0.859884 10.966 0.852268 10.966 0.844651C10.966 0.829418 10.9814 0.829418 11.0045 0.837034C11.0971 0.844651 11.2052 0.867501 11.236 0.867501C11.2978 0.875117 11.429 0.882734 11.4753 0.890351C11.5833 0.905584 11.6991 0.928434 11.7839 1.0046C11.8302 1.04268 11.8843 1.1417 11.8688 1.25595C11.8534 1.38543 11.7839 1.49206 11.5987 1.61393C11.7299 1.8272 11.8302 1.99476 11.9151 2.10901C12 2.22326 12.0695 2.23849 12.0926 2.24611C12.1081 2.25373 12.1235 2.25373 12.1389 2.25373C12.1544 2.25373 12.1621 2.26134 12.1544 2.26896C12.1544 2.28419 12.1389 2.28419 12.1158 2.28419L11.9537 2.26896C11.8611 2.26134 11.8148 2.24611 11.7762 2.21564C11.7068 2.16994 11.6528 2.07854 11.5679 1.93383C11.5139 1.83481 11.4444 1.70533 11.429 1.67486C11.4213 1.66725 11.4135 1.65963 11.3981 1.65963L11.2515 1.63678C11.2438 1.63678 11.236 1.63678 11.236 1.65201V1.67486C11.2206 1.83481 11.1975 1.97191 11.1975 2.04046C11.1975 2.09378 11.2052 2.13186 11.2515 2.13948C11.2746 2.14709 11.3132 2.15471 11.3364 2.15471C11.3518 2.15471 11.3595 2.16233 11.3518 2.16994C11.3518 2.18518 11.3364 2.18518 11.3132 2.18518C11.2129 2.16994 11.0894 2.15471 11.0586 2.14709C11.0277 2.14709 10.9197 2.13948 10.8502 2.12424C10.8271 2.12424 10.8193 2.11663 10.8193 2.10139C10.8193 2.09378 10.8271 2.08616 10.8502 2.09378C10.8734 2.09378 10.8965 2.09378 10.9119 2.09378C10.9505 2.09378 10.9582 2.05569 10.9737 2.00238C10.9891 1.93383 11.0045 1.79673 11.0277 1.63678L11.0894 1.34735Z" fill="#003DA6"/>
<path d="M13.1111 2.38441C13.0571 2.50627 13.0648 2.55959 13.088 2.58244C13.1111 2.60529 13.142 2.62052 13.1652 2.62814C13.1806 2.63575 13.1883 2.64337 13.1883 2.65099C13.1806 2.66622 13.1652 2.6586 13.142 2.65099C13.0417 2.60529 12.9799 2.57482 12.9491 2.55959C12.9336 2.55197 12.8565 2.52912 12.7716 2.49104C12.7484 2.48342 12.7407 2.4758 12.7407 2.46057C12.7484 2.45296 12.7562 2.45296 12.7716 2.46057C12.7947 2.46819 12.8179 2.48342 12.8488 2.48342C12.8951 2.49104 12.9259 2.44534 12.9877 2.30824L13.4121 1.37139C13.4275 1.34093 13.443 1.31808 13.4584 1.32569C13.4738 1.33331 13.4815 1.35616 13.497 1.40186C13.5047 1.43233 13.6359 1.79031 13.7671 2.12544C13.8288 2.27777 13.9446 2.59767 13.96 2.63575H13.9677L14.2687 1.91217C14.3073 1.81316 14.3073 1.77508 14.2764 1.74461C14.2532 1.72176 14.2224 1.70653 14.1992 1.69891C14.1838 1.69129 14.1761 1.68368 14.1838 1.67606C14.1915 1.66083 14.2069 1.66844 14.2301 1.67606C14.315 1.71414 14.3844 1.75223 14.423 1.75984C14.4384 1.76746 14.5002 1.79031 14.5773 1.82078C14.6005 1.82839 14.6159 1.83601 14.6082 1.85124C14.6005 1.85886 14.5928 1.85886 14.5696 1.85124C14.5542 1.84363 14.5388 1.83601 14.5233 1.83601C14.477 1.82839 14.4462 1.85886 14.4076 1.94264L13.9523 2.94042C13.9368 2.9785 13.9214 2.98612 13.9137 2.9785C13.8983 2.97089 13.8828 2.94804 13.8751 2.91757C13.8134 2.78047 13.7053 2.48342 13.6127 2.24731C13.5124 2.00357 13.4275 1.72938 13.4121 1.68368H13.4044L13.1111 2.38441Z" fill="#003DA6"/>
<path d="M15.4031 2.96272C15.5729 2.75707 15.6037 2.71899 15.6346 2.67329C15.6732 2.62759 15.6732 2.59712 15.6423 2.55142C15.6346 2.54381 15.6114 2.52096 15.596 2.50573C15.5806 2.49049 15.5729 2.48288 15.5806 2.47526C15.5883 2.46764 15.6037 2.46764 15.6192 2.49049C15.6886 2.55142 15.7735 2.61997 15.8121 2.65044C15.8429 2.67329 15.9356 2.74184 15.9819 2.77992C16.005 2.79516 16.0127 2.80277 16.005 2.81801C15.9973 2.82562 15.9896 2.82562 15.9741 2.81039C15.9587 2.79516 15.951 2.79516 15.9355 2.77992C15.897 2.75707 15.8661 2.77231 15.8198 2.81801C15.7812 2.85609 15.7503 2.89417 15.5806 3.09982L15.4262 3.29024C15.2642 3.48827 15.2333 3.5949 15.2565 3.70153C15.2719 3.80055 15.3336 3.85387 15.3799 3.89195C15.4417 3.93765 15.5266 3.97573 15.6269 3.96812C15.7581 3.95288 15.8661 3.83863 15.9819 3.70153L16.1208 3.53397C16.2905 3.32832 16.3214 3.29024 16.3523 3.24454C16.3908 3.19884 16.3908 3.16837 16.36 3.12267C16.3523 3.11505 16.3291 3.0922 16.3137 3.07697C16.2982 3.06174 16.2905 3.05412 16.2982 3.0465C16.306 3.03889 16.3214 3.03889 16.3368 3.05412C16.4063 3.10744 16.4834 3.1836 16.4912 3.1836C16.5066 3.19884 16.5915 3.25977 16.6455 3.30547C16.6609 3.3207 16.6687 3.32832 16.6609 3.34355C16.6532 3.35117 16.6455 3.35117 16.6301 3.33594C16.6146 3.3207 16.6069 3.3207 16.5915 3.30547C16.5529 3.28262 16.522 3.29785 16.4757 3.34355C16.4371 3.38164 16.4063 3.41972 16.2365 3.62537L16.1208 3.77008C15.9973 3.92242 15.8507 4.06713 15.6577 4.06713C15.4957 4.07475 15.3877 4.0062 15.3028 3.93765C15.2333 3.87672 15.1098 3.77008 15.079 3.60252C15.0635 3.48827 15.0944 3.34355 15.2565 3.15314L15.4031 2.96272Z" fill="#003DA6"/>
<path d="M16.9542 4.936C16.7767 5.0731 16.6841 5.14927 16.6841 5.19497C16.6841 5.23305 16.6996 5.27875 16.7844 5.37777C16.8385 5.44632 16.8848 5.49963 16.9465 5.50725C16.9774 5.50725 17.0314 5.49202 17.0545 5.47678C17.07 5.46917 17.0777 5.46155 17.0854 5.47678C17.0931 5.4844 17.0854 5.49202 17.07 5.50725C17.0545 5.52248 16.9465 5.59103 16.8925 5.61388C16.8539 5.62912 16.8462 5.62912 16.7844 5.56057C16.6301 5.37015 16.5684 5.27113 16.4835 5.1645C16.4603 5.13403 16.3909 5.05025 16.3446 4.99694C16.3291 4.9817 16.3291 4.96647 16.3369 4.95885C16.3446 4.95124 16.3523 4.95885 16.3677 4.97409C16.3832 4.99694 16.3986 5.00455 16.414 5.01979C16.4372 5.04264 16.4758 5.0274 16.5221 4.99694C16.5838 4.95885 16.6918 4.87507 16.823 4.77605L17.0622 4.58564C17.2706 4.42569 17.3092 4.39522 17.3555 4.35714C17.4018 4.31906 17.4172 4.28859 17.3864 4.23527C17.3786 4.22004 17.3709 4.20481 17.3555 4.18957C17.3401 4.17434 17.3401 4.16672 17.3478 4.15911C17.3555 4.15149 17.3709 4.15911 17.3864 4.18196C17.4404 4.24289 17.5021 4.33429 17.533 4.37237C17.5561 4.40284 17.641 4.50185 17.6796 4.54755C17.695 4.56279 17.7027 4.57802 17.6873 4.58564C17.6796 4.59325 17.6719 4.58564 17.6564 4.5704C17.641 4.55517 17.6256 4.53232 17.6101 4.5247C17.5716 4.49424 17.5407 4.50185 17.4944 4.53994C17.4481 4.5704 17.4095 4.60087 17.2011 4.76844L16.9542 4.936Z" fill="#003DA6"/>
<path d="M1.59747 10.5871C1.58203 10.5871 1.57432 10.5871 1.5666 10.6023C1.55117 10.6404 1.54345 10.6861 1.53573 10.7318C1.52802 10.8003 1.53573 10.8232 1.55117 10.8537C1.58203 10.907 1.6592 10.9679 1.80582 10.9755C2.05276 10.9984 2.13765 10.846 2.15308 10.747C2.1608 10.7013 2.1608 10.6709 2.15308 10.6556C2.15308 10.6404 2.14537 10.6404 2.12993 10.6404L1.59747 10.5871ZM1.75181 10.3967C2.01418 10.4195 2.0682 10.4271 2.12222 10.4271C2.18395 10.4271 2.21482 10.4195 2.23025 10.3662C2.23797 10.351 2.23797 10.3205 2.24569 10.2976C2.24569 10.2824 2.2534 10.2672 2.26112 10.2672C2.27655 10.2672 2.27655 10.2824 2.27655 10.3053C2.26884 10.3967 2.2534 10.5033 2.24569 10.5414C2.23797 10.6023 2.23025 10.7318 2.23025 10.7851C2.22254 10.8917 2.19939 11.006 2.12222 11.0898C2.08363 11.1355 1.99103 11.1964 1.87528 11.1812C1.74409 11.1659 1.63605 11.105 1.50487 10.9222C1.29651 11.0517 1.12674 11.1583 1.01098 11.2497C0.902948 11.3335 0.879797 11.4021 0.872081 11.4325C0.864364 11.4478 0.864364 11.463 0.864364 11.4782C0.864364 11.4935 0.856647 11.5011 0.84893 11.5011C0.833496 11.5011 0.833496 11.4858 0.833496 11.4706L0.84893 11.3107C0.856647 11.2116 0.872081 11.1736 0.902948 11.1355C0.949249 11.0669 1.04185 11.006 1.18076 10.9298C1.28108 10.8689 1.41226 10.8003 1.43541 10.7851C1.44313 10.7775 1.45085 10.7699 1.45085 10.7546L1.46628 10.5871C1.46628 10.5795 1.46628 10.5718 1.45085 10.5718H1.4277C1.26564 10.5566 1.12674 10.5414 1.04957 10.5414C0.995551 10.5414 0.956966 10.549 0.949249 10.6023C0.941533 10.6252 0.933816 10.6632 0.933816 10.6861C0.933816 10.7013 0.926099 10.7089 0.918382 10.7013C0.902948 10.7013 0.902948 10.6861 0.902948 10.6632C0.910665 10.5642 0.926099 10.4424 0.933816 10.4119C0.933816 10.3814 0.941533 10.2748 0.949249 10.2062C0.949249 10.1834 0.956966 10.1758 0.9724 10.1758C0.980117 10.1758 0.987834 10.1834 0.980117 10.2062C0.980117 10.2291 0.980117 10.2519 0.980117 10.2672C0.980117 10.3053 1.0187 10.3129 1.07272 10.3281C1.14217 10.3433 1.28108 10.3586 1.44313 10.3738L1.75181 10.3967Z" fill="#003DA6"/>
<path d="M1.66702 12.4226C1.93711 12.4074 1.98341 12.4074 2.03743 12.3998C2.09916 12.3922 2.12231 12.3769 2.13003 12.3236C2.13003 12.3084 2.13003 12.2779 2.13003 12.2551C2.13003 12.2398 2.13003 12.2246 2.14546 12.2246C2.1609 12.2246 2.1609 12.2322 2.1609 12.2627C2.16861 12.3541 2.16861 12.4607 2.16861 12.5064C2.16861 12.5597 2.19176 12.9025 2.19176 12.933C2.19948 12.9634 2.19948 12.9939 2.2072 13.0091C2.2072 13.0167 2.21492 13.0244 2.21492 13.0396C2.21492 13.0472 2.2072 13.0472 2.19948 13.0472C2.18405 13.0472 2.16861 13.0396 2.08373 13.0396C2.06829 13.0396 1.99113 13.0396 1.96797 13.0396C1.96026 13.0396 1.94482 13.032 1.94482 13.0244C1.94482 13.0091 1.95254 13.0091 1.96797 13.0091C1.98341 13.0091 2.00656 13.0015 2.02971 12.9939C2.06058 12.9787 2.08373 12.9634 2.08373 12.8796C2.08373 12.8492 2.07601 12.674 2.07601 12.6359C2.07601 12.6283 2.06829 12.6207 2.06058 12.6283L1.62071 12.6511C1.60528 12.6511 1.60528 12.6511 1.60528 12.6664C1.60528 12.7045 1.62071 12.9025 1.62843 12.9406C1.63615 12.9787 1.64387 13.0091 1.6593 13.0244C1.67473 13.032 1.68245 13.0396 1.68245 13.0472C1.68245 13.0548 1.68245 13.0624 1.66702 13.0624C1.6593 13.0624 1.62843 13.0548 1.53583 13.0548C1.49724 13.0548 1.42779 13.0548 1.42008 13.0548C1.40464 13.0548 1.38921 13.0548 1.38921 13.0396C1.38921 13.0244 1.39692 13.0244 1.40464 13.0244C1.42008 13.0244 1.44323 13.0167 1.46638 13.0167C1.49724 13.0091 1.52811 12.9787 1.52811 12.9177C1.52811 12.8873 1.5204 12.7197 1.5204 12.674C1.5204 12.6664 1.51268 12.6664 1.50496 12.6664L1.36606 12.674C1.30432 12.674 1.14227 12.6816 1.09597 12.6892C0.972496 12.6968 0.949345 12.7273 0.957062 12.9025C0.957062 12.9482 0.964779 13.0167 0.98793 13.0624C1.01108 13.1081 1.04966 13.1234 1.11912 13.131C1.14227 13.131 1.14227 13.1386 1.14998 13.1462C1.14998 13.1615 1.13455 13.1615 1.11912 13.1615C1.08053 13.1615 0.957062 13.1538 0.926194 13.1538C0.879893 13.1462 0.879893 13.131 0.872176 13.0624C0.856742 12.8035 0.864459 12.6892 0.856742 12.5902C0.856742 12.5521 0.841309 12.4455 0.841309 12.3769C0.841309 12.3541 0.841309 12.3389 0.856742 12.3389C0.864459 12.3389 0.872176 12.3465 0.872176 12.3617C0.872176 12.3846 0.879893 12.4074 0.879893 12.4226C0.88761 12.4531 0.926194 12.4607 0.980213 12.4683C1.05738 12.476 1.19629 12.4683 1.35062 12.4531L1.66702 12.4226Z" fill="#003DA6"/>
<path d="M1.86763 14.2353C2.13 14.182 2.1763 14.1744 2.23032 14.1592C2.28434 14.1439 2.31521 14.1211 2.31521 14.0678C2.31521 14.0525 2.31521 14.0221 2.30749 13.9992C2.29977 13.984 2.30749 13.9688 2.31521 13.9688C2.33064 13.9688 2.33064 13.9764 2.33836 13.9992C2.35379 14.0906 2.37694 14.1972 2.38466 14.2429C2.40009 14.3115 2.42324 14.4105 2.43868 14.4867C2.48498 14.6923 2.43096 14.7837 2.40781 14.8218C2.37694 14.8675 2.31521 14.9284 2.2226 14.9513C1.97566 15.0046 1.76731 14.8675 1.72101 14.6238C1.72101 14.6162 1.71329 14.5933 1.71329 14.5857C1.71329 14.5781 1.71329 14.5628 1.72101 14.5628C1.73644 14.5628 1.74416 14.5705 1.75187 14.6085C1.77502 14.6999 1.90621 14.8066 2.0837 14.7761C2.13772 14.7609 2.25347 14.738 2.32292 14.6238C2.36922 14.5552 2.36151 14.4791 2.35379 14.441C2.34607 14.4181 2.33836 14.3877 2.33064 14.38C2.32292 14.3724 2.31521 14.3724 2.29206 14.3724L1.60525 14.5171C1.45091 14.5476 1.31201 14.5781 1.24256 14.6009C1.19626 14.6162 1.15767 14.6314 1.16539 14.6847C1.16539 14.7076 1.17311 14.7456 1.17311 14.7685C1.18082 14.7837 1.17311 14.799 1.16539 14.799C1.14996 14.799 1.14224 14.7913 1.14224 14.7685C1.11909 14.6619 1.10365 14.5552 1.08822 14.5095C1.0805 14.4714 1.04964 14.3648 1.0342 14.2963C1.02649 14.2734 1.0342 14.2582 1.04192 14.2582C1.04964 14.2582 1.05735 14.2658 1.06507 14.281C1.07279 14.3039 1.0805 14.3267 1.08822 14.342C1.10365 14.3724 1.14224 14.3724 1.19626 14.3724C1.27343 14.3648 1.40461 14.3343 1.56667 14.3039L1.86763 14.2353Z" fill="#003DA6"/>
<path d="M2.33063 15.9719C2.57757 15.8729 2.62387 15.8576 2.67789 15.8348C2.73191 15.8119 2.75506 15.7891 2.73962 15.7281C2.73962 15.7129 2.73191 15.6901 2.71647 15.6672C2.70876 15.652 2.70876 15.6367 2.71647 15.6367C2.72419 15.6291 2.73191 15.6444 2.74734 15.6672C2.77821 15.751 2.81679 15.85 2.83994 15.9033C2.85538 15.9414 2.90168 16.0404 2.92483 16.0937C2.93255 16.1166 2.93255 16.1318 2.92483 16.1318C2.91711 16.1394 2.9094 16.1318 2.90168 16.109C2.89396 16.0937 2.88625 16.0861 2.87853 16.0633C2.85538 16.0252 2.81679 16.0252 2.76278 16.0404C2.70876 16.0557 2.66246 16.0785 2.41552 16.1775L2.18401 16.2689C1.94478 16.3603 1.86762 16.4517 1.83675 16.5507C1.80588 16.6498 1.82903 16.7183 1.85218 16.7716C1.88305 16.8402 1.93707 16.9163 2.02967 16.9544C2.15314 17.0077 2.29976 16.9544 2.46953 16.8859L2.67017 16.8021C2.91711 16.7031 2.96341 16.6878 3.01743 16.665C3.07145 16.6421 3.0946 16.6193 3.07917 16.5584C3.07917 16.5431 3.07145 16.5203 3.06373 16.4974C3.05602 16.4822 3.05602 16.467 3.06373 16.467C3.07145 16.4593 3.07917 16.4746 3.0946 16.4974C3.12547 16.5812 3.16405 16.6802 3.16405 16.6802C3.17177 16.6955 3.21807 16.7945 3.24122 16.8554C3.24894 16.8783 3.24894 16.8935 3.24122 16.8935C3.23351 16.9011 3.22579 16.8935 3.21807 16.8706C3.21036 16.8554 3.20264 16.8478 3.19492 16.8249C3.17177 16.7869 3.13319 16.7869 3.07917 16.8021C3.02515 16.8173 2.97885 16.8402 2.73191 16.9392L2.55442 17.0077C2.37693 17.0763 2.17629 17.1372 2.00652 17.0534C1.8599 16.9773 1.79816 16.8706 1.75186 16.7716C1.721 16.6878 1.65926 16.5355 1.721 16.3756C1.75958 16.2613 1.8599 16.1547 2.09141 16.0633L2.33063 15.9719Z" fill="#003DA6"/>
<path d="M3.40324 18.212C3.38781 18.2196 3.38781 18.2272 3.39553 18.2348C3.40324 18.2501 3.41096 18.2729 3.43411 18.3034C3.46498 18.3491 3.48813 18.3796 3.52671 18.3872C3.58073 18.4024 3.65018 18.3948 3.71964 18.3491C3.81996 18.2882 3.91256 18.1511 3.82767 18.0216C3.81224 17.9987 3.80452 17.9911 3.79681 17.9759C3.78909 17.9683 3.78137 17.9683 3.76594 17.9759L3.40324 18.212ZM3.41096 18.4786C3.41096 18.4329 3.40324 18.3948 3.36466 18.3339C3.34923 18.3034 3.34151 18.2958 3.32607 18.2729C3.32607 18.2653 3.31836 18.2653 3.31064 18.2729L2.96338 18.4938C2.86306 18.5547 2.83991 18.5776 2.85534 18.6309C2.86306 18.6766 2.88621 18.7147 2.90936 18.7452C2.94795 18.8061 3.05598 18.8975 3.21032 18.7985C3.29521 18.7452 3.40324 18.6309 3.41096 18.4786ZM3.31064 18.0216C3.53443 17.8769 3.57302 17.854 3.61932 17.8159C3.66562 17.7778 3.68105 17.755 3.66562 17.7017C3.6579 17.6864 3.65018 17.6636 3.63475 17.6407C3.62703 17.6255 3.61932 17.6179 3.63475 17.6103C3.64247 17.6027 3.6579 17.6103 3.66562 17.6331C3.71192 17.7093 3.77365 17.8007 3.78909 17.8312C3.83539 17.8997 3.87397 17.953 3.90484 18.0063C4.07461 18.2653 3.95886 18.4024 3.88169 18.4557C3.75822 18.5319 3.64247 18.509 3.52671 18.471C3.5653 18.6157 3.54986 18.8289 3.38009 18.9356C3.22576 19.0346 2.97881 19.0194 2.80904 18.7604C2.78589 18.7223 2.70872 18.5928 2.68557 18.5471C2.66242 18.5167 2.60069 18.4253 2.5621 18.3719C2.54667 18.3567 2.54667 18.3415 2.55439 18.3339C2.5621 18.3262 2.56982 18.3339 2.57754 18.3491C2.59297 18.3719 2.6084 18.3872 2.61612 18.3948C2.63927 18.4176 2.67786 18.4024 2.72416 18.3872C2.79361 18.3567 2.90936 18.2805 3.04055 18.1968L3.31064 18.0216Z" fill="#003DA6"/>
<path d="M4.41429 19.9562C4.25223 20.1086 4.16735 20.1924 4.16735 20.2381C4.16735 20.2761 4.1905 20.3142 4.2831 20.4132C4.34483 20.4818 4.39113 20.5275 4.46059 20.5275C4.49145 20.5275 4.53776 20.5046 4.56862 20.4894C4.58406 20.4818 4.59177 20.4742 4.59949 20.4818C4.60721 20.4894 4.59949 20.497 4.58406 20.5123C4.56862 20.5275 4.4683 20.6037 4.422 20.6341C4.38342 20.6494 4.3757 20.6494 4.31397 20.5884C4.14419 20.4132 4.07474 20.3218 3.97442 20.2228C3.94355 20.1924 3.86639 20.1162 3.82008 20.0705C3.80465 20.0553 3.79693 20.04 3.81237 20.0324C3.82008 20.0248 3.8278 20.0248 3.84324 20.04C3.85867 20.0553 3.8741 20.0705 3.88954 20.0781C3.9204 20.101 3.95127 20.0781 3.99757 20.0476C4.05931 20.0019 4.15963 19.9105 4.27538 19.7963L4.49917 19.583C4.69209 19.4002 4.73068 19.3698 4.76926 19.3241C4.80785 19.2784 4.82328 19.2555 4.79241 19.2022C4.7847 19.187 4.76926 19.1717 4.75383 19.1565C4.7384 19.1413 4.7384 19.1337 4.74611 19.126C4.75383 19.1184 4.76926 19.126 4.7847 19.1413C4.83872 19.2022 4.91588 19.2784 4.94675 19.3165C4.97762 19.3469 5.06251 19.4307 5.11652 19.484C5.13196 19.4993 5.13967 19.5145 5.13196 19.5221C5.12424 19.5297 5.11652 19.5221 5.10109 19.5069C5.08566 19.4916 5.07022 19.4764 5.04707 19.4612C5.00849 19.4307 4.97762 19.4459 4.93132 19.484C4.88502 19.5221 4.85415 19.5526 4.66123 19.7354L4.41429 19.9562Z" fill="#003DA6"/>
<path d="M5.82648 20.7856C5.98081 20.5723 6.01168 20.5342 6.04255 20.4885C6.07342 20.4352 6.08113 20.4047 6.05026 20.3743C6.03483 20.359 6.0194 20.3438 6.00396 20.3362C5.98853 20.3286 5.98081 20.321 5.98853 20.3057C5.99625 20.2981 6.01168 20.3057 6.02711 20.321C6.08113 20.359 6.16602 20.4276 6.2046 20.4581C6.24319 20.4809 6.32807 20.5418 6.38209 20.5799C6.39752 20.5952 6.41296 20.6028 6.40524 20.6104C6.39752 20.618 6.38981 20.618 6.37437 20.6104C6.35894 20.6028 6.35122 20.5952 6.32807 20.5875C6.28177 20.5647 6.25862 20.5799 6.22004 20.6332C6.18145 20.6789 6.1583 20.717 5.99625 20.9303L5.81104 21.174C5.71072 21.3111 5.62584 21.4177 5.58725 21.4863C5.5641 21.5244 5.55638 21.5625 5.59497 21.5929C5.6104 21.6082 5.64127 21.631 5.66442 21.6462C5.67985 21.6539 5.68757 21.6691 5.67985 21.6767C5.67214 21.6843 5.6567 21.6843 5.64127 21.6691C5.54867 21.6005 5.46378 21.532 5.4252 21.5091C5.39433 21.4863 5.30173 21.4254 5.24771 21.3873C5.23228 21.372 5.22456 21.3644 5.23228 21.3568C5.23999 21.3492 5.24771 21.3492 5.26314 21.3644C5.28629 21.3797 5.30173 21.3873 5.31716 21.3949C5.34803 21.4101 5.3789 21.3949 5.40976 21.3568C5.46378 21.3035 5.54095 21.1892 5.64127 21.0598L5.82648 20.7856Z" fill="#003DA6"/>
<path d="M6.87587 22.18C6.78327 21.9744 6.81414 21.784 6.88359 21.624C6.92989 21.5174 7.04564 21.3422 7.26172 21.266C7.42377 21.2127 7.60126 21.2127 7.84048 21.3117C7.9408 21.3574 7.99482 21.3879 8.06427 21.426C8.11829 21.4565 8.16459 21.4945 8.21089 21.5174C8.22633 21.525 8.23404 21.5402 8.22633 21.5479C8.21861 21.5631 8.21089 21.5783 8.18003 21.6316C8.15688 21.685 8.11829 21.7687 8.10286 21.7992C8.08742 21.8221 8.07971 21.8373 8.06427 21.8297C8.04884 21.8221 8.05656 21.8068 8.06427 21.7916C8.08742 21.7383 8.08742 21.6773 8.06427 21.6164C8.03341 21.5402 7.93309 21.4412 7.78647 21.3803C7.64756 21.3194 7.53952 21.3194 7.44692 21.3498C7.28487 21.4031 7.18455 21.5479 7.12281 21.7002C6.95304 22.081 7.1614 22.3857 7.37747 22.4771C7.51637 22.538 7.60898 22.5609 7.7093 22.5152C7.74788 22.4999 7.79418 22.4619 7.80962 22.4314C7.82505 22.4085 7.83277 22.4009 7.84048 22.4085C7.8482 22.4162 7.8482 22.4238 7.84048 22.439C7.83277 22.4619 7.7556 22.5913 7.7093 22.637C7.68615 22.6599 7.67843 22.6675 7.64756 22.6675C7.57039 22.6675 7.44692 22.6218 7.3466 22.5837C7.13053 22.4923 6.96847 22.3705 6.87587 22.18Z" fill="#003DA6"/>
<path d="M9.13694 22.2398C9.18324 21.9809 9.19096 21.9352 9.19867 21.8742C9.20639 21.8133 9.19096 21.7828 9.16009 21.7676C9.14465 21.76 9.1215 21.7524 9.09835 21.7524C9.08292 21.7524 9.0752 21.7448 9.0752 21.7295C9.0752 21.7219 9.09064 21.7143 9.1215 21.7219C9.18324 21.7295 9.29127 21.7524 9.34529 21.7676C9.39159 21.7752 9.49191 21.7828 9.55365 21.7981C9.5768 21.7981 9.59223 21.8057 9.58451 21.8209C9.58451 21.8362 9.56908 21.8362 9.55365 21.8362C9.53821 21.8362 9.52278 21.8362 9.49963 21.8362C9.45333 21.8362 9.43018 21.8666 9.42246 21.9199C9.40703 21.9733 9.39931 22.019 9.35301 22.2779L9.29899 22.575C9.26812 22.7425 9.24497 22.872 9.24497 22.9482C9.24497 22.9939 9.25269 23.0243 9.29899 23.0396C9.32214 23.0472 9.36073 23.0548 9.38388 23.0624C9.39931 23.0624 9.40703 23.07 9.40703 23.0777C9.40703 23.0929 9.39159 23.0929 9.36844 23.0929C9.25269 23.0777 9.15237 23.0472 9.10607 23.0396C9.06749 23.032 8.95945 23.0167 8.89 23.0091C8.86685 23.0091 8.85913 23.0015 8.85913 22.9863C8.85913 22.9786 8.86685 22.971 8.89 22.9786C8.91315 22.9863 8.9363 22.9863 8.95173 22.9786C8.99032 22.9786 9.00575 22.9482 9.01347 22.9025C9.03662 22.8339 9.05977 22.6968 9.08292 22.5293L9.13694 22.2398Z" fill="#003DA6"/>
<path d="M10.6649 22.3619C10.6572 22.0953 10.6572 22.0496 10.6495 21.9963C10.6417 21.9353 10.6263 21.9049 10.5877 21.9049C10.5723 21.8973 10.5491 21.8973 10.526 21.8973C10.5106 21.8973 10.4951 21.8973 10.4951 21.882C10.4951 21.8744 10.5106 21.8668 10.5337 21.8668C10.6032 21.8668 10.7112 21.8668 10.7575 21.8668C10.8038 21.8668 10.9041 21.8592 10.9658 21.8516C10.989 21.8516 11.0044 21.8516 11.0044 21.8668C11.0044 21.882 10.9967 21.882 10.9736 21.882C10.9581 21.882 10.9427 21.882 10.9195 21.8896C10.8732 21.8973 10.8578 21.9277 10.8578 21.9887C10.8578 22.042 10.8578 22.0953 10.8655 22.3543L10.8732 22.6589C10.881 22.8265 10.881 22.9636 10.8964 23.0398C10.9041 23.0855 10.9195 23.1159 10.9658 23.1235C10.989 23.1235 11.0276 23.1312 11.0507 23.1235C11.0662 23.1235 11.0816 23.1312 11.0816 23.1388C11.0816 23.154 11.0662 23.154 11.0507 23.154C10.935 23.1616 10.8269 23.154 10.7806 23.1616C10.7421 23.1616 10.634 23.1692 10.5646 23.1769C10.5414 23.1769 10.5337 23.1692 10.526 23.1616C10.526 23.154 10.5337 23.1464 10.5569 23.1464C10.58 23.1464 10.6032 23.1388 10.6186 23.1388C10.6495 23.1312 10.6649 23.1007 10.6649 23.0474C10.6726 22.9712 10.6649 22.8341 10.6572 22.6665L10.6649 22.3619Z" fill="#003DA6"/>
<path d="M12.9953 21.433C12.9876 21.4025 12.9876 21.3873 13.003 21.3796C13.0185 21.372 13.0262 21.3796 13.0648 21.4101L13.9136 22.0956V21.0064C13.9136 20.976 13.9136 20.9607 13.929 20.9531C13.9445 20.9455 13.9599 20.9607 13.9831 20.9912L14.585 21.8976C14.6467 21.989 14.6853 22.0271 14.7393 22.0194C14.7933 22.0118 14.8242 21.9966 14.8474 21.989C14.8628 21.9814 14.8705 21.9814 14.8782 21.989C14.8859 22.0042 14.8705 22.0118 14.8474 22.0271C14.8088 22.0423 14.5927 22.1413 14.5232 22.1642C14.4847 22.1794 14.4769 22.1794 14.4692 22.1642C14.4692 22.1565 14.4692 22.1489 14.4769 22.1413C14.4847 22.1337 14.4769 22.1108 14.4538 22.0728L14.0371 21.4253H14.0294L14.0216 22.2936C14.0216 22.385 14.0216 22.4003 14.0062 22.4079C13.9908 22.4155 13.9599 22.3927 13.9136 22.3546C13.8442 22.3013 13.6049 22.1185 13.5664 22.0804C13.5355 22.0575 13.3503 21.8976 13.2422 21.8062H13.2345L13.4506 22.4688C13.4583 22.4993 13.466 22.5221 13.4815 22.545C13.4969 22.5754 13.5201 22.5831 13.5509 22.5754C13.5818 22.5678 13.6049 22.5602 13.6204 22.5526C13.6358 22.545 13.6435 22.545 13.6512 22.5526C13.659 22.5678 13.6435 22.5754 13.6204 22.5907C13.5509 22.6211 13.4815 22.6516 13.4506 22.6592C13.4197 22.6745 13.3503 22.7125 13.2963 22.7354C13.2808 22.743 13.2654 22.743 13.2577 22.7278C13.2577 22.7202 13.2654 22.7125 13.2808 22.7049C13.2963 22.6973 13.304 22.6973 13.3271 22.6821C13.3657 22.6516 13.3503 22.5831 13.3348 22.5297L12.9953 21.433Z" fill="#003DA6"/>
<path d="M16.221 20.161C15.9587 19.8715 15.6346 19.8334 15.4185 20.0238C15.2719 20.1533 15.1715 20.3818 15.4648 20.7093C15.704 20.9759 16.0436 21.0673 16.2982 20.8464C16.3831 20.7627 16.5529 20.5418 16.221 20.161ZM15.3182 20.8998C15.1175 20.6789 15.0095 20.26 15.403 19.9248C15.7272 19.643 16.0976 19.6583 16.3599 19.9553C16.6223 20.2523 16.63 20.6713 16.2982 20.9531C15.9278 21.2806 15.5265 21.1359 15.3182 20.8998Z" fill="#003DA6"/>
<path d="M17.371 19.0262C17.5485 19.1557 17.6488 19.2319 17.6951 19.2167C17.7337 19.209 17.7722 19.1786 17.8494 19.0719C17.9034 18.9958 17.942 18.9425 17.9266 18.8815C17.9189 18.8511 17.8957 18.8054 17.8649 18.7825C17.8494 18.7749 17.8494 18.7597 17.8571 18.752C17.8649 18.7444 17.8726 18.7444 17.888 18.7597C17.9034 18.7673 18.0038 18.8587 18.0346 18.8968C18.0578 18.9272 18.0578 18.9425 18.0115 19.011C17.8649 19.209 17.7877 19.2928 17.7028 19.4071C17.6796 19.4375 17.6179 19.5289 17.5793 19.5823C17.5639 19.5975 17.5562 19.6051 17.5407 19.5975C17.533 19.5899 17.533 19.5823 17.5485 19.567C17.5639 19.5442 17.5716 19.5289 17.5793 19.5137C17.5948 19.4832 17.5716 19.4528 17.533 19.4147C17.479 19.3614 17.371 19.2852 17.2398 19.1862L16.9928 19.0034C16.7768 18.8434 16.7382 18.8206 16.6919 18.7901C16.6456 18.7597 16.6147 18.752 16.5684 18.7901C16.5607 18.7977 16.5453 18.813 16.5298 18.8358C16.5221 18.8511 16.5067 18.8587 16.499 18.8511C16.4912 18.8434 16.4912 18.8358 16.5067 18.813C16.553 18.752 16.6224 18.6683 16.6533 18.6302C16.6765 18.5997 16.7459 18.4931 16.7922 18.4398C16.8076 18.4169 16.8154 18.4093 16.8231 18.4169C16.8308 18.4245 16.8308 18.4322 16.8154 18.4474C16.8076 18.4626 16.7922 18.4855 16.7768 18.5007C16.7536 18.5464 16.7691 18.5693 16.8231 18.6073C16.8694 18.6454 16.908 18.6683 17.124 18.8282L17.371 19.0262Z" fill="#003DA6"/>
<path d="M18.2507 17.4189C18.4204 17.4951 18.5439 17.556 18.5748 17.5636C18.6134 17.5788 18.6828 17.6093 18.706 17.6017C18.7446 17.5941 18.8063 17.5484 18.868 17.4265C18.9452 17.2666 18.9606 17.1523 18.922 17.0152C18.8835 16.8781 18.7523 16.7791 18.5902 16.7029C18.3896 16.6115 18.2198 16.6268 18.1195 16.6648C17.9111 16.741 17.8108 16.9086 17.7491 17.0304C17.7336 17.0609 17.7105 17.1218 17.7105 17.1371C17.7105 17.1523 17.7182 17.1599 17.7336 17.1675C17.7877 17.198 17.9266 17.2589 18.05 17.3199L18.2507 17.4189ZM17.9806 17.5255C17.7414 17.4113 17.6951 17.3884 17.641 17.3732C17.587 17.3503 17.5562 17.3503 17.5176 17.396C17.5099 17.4037 17.4944 17.4341 17.4867 17.457C17.479 17.4722 17.4713 17.4798 17.4636 17.4798C17.4558 17.4722 17.4558 17.4646 17.4636 17.4417C17.5021 17.358 17.5562 17.2666 17.5716 17.2209C17.5947 17.1752 17.6333 17.0761 17.6796 16.9771C17.7722 16.7867 17.8957 16.5277 18.1581 16.444C18.2738 16.4059 18.4436 16.3906 18.6365 16.482C18.8372 16.5734 18.9529 16.7258 18.9992 16.8553C19.0378 16.9619 19.0764 17.1752 18.9375 17.457C18.8835 17.5712 18.7986 17.7007 18.76 17.7769C18.7446 17.815 18.6983 17.914 18.6751 17.9749C18.6674 17.9978 18.652 18.0054 18.6442 17.9978C18.6365 17.9978 18.6365 17.9825 18.6442 17.9673C18.652 17.9444 18.6597 17.9216 18.6674 17.9064C18.6751 17.8759 18.6442 17.8454 18.5979 17.8226C18.5362 17.7845 18.4127 17.7236 18.2661 17.655L17.9806 17.5255Z" fill="#003DA6"/>
<path d="M19.2848 14.4647C18.9066 14.3733 18.6134 14.5256 18.544 14.7998C18.4977 14.9903 18.5517 15.234 18.9761 15.3406C19.3311 15.4244 19.6629 15.3025 19.7401 14.9826C19.7709 14.8608 19.7786 14.579 19.2848 14.4647ZM18.9761 15.5767C18.6829 15.5082 18.351 15.2264 18.4745 14.7313C18.5748 14.32 18.8912 14.122 19.2771 14.2134C19.6706 14.3048 19.9098 14.6475 19.8018 15.0664C19.6938 15.5463 19.2771 15.6529 18.9761 15.5767Z" fill="#003DA6"/>
<path d="M18.9529 13.2073C18.8526 13.2378 18.8294 13.2683 18.814 13.3292C18.8063 13.352 18.8063 13.3825 18.8063 13.3977C18.8063 13.413 18.7985 13.4206 18.7908 13.4206C18.7754 13.4206 18.7754 13.3977 18.7754 13.3749C18.7831 13.2835 18.7908 13.1845 18.7985 13.1312C18.7985 13.0855 18.7985 13.0093 18.8063 12.9179C18.8063 12.895 18.814 12.8798 18.8217 12.8798C18.8371 12.8798 18.8371 12.8874 18.8371 12.9027C18.8371 12.9331 18.8371 12.956 18.8448 12.9712C18.8526 12.9864 18.868 12.9864 18.8834 12.9941C18.9066 12.9941 18.9529 12.9864 19.0223 12.9636L19.8403 12.7199V12.7122C19.6551 12.6285 19.0995 12.3695 18.9915 12.3238C18.9683 12.3162 18.9452 12.3086 18.9297 12.301C18.9143 12.301 18.8989 12.3086 18.8989 12.3238C18.8911 12.3467 18.8834 12.3695 18.8834 12.3924C18.8834 12.4076 18.8834 12.4228 18.868 12.4228C18.8526 12.4228 18.8526 12.4076 18.8526 12.3771C18.8603 12.2933 18.868 12.2172 18.868 12.2019C18.868 12.1715 18.868 12.0953 18.8757 12.042C18.8757 12.0191 18.8834 12.0039 18.8911 12.0039C18.9066 12.0039 18.9066 12.0115 18.9066 12.0344C18.9066 12.0496 18.9066 12.0877 18.922 12.1182C18.9374 12.141 18.9683 12.1715 19.0763 12.2248C19.2384 12.301 19.331 12.3543 19.5394 12.4609C19.7863 12.5828 19.9715 12.6818 20.0564 12.7199C20.1567 12.7732 20.1799 12.7808 20.1799 12.8036C20.1799 12.8265 20.1567 12.8341 20.0718 12.8646L18.9529 13.2073Z" fill="#003DA6"/>
<path d="M19.5625 10.7398C19.5625 10.7322 19.5548 10.7322 19.5548 10.7322L19.138 10.9226C19.1303 10.9226 19.1226 10.9302 19.1226 10.9302C19.1226 10.9378 19.1303 10.9378 19.138 10.9378L19.5856 11.0597C19.5933 11.0597 19.6011 11.0597 19.6011 11.0521L19.5625 10.7398ZM19.6782 11.0825C19.6782 11.0902 19.6859 11.0978 19.6937 11.0978L19.9483 11.1663C19.9946 11.1816 20.0332 11.1816 20.0563 11.1816C20.0872 11.1816 20.1104 11.1587 20.1027 11.1054V11.0825C20.1027 11.0597 20.1027 11.0597 20.1181 11.0521C20.1335 11.0521 20.1335 11.0597 20.1412 11.0825C20.149 11.1359 20.149 11.212 20.149 11.2653C20.149 11.2806 20.1644 11.3796 20.1721 11.4634C20.1721 11.4862 20.1721 11.4938 20.1567 11.4938C20.149 11.4938 20.1412 11.4862 20.1412 11.471C20.1412 11.4558 20.1335 11.4329 20.1335 11.4177C20.1181 11.3415 20.0564 11.311 19.9637 11.2882L18.8294 10.9683C18.7753 10.9531 18.7599 10.9454 18.7522 10.9302C18.7522 10.915 18.7676 10.8997 18.8062 10.8845C18.8988 10.8388 19.5856 10.5037 19.848 10.3742C20.0023 10.298 20.0178 10.2447 20.0255 10.2066C20.0255 10.1838 20.0255 10.1533 20.0255 10.1381C20.0255 10.1229 20.0255 10.1152 20.0409 10.1152C20.0564 10.1152 20.0564 10.1305 20.0641 10.1914C20.0718 10.2523 20.0795 10.3742 20.0872 10.5113C20.0872 10.5418 20.0872 10.5646 20.0795 10.5646C20.0718 10.5646 20.0641 10.557 20.0641 10.5418C20.0564 10.5265 20.0409 10.5189 20.0255 10.5265L19.6628 10.6941C19.6551 10.7017 19.6551 10.7017 19.6551 10.7093L19.6782 11.0825Z" fill="#003DA6"/>
<path fill-rule="evenodd" clip-rule="evenodd" d="M18.8988 8.18859L18.7676 8.40948L18.6442 8.18859L18.3972 8.25714L18.4667 8.01341L18.2429 7.88393L18.4667 7.76206L18.3972 7.51072L18.6364 7.57927L18.7676 7.35838L18.8911 7.57927L19.138 7.51072L19.0686 7.75445L19.2924 7.88393L19.0686 8.0058L19.138 8.25714L18.8988 8.18859ZM19.493 7.89155L19.1843 7.71637L19.2847 7.38123L18.9374 7.47263L18.7676 7.16797L18.5901 7.48025L18.2583 7.38123L18.3509 7.72398L18.0422 7.89155L18.3509 8.06673L18.2506 8.40186L18.5979 8.31046L18.7676 8.61512L18.9451 8.30284L19.2769 8.40186L19.1843 8.05911L19.493 7.89155Z" fill="#003DA6"/>
<path fill-rule="evenodd" clip-rule="evenodd" d="M2.36927 8.17297L2.23808 8.39385L2.11461 8.17297L1.86767 8.24152L1.93712 7.99779L1.71333 7.86831L1.93712 7.74644L1.86767 7.49509L2.1069 7.56364L2.23808 7.34276L2.36155 7.56364L2.60849 7.49509L2.53904 7.73882L2.76283 7.86831L2.53904 7.99017L2.60849 8.24152L2.36927 8.17297ZM2.96347 7.87592L2.65479 7.70074L2.75511 7.36561L2.40785 7.45701L2.23808 7.15234L2.06059 7.46462L1.72877 7.36561L1.82137 7.70836L1.5127 7.87592L1.82137 8.0511L1.72105 8.38623L2.06831 8.29484L2.23808 8.5995L2.41557 8.28722L2.7474 8.38623L2.65479 8.04349L2.96347 7.87592Z" fill="#003DA6"/>
<path fill-rule="evenodd" clip-rule="evenodd" d="M5.36333 12.5903V12.2247C5.30932 12.2323 5.26301 12.2095 5.23986 12.1638C5.23986 12.1562 5.23215 12.1486 5.23215 12.1409L5.13954 12.1333L5.36333 12.5903ZM9.21406 5.88007C9.3221 5.82676 9.54589 5.89531 9.69251 5.93339C9.59219 5.84961 9.38383 5.68204 9.21406 5.74297C9.21406 5.79629 9.21406 5.82676 9.21406 5.88007ZM8.28032 14.7458C8.05653 14.6163 7.84817 14.464 7.69383 14.2812C7.6784 14.624 7.57808 14.9439 7.37744 15.2333C7.38516 15.5151 7.26941 15.7436 7.06877 15.9112L7.15365 15.9188C7.16137 15.8959 7.18452 15.8807 7.20767 15.8731C7.26169 15.8426 7.33114 15.8655 7.36201 15.9264C7.39288 15.9797 7.36973 16.0559 7.30799 16.0787C7.25397 16.1092 7.18452 16.0863 7.15365 16.0254C7.15365 16.0178 7.14594 16.0102 7.14594 16.0026L7.05333 15.9949L7.1305 16.1473C7.1305 16.1549 7.1305 16.1549 7.13822 16.1549L7.16137 16.1397C7.16909 16.132 7.18452 16.1244 7.19224 16.1244C7.30799 16.0711 7.50091 16.1092 7.59352 16.0483C7.61667 16.033 7.63982 16.0102 7.65525 15.9873C7.68612 15.9492 7.71699 15.9112 7.75557 15.8731C7.87132 15.736 8.01023 15.5456 8.12598 15.4009L8.02566 15.4237C8.1337 15.2181 8.25717 15.02 8.28804 14.7915L8.28032 14.7458ZM13.8288 16.1244C13.8288 16.094 13.8288 16.0559 13.8442 16.0254C13.8673 15.9797 13.9136 15.9492 13.9677 15.9416C13.9522 15.9188 13.9445 15.8959 13.9368 15.8655C13.9136 15.7969 13.9214 15.736 13.9522 15.675C13.96 15.6522 13.9754 15.6293 13.9831 15.6065C13.551 15.3399 13.3272 14.7687 13.304 14.2812C13.1497 14.464 12.949 14.6163 12.7252 14.7458L12.733 14.7915C12.7638 15.02 12.8873 15.2257 12.9953 15.4237L12.895 15.4009C13.0031 15.5456 13.1497 15.7284 13.2654 15.8731C13.304 15.9112 13.3272 15.9492 13.3658 15.9873C13.3812 16.0102 13.4043 16.033 13.4275 16.0483C13.5124 16.1092 13.7053 16.0711 13.8288 16.1244C13.821 16.1244 13.821 16.1244 13.8288 16.1244ZM9.21406 5.30883V5.22504H9.38383C9.45329 5.22504 9.52274 5.24789 9.58447 5.30121C9.62306 5.25551 9.63849 5.17934 9.63849 5.11079C9.63849 5.04225 9.62306 4.96608 9.58447 4.92038C9.52274 4.9737 9.45329 4.99655 9.38383 4.99655H9.21406V4.82898C9.21406 4.75281 9.23721 4.68426 9.29123 4.63095C9.24493 4.59286 9.17548 4.57001 9.09831 4.57763C9.02886 4.57763 8.95941 4.59286 8.90539 4.63095C8.95941 4.69188 8.97484 4.76043 8.98256 4.82898V4.99655H8.81278C8.74333 4.99655 8.67388 4.9737 8.61214 4.92038C8.57356 4.96608 8.55813 5.04225 8.55813 5.11079C8.55813 5.17934 8.57356 5.25551 8.61214 5.30121C8.67388 5.24789 8.74333 5.22504 8.81278 5.22504H8.98256V5.30121C8.98256 5.62111 8.98256 5.89531 8.98256 6.22282C8.98256 6.26852 8.93625 6.31422 8.90539 6.34469C8.97484 6.398 9.05201 6.4894 9.09831 6.58842C9.14461 6.4894 9.22178 6.398 9.29123 6.34469C9.26036 6.31422 9.21406 6.26852 9.21406 6.22282C9.21406 6.14666 9.21406 6.02479 9.21406 5.94862C9.39155 6.04002 9.78511 6.29137 9.83913 6.45894C9.88543 6.64174 9.83141 6.88547 9.8237 7.15205C9.81598 7.47956 9.58447 8.23361 9.19863 8.53827C8.65845 8.44688 8.18 7.96703 7.62438 7.9061L7.60895 7.8604C7.53178 7.60143 7.61667 7.2206 7.6784 7.07588L7.59352 6.99972C7.28484 6.73314 6.89128 6.46655 6.54402 6.25329C5.71831 6.61889 5.37877 7.36531 5.37105 8.22599L5.36333 11.9962C5.34018 11.9886 5.30932 11.9962 5.28617 12.0038C5.26301 12.0115 5.24758 12.0343 5.23215 12.0495L5.08553 12.0419C5.24758 11.8439 5.31703 11.623 5.13954 11.2117C5.06238 11.2955 5.00064 11.3793 4.95434 11.4783C4.83087 11.2422 4.54534 11.1127 4.52219 11.1051C4.50676 11.1355 4.47589 11.4478 4.56078 11.6611C4.45274 11.6459 4.35242 11.6459 4.24438 11.6611C4.46046 12.0343 4.62251 12.1105 4.93891 12.1181L4.85402 12.24C4.83087 12.24 4.80772 12.24 4.78457 12.2476C4.73055 12.278 4.7074 12.3466 4.73055 12.3999C4.76142 12.4608 4.83087 12.4837 4.88489 12.4532C4.9389 12.4228 4.96206 12.3542 4.93891 12.3009C4.93891 12.2933 4.93119 12.2857 4.93119 12.2857L4.98521 12.2095L5.21671 12.6741C5.05466 12.537 4.88489 12.5065 4.7074 12.537C4.76142 12.636 4.81543 12.7122 4.86945 12.7807C4.77685 12.7731 4.69196 12.7883 4.59936 12.8112C4.83859 13.1844 5.10096 13.3367 5.36333 13.352V13.5805C5.35562 13.6109 5.3479 13.6414 5.36333 13.6643V13.8699C5.31703 13.8775 5.26301 13.8851 5.209 13.8928C5.2553 13.9765 5.30932 14.0527 5.36333 14.1136V14.1746C5.31703 14.1822 5.27845 14.1898 5.23986 14.205C5.27845 14.266 5.32475 14.3193 5.36333 14.3726V16.8937C5.36333 17.0308 5.35562 17.3279 5.3016 17.465C5.68744 17.2669 6.08101 16.9166 6.23534 16.5205V16.6576C6.36653 16.5814 6.5826 16.2158 6.70607 16.0483C6.76009 16.0483 6.77553 16.0406 6.82954 16.033L6.78324 16.1016C6.76009 16.1016 6.73694 16.1016 6.71379 16.1092C6.65977 16.1397 6.63662 16.2082 6.65977 16.2615C6.69064 16.3148 6.76009 16.3453 6.81411 16.3148C6.86813 16.2844 6.89128 16.2158 6.86813 16.1625C6.86813 16.1549 6.86041 16.1473 6.86041 16.1473L6.91443 16.0711L7.00703 16.2615L6.92215 16.3301C6.83726 16.391 6.79868 16.4596 6.81411 16.5357C6.72922 16.6271 6.81411 16.8175 6.899 16.8937C6.899 16.8785 6.90671 16.848 6.91443 16.8328C6.89128 16.8785 6.97616 16.9927 7.01475 16.9927C6.9916 17.0765 7.1305 17.1984 7.1768 17.1755C7.16909 17.2288 7.27712 17.3355 7.34657 17.2898L7.46233 17.1908C7.48548 17.2898 7.50091 17.404 7.47005 17.5716C7.60123 17.5944 7.74785 17.6706 7.84046 17.7315C7.84046 17.6249 7.87904 17.4345 7.93306 17.3355C7.80187 17.2898 7.70927 17.206 7.62438 17.0917L7.60895 17.0613H7.61667C7.73242 16.9851 7.75557 16.9318 7.77872 16.8328C7.81731 16.7109 7.85589 16.6804 7.90991 16.6043C8.14913 16.2996 8.40379 16.0102 8.65845 15.7207L8.68931 15.8198C8.8205 15.5913 9.05972 15.3628 9.26036 15.2028C9.32982 15.2333 9.40699 15.2638 9.47644 15.2866C9.56132 15.3247 9.64621 15.3552 9.73109 15.4009C9.56904 16.4672 8.7742 17.305 8.12598 18.1048C8.45009 18.2114 8.75105 18.3409 9.02114 18.4856C9.33753 18.1352 9.62306 17.6782 9.84685 17.2669C9.69251 17.7315 9.46872 18.2723 9.2758 18.6303C9.78511 18.935 10.2481 19.3386 10.4951 19.7042C10.742 19.3386 11.205 18.935 11.7143 18.6303C11.5214 18.2647 11.2976 17.7239 11.151 17.2593C11.3748 17.6782 11.668 18.1276 11.9767 18.4856C12.2545 18.3409 12.5478 18.2114 12.8719 18.1048C12.2391 17.3126 11.4211 16.4443 11.2745 15.3932C11.3516 15.3552 11.4288 15.3247 11.506 15.2942C11.5909 15.2638 11.6758 15.2257 11.7606 15.1952C11.9613 15.3552 12.2082 15.5836 12.3317 15.8198L12.3626 15.7207C12.6172 16.0102 12.8719 16.2996 13.1034 16.6043C13.1574 16.6804 13.2037 16.7109 13.2346 16.8328C13.2577 16.9394 13.2809 16.9927 13.3889 17.0613C13.3426 17.0689 13.2963 17.0994 13.2731 17.1451C13.25 17.1831 13.25 17.2288 13.2654 17.2745C13.1883 17.2898 13.1574 17.3583 13.1805 17.4269C13.2114 17.5564 13.2191 17.6401 13.196 17.7468C13.2654 17.6706 13.3426 17.6249 13.4738 17.5792C13.5432 17.5564 13.5818 17.4878 13.551 17.4193C13.5973 17.404 13.6281 17.3812 13.6513 17.3431C13.659 17.3279 13.6667 17.305 13.6667 17.2898L13.6744 17.2974C13.7439 17.3507 13.8519 17.2365 13.8442 17.1831C13.8905 17.206 14.0294 17.0841 14.0063 17.0003C14.0448 17.008 14.1297 16.8861 14.1066 16.848C14.1143 16.8556 14.1143 16.8861 14.122 16.9089C14.2069 16.8328 14.2995 16.6424 14.2069 16.551C14.2223 16.4824 14.1837 16.4139 14.0989 16.3453C14.1606 16.3453 14.2223 16.3148 14.2532 16.2539C14.2841 16.2006 14.2763 16.1473 14.2532 16.1016C14.2686 16.1016 14.2918 16.1016 14.3072 16.094C14.4307 16.2615 14.6545 16.6119 14.7779 16.6804V16.5433C14.9246 16.947 15.3413 17.305 15.7117 17.4878C15.6654 17.3583 15.65 17.0537 15.65 16.9166L15.6577 13.4586L15.9432 12.9178C15.9663 12.8721 15.9972 12.834 16.0512 12.8188C16.0667 12.7807 16.0898 12.7427 16.0744 12.7046C16.1052 12.7122 16.1438 12.7122 16.1824 12.7122C16.2133 12.5675 16.4294 12.0952 16.6994 12.1943C16.7149 12.0419 16.6917 11.9201 16.5683 11.7753C16.6609 11.7373 16.684 11.6382 16.6377 11.5545C16.6686 11.5468 16.6917 11.5316 16.7149 11.5164C16.6609 11.4174 16.6454 11.3488 16.6686 11.2346C16.5914 11.3183 16.522 11.3412 16.4139 11.3564C16.4139 11.3869 16.4139 11.4174 16.4294 11.4402C16.3368 11.4478 16.2596 11.524 16.2827 11.623C16.0898 11.6002 15.9741 11.6535 15.8583 11.7449C16.0975 11.9124 15.8274 12.3542 15.7194 12.4608C15.7426 12.4913 15.758 12.5218 15.7889 12.5446C15.7503 12.5599 15.7271 12.5979 15.7117 12.6284C15.7271 12.6817 15.7117 12.7274 15.6885 12.7731L15.6577 12.834C15.6577 11.1812 15.6577 13.7023 15.6654 9.70362V8.23361C15.6577 7.38055 15.3181 6.6265 14.4847 6.25329C14.1374 6.45894 13.7362 6.73314 13.4352 6.9921L13.3503 7.06827C13.4043 7.19775 13.4892 7.55573 13.4275 7.8147C13.4198 7.85278 13.4121 7.8604 13.4043 7.89086C12.949 7.93656 12.5555 8.24884 12.131 8.41641C12.0153 8.46211 11.9073 8.49258 11.7915 8.51543C11.614 8.33263 11.56 8.07366 11.5214 7.86801C11.4751 7.6319 11.4905 7.37293 11.4751 7.09873C11.5368 6.8093 11.5909 6.55795 11.5368 6.35992C11.5677 6.36754 11.6063 6.39039 11.668 6.43609C11.6449 6.27614 11.5909 6.18474 11.5137 6.05526C11.5677 6.05526 11.6217 6.06287 11.6912 6.09334C11.6526 5.91816 11.6217 5.88769 11.506 5.78106C11.5909 5.74297 11.6526 5.68966 11.6758 5.62873C11.4057 5.63634 11.2359 5.52209 11.0044 5.34691C10.8578 5.23266 10.6108 5.14888 10.4256 5.12603C10.171 5.09556 9.66936 5.1108 9.73109 5.47639C9.61534 5.43831 9.45329 5.40023 9.3684 5.42308C9.30667 5.43831 9.25265 5.46878 9.22178 5.49163V5.33929L9.21406 5.30883Z" fill="#221F1F"/>
<path fill-rule="evenodd" clip-rule="evenodd" d="M6.44374 16.0258C6.40516 16.0791 6.37429 16.1172 6.31256 16.1705V15.9954C6.33571 16.003 6.42059 16.0182 6.44374 16.0258ZM6.1505 14.6777V14.7538L6.12735 14.7919C6.1042 14.7919 6.08105 14.7919 6.0579 14.7995C6.00388 14.83 5.98073 14.8986 6.00388 14.9519C6.02703 15.0052 6.09648 15.028 6.1505 15.0052V15.2261C6.05018 15.2185 5.94986 15.2337 5.84183 15.2565C5.90356 15.3708 5.97301 15.4622 6.05018 15.5307C5.98845 15.5384 5.91899 15.5536 5.85726 15.5764C5.94986 15.7135 6.05018 15.8126 6.1505 15.8887V16.1172C6.1505 16.3838 5.92671 16.6504 5.5563 16.917V14.5406C5.74151 14.6853 5.94986 14.7158 6.1505 14.6777ZM6.31256 15.2642V14.8833L6.56721 15.4013C6.49004 15.3327 6.39744 15.287 6.31256 15.2642ZM7.50096 13.9312C7.50867 14.2283 7.50867 14.5558 7.3389 14.9595C7.33119 14.929 7.32347 14.8986 7.30804 14.8681C7.25402 14.9062 7.2 14.9443 7.1537 14.99C7.14598 14.8909 7.11511 14.7843 7.06109 14.6624C7.04566 14.6777 7.03023 14.6929 7.00708 14.7081L7.01479 9.18609L7.25402 9.49837L7.45466 9.23941L7.44694 13.6418C7.45466 13.7485 7.47781 13.8475 7.50096 13.9312ZM6.85274 9.25464V9.39174L6.84502 14.8986C6.76014 15.0204 6.71383 15.1651 6.72155 15.3251L6.40516 14.6853L6.49776 14.6929C6.49776 14.7005 6.50548 14.7081 6.50548 14.7158C6.53635 14.7767 6.6058 14.7995 6.65982 14.7691C6.71383 14.7386 6.73699 14.6701 6.71383 14.6167C6.68297 14.5558 6.61352 14.533 6.5595 14.5634C6.53635 14.571 6.52091 14.5939 6.50548 14.6091L6.35886 14.6015V14.5939C6.62895 14.373 6.75242 14.0303 6.58265 13.5504C6.52863 13.5885 6.48233 13.6266 6.44374 13.6647C6.42831 13.5657 6.39744 13.459 6.34342 13.3372C6.32799 13.3448 6.32027 13.36 6.31256 13.3676L6.32027 9.25464C6.41288 9.33081 6.49776 9.49837 6.59036 9.57454L6.85274 9.25464ZM6.15822 9.23179L6.1505 13.558C6.08105 13.6723 6.03475 13.8018 6.04247 13.9617L5.76466 13.4057L5.85726 13.4133C5.85726 13.4209 5.86498 13.4286 5.86498 13.4362C5.89584 13.4971 5.9653 13.52 6.01931 13.4895C6.07333 13.459 6.09648 13.3905 6.07333 13.3372C6.04246 13.2762 5.97301 13.2534 5.91899 13.2838C5.89584 13.2915 5.88041 13.3143 5.86498 13.3295L5.71836 13.3219L5.69521 13.2686C5.93443 13.0477 6.03475 12.705 5.84183 12.1947C5.76466 12.248 5.70292 12.3165 5.6489 12.3851C5.62575 12.3013 5.59489 12.2099 5.54858 12.1109V9.23179L5.84183 9.57454L6.15822 9.23179ZM5.5563 13.8779V13.6951C5.58717 13.6647 5.59488 13.6114 5.57173 13.5733C5.57173 13.5657 5.56402 13.558 5.56402 13.558L5.61804 13.4819L5.89584 14.0379C5.78781 13.9465 5.67205 13.9008 5.5563 13.8779ZM11.9305 8.64531C11.9613 8.66816 11.9922 8.68339 12.0231 8.70624H12.4784C12.4243 8.63769 12.3472 8.57676 12.2777 8.53868C12.1851 8.57676 12.1157 8.60723 11.9305 8.64531ZM12.3626 8.47775C12.4243 8.50821 12.4784 8.53868 12.5247 8.592C12.5787 8.52345 12.6327 8.42443 12.6404 8.34065L12.3626 8.47775ZM13.0726 8.70624C12.9877 8.57676 12.8719 8.46251 12.7716 8.40158C12.7562 8.47775 12.6867 8.58438 12.5864 8.70624H13.0726ZM12.8102 8.27971C12.9722 8.33303 13.0957 8.43966 13.1574 8.54629C13.2578 8.39396 13.3272 8.2264 13.3504 8.11215C13.142 8.135 12.9259 8.21116 12.8102 8.27971ZM15.4571 8.58438L15.2178 8.25686V9.20894L15.4571 9.00329V8.58438ZM14.8629 8.64531V8.99568L15.1021 9.20132V8.29495L14.8629 8.64531ZM14.4847 9.20894L14.7008 9.02614V8.65293L14.4847 8.3635V9.20894ZM14.1606 9.01853L14.3767 9.20132V8.3178L14.1606 8.54629V9.01853ZM13.8134 9.16324L13.9986 9.00329V8.56914L13.8134 8.3635V9.16324ZM13.9986 8.3178V7.54852C13.9214 7.67038 13.8288 7.79987 13.7053 7.89888C13.7902 7.9979 13.8751 8.16546 13.9986 8.3178ZM14.1375 7.68562V8.33303L14.3767 7.9979C14.2918 7.91411 14.1992 7.78463 14.1375 7.68562ZM14.8629 7.5409V8.30256L15.0944 8.00551C15.0481 7.84557 14.9863 7.70847 14.8629 7.5409ZM13.551 7.13722C13.605 7.33525 13.6205 7.65515 13.5973 7.83795C13.8905 7.60945 13.9214 7.45712 13.9446 7.23624C13.9446 7.221 13.9368 7.15245 13.96 7.15245C13.9909 7.14484 14.0217 7.221 14.0449 7.28955C14.1143 7.51805 14.2687 7.70085 14.3844 7.79987C14.5619 7.46473 14.6082 7.221 14.5465 6.98489C14.5465 6.97727 14.5388 6.9468 14.5388 6.93919C14.5388 6.93157 14.5465 6.89349 14.5773 6.89349C14.6005 6.88587 14.6545 6.97727 14.6622 6.9925C14.8243 7.24385 15.0558 7.54852 15.1793 7.80748C15.2564 7.62468 15.2796 7.39618 15.2873 7.32763C15.1098 7.00774 14.8783 6.64976 14.5002 6.49742C14.0912 6.73354 13.7516 6.96965 13.551 7.13722ZM15.2101 8.02836L15.4494 8.23401C15.4494 7.92173 15.4339 7.67038 15.3568 7.51805C15.349 7.63992 15.295 7.79225 15.2101 8.02836ZM14.4693 7.98266L14.724 8.34065L14.6777 7.48758C14.6468 7.60945 14.5696 7.84557 14.4693 7.98266ZM13.551 8.99568L13.6899 9.12516V8.23401L13.5819 8.00551C13.4815 8.26448 13.3272 8.5463 13.1652 8.70624H13.659L13.6205 8.76718C13.5819 8.85096 13.5587 8.91189 13.551 8.99568ZM14.8629 9.72687V9.24702L15.1561 9.58977L15.4494 9.24702V9.71164L15.4416 13.2153L15.2178 13.6342C15.187 13.6875 15.1175 13.7028 15.0867 13.7561C15.0712 13.7865 15.0635 13.8246 15.0789 13.8627C15.0249 13.8703 14.9786 13.9008 14.9478 13.9465C14.9246 13.9922 14.9246 14.0379 14.94 14.0836C14.9015 14.0988 14.8706 14.1217 14.8552 14.1521L14.8629 9.72687ZM14.8552 14.3349V14.2968C14.8552 14.3045 14.8629 14.3121 14.8629 14.3197L14.8552 14.3349ZM14.8552 14.9214V16.1477C14.8552 16.4143 15.0712 16.6809 15.4416 16.9474V13.9617C15.4262 13.9922 15.3953 14.015 15.3645 14.0226C15.3876 14.0683 15.3953 14.1293 15.3645 14.175C15.3413 14.2207 15.3027 14.2511 15.2487 14.2588C15.2564 14.2968 15.2564 14.3349 15.241 14.373C15.2101 14.4263 15.1638 14.4492 15.1021 14.4492L14.8552 14.9214ZM14.4925 15.9344C14.5388 16.0258 14.6391 16.1477 14.6931 16.1782V15.2185L14.6159 15.3556C14.5851 15.4165 14.5773 15.4927 14.5696 15.5612C14.5542 15.6907 14.5465 15.8354 14.4925 15.9344ZM14.1606 9.70402V9.39174V9.25464L14.4307 9.57454C14.5233 9.49837 14.6082 9.33081 14.7008 9.25464V9.71164L14.6931 14.6244L14.3767 15.2185C14.3458 15.2794 14.2841 15.3327 14.2301 15.3708C14.2069 15.3936 14.1838 15.4089 14.1529 15.4317L14.1606 9.70402ZM13.551 9.24702L13.7516 9.50599L13.9909 9.19371V9.71926L13.9831 15.2642C13.5047 14.9595 13.497 14.373 13.497 13.9312C13.5279 13.8398 13.5433 13.7485 13.5433 13.6571L13.551 9.24702ZM9.08292 8.64531C9.05205 8.66816 9.02119 8.68339 8.99032 8.69863H8.53502C8.58904 8.62246 8.65849 8.56153 8.74338 8.53106C8.83598 8.56153 8.90543 8.59199 9.08292 8.64531ZM8.65077 8.47013C8.58132 8.49298 8.5273 8.53106 8.48872 8.58438C8.4347 8.51583 8.38068 8.41681 8.37297 8.33303L8.65077 8.47013ZM7.94082 8.69863C8.02571 8.56914 8.14146 8.4549 8.24178 8.40158C8.25721 8.47775 8.32666 8.58438 8.42698 8.70624L7.94082 8.69863ZM8.21091 8.27971C8.04886 8.33303 7.92539 8.43966 7.86365 8.54629C7.76333 8.39396 7.69388 8.2264 7.67845 8.11215C7.87909 8.12738 8.09516 8.20355 8.21091 8.27971ZM5.56402 8.57676L5.80324 8.24925V9.20132L5.56402 8.99568V8.57676ZM6.15822 8.63769V8.98806L5.91899 9.19371V8.28733L6.15822 8.63769ZM6.53635 9.19371L6.32027 9.01091V8.63769L6.53635 8.34826V9.19371ZM6.86046 9.01091L6.64438 9.19371V8.31018L6.86046 8.53868V9.01091ZM7.20772 9.15562L7.02251 8.99568V8.56153L7.20772 8.35588V9.15562ZM7.02251 8.31018V7.5409C7.09968 7.66277 7.19228 7.79225 7.31575 7.89127C7.23087 7.99028 7.14598 8.15785 7.02251 8.31018ZM6.88361 7.678V8.32541L6.64438 7.99028C6.72927 7.9065 6.82187 7.77702 6.88361 7.678ZM6.15822 7.52567V8.28733L5.92671 7.99028C5.9653 7.88365 6.02703 7.71608 6.15822 7.52567ZM7.47009 7.1296C7.41607 7.32763 7.40064 7.64753 7.42379 7.83033C7.13055 7.59422 7.09968 7.4495 7.08425 7.22862C7.08425 7.21339 7.09196 7.14484 7.06881 7.14484C7.03794 7.13722 7.00708 7.21339 6.98393 7.28193C6.90676 7.51043 6.76014 7.69323 6.64438 7.79225C6.46689 7.45712 6.42059 7.21339 6.49004 6.97727C6.49004 6.96965 6.49776 6.93919 6.49776 6.93157C6.49776 6.92395 6.49004 6.88587 6.45918 6.88587C6.43603 6.87825 6.38201 6.96965 6.37429 6.98489C6.21224 7.23623 5.97301 7.53328 5.85726 7.79987C5.78781 7.61707 5.75694 7.38857 5.75694 7.32002C5.94215 7.00012 6.17365 6.64214 6.54406 6.48981C6.92991 6.72592 7.26945 6.96204 7.47009 7.1296ZM5.81096 8.02075L5.57173 8.2264C5.57173 7.91412 5.58717 7.66277 5.67205 7.51805C5.67205 7.62468 5.72607 7.78463 5.81096 8.02075ZM6.55178 7.97505L6.29712 8.32541L6.34342 7.47235C6.37429 7.60183 6.45146 7.83033 6.55178 7.97505ZM7.46237 8.98806L7.32347 9.10993V8.21878L7.43151 7.99028C7.53183 8.24925 7.68616 8.53106 7.8405 8.69101H7.34662L7.3852 8.75194C7.43922 8.84334 7.45466 8.90428 7.46237 8.98806ZM9.78516 8.69863C9.83146 8.62246 9.88548 8.53106 9.91635 8.4092C9.74657 8.57676 9.63854 8.63769 9.4379 8.69863H9.78516ZM11.2205 8.70624C11.0584 8.63008 10.9118 8.51583 10.7806 8.35588C10.7652 8.50821 10.6726 8.60723 10.5646 8.70624H11.2205ZM10.5646 8.70624C10.4642 8.60723 10.3794 8.44728 10.3485 8.3635C10.2868 8.44728 10.1787 8.59961 9.97808 8.70624H10.5646ZM11.3903 8.70624C11.344 8.63769 11.3285 8.57676 11.2977 8.49298C11.3594 8.55391 11.4752 8.64531 11.6372 8.70624H11.3903ZM9.32214 8.61484C9.68484 8.49298 10.0089 8.25686 10.0552 7.77702C10.0707 7.48758 10.0707 7.2667 10.0784 7.09914C10.0938 7.06105 10.1093 7.03059 10.1324 6.9925C10.1556 7.02297 10.171 7.06105 10.1787 7.09914C10.1556 7.41142 10.171 7.82272 10.117 8.11215C10.0861 8.27971 10.0552 8.39396 9.9858 8.53868C10.1864 8.40158 10.3331 8.24925 10.3253 8.08168C10.3253 7.97505 10.3253 7.48758 10.3331 7.38095C10.3408 7.27432 10.3331 7.20577 10.3408 7.09914C10.3485 7.06867 10.3794 7.01535 10.3948 6.9925C10.4102 7.01535 10.4411 7.06867 10.4488 7.09914C10.4488 7.46473 10.4179 7.83033 10.4334 8.19593C10.4411 8.35588 10.4874 8.47775 10.5568 8.54629C10.6495 8.47013 10.7035 8.32541 10.6958 8.19593C10.6958 7.82272 10.6958 7.47235 10.6958 7.09914C10.7112 7.06105 10.7266 7.03059 10.7575 7.00012C10.7806 7.03059 10.8038 7.06105 10.8192 7.10675C10.8192 7.24385 10.8192 7.35048 10.8192 7.47997C10.8192 7.60945 10.8269 7.9522 10.8269 8.08168C10.8269 8.34826 11.0199 8.46251 11.1973 8.56914C11.1356 8.4549 11.0584 8.3635 11.0584 8.09691C11.0584 7.78463 11.0199 7.2667 11.0199 7.10675C11.0276 7.07629 11.0507 7.0382 11.0739 7.00012C11.0816 7.01535 11.1047 7.04582 11.1279 7.10675C11.1279 7.23624 11.1279 7.34287 11.1356 7.46473C11.1433 7.5866 11.1588 7.9979 11.1665 8.11976C11.2205 8.37111 11.4906 8.56153 11.6758 8.62246C11.29 8.21878 11.3363 7.73893 11.3131 7.21339C11.3131 7.1296 11.3054 7.05344 11.3363 6.97727C11.4134 6.79447 11.4443 6.42887 11.3826 6.24607C11.4134 6.25369 11.4752 6.26892 11.506 6.27654C11.4829 6.22322 11.4057 6.09374 11.3285 5.97949C11.4289 5.97949 11.4829 5.98711 11.5215 5.99472C11.4829 5.94141 11.4057 5.83478 11.2822 5.75861C11.3363 5.75861 11.3903 5.74338 11.4211 5.72053C11.2437 5.66721 11.0199 5.53773 10.881 5.43871C10.8115 5.3854 10.6572 5.30161 10.4565 5.26353C10.1633 5.2026 9.73114 5.21783 9.82374 5.49964C9.97036 5.46918 10.063 5.56819 10.225 5.56058C10.3176 5.56058 10.4102 5.54534 10.4874 5.53011C10.5646 5.51488 10.6958 5.51488 10.7729 5.55296C10.8732 5.60628 10.9118 5.64436 10.9967 5.73576C11.0044 5.74338 10.9967 5.75099 10.9967 5.75099C10.989 5.75861 10.9813 5.75861 10.9813 5.75099C10.8964 5.70529 10.8424 5.64436 10.7421 5.61389C10.6031 5.58343 10.4565 5.65198 10.3639 5.68244C10.4488 5.71291 10.526 5.76623 10.5568 5.80431C10.4565 5.85763 10.4102 5.94903 10.2945 5.94141C10.1787 5.93379 10.1247 5.84239 10.0475 5.81193C10.1093 5.73576 10.1556 5.71291 10.2019 5.68244C10.1401 5.67483 10.1016 5.63674 10.063 5.62151C9.97808 5.59104 9.87004 5.57581 9.85461 5.60628C9.94721 5.81193 10.0475 5.95664 10.2482 6.16991C10.171 6.18514 10.0861 6.16229 10.0398 6.13944C9.9395 6.08612 9.82374 6.13182 9.79287 6.26131C10.0012 6.39079 9.9858 6.74115 9.96265 7.01535C9.96265 7.05344 9.95493 7.09914 9.95493 7.13722C9.92406 7.51043 9.85461 7.79987 9.74657 8.00551C9.6231 8.21878 9.49192 8.47013 9.32214 8.61484ZM8.37297 14.7919C8.3421 14.9366 8.28808 15.1118 8.21863 15.2489L8.45014 15.1575L8.481 15.386L8.69708 15.2946L8.72023 15.4927L9.12922 15.1347C9.08292 15.1118 9.0289 15.0966 8.9826 15.0737C8.78968 14.9976 8.58132 14.9062 8.37297 14.7919ZM12.625 14.7995C12.6481 14.9443 12.7099 15.1194 12.7793 15.2565L12.5478 15.1651L12.5169 15.3936L12.3009 15.3022L12.2777 15.5003L11.8687 15.1423C11.9227 15.1194 11.969 15.1042 12.0153 15.0814C12.2083 15.0052 12.4243 14.9138 12.625 14.7995ZM10.4951 16.0868C10.6649 15.8202 10.8578 15.6069 11.1356 15.447C11.29 16.399 12.0462 17.3816 12.6095 18.0366C12.4938 18.0747 12.2314 18.1661 12.0153 18.2575C11.4443 17.6482 10.9581 16.6809 10.7652 16.2391C10.8038 16.8484 11.2128 18.0747 11.398 18.5317C11.1047 18.6993 10.8424 18.9201 10.4951 19.202C10.1479 18.9201 9.88548 18.6993 9.59224 18.5317C9.77744 18.0747 10.1864 16.856 10.2327 16.2391C10.0321 16.6809 9.54593 17.6405 8.97488 18.2575C8.76653 18.1661 8.50415 18.0747 8.3884 18.0366C8.95945 17.3892 9.71571 16.399 9.87004 15.4546C10.1401 15.6069 10.3331 15.8202 10.4951 16.0868Z" fill="#FFD100"/>
<path fill-rule="evenodd" clip-rule="evenodd" d="M8.48876 13.7858C8.52734 13.9001 8.65853 13.9686 8.77428 13.9306C8.89004 13.8925 8.95949 13.763 8.92091 13.6487C8.92091 13.6411 8.91319 13.6259 8.90547 13.6183C8.85917 13.5193 8.74342 13.4659 8.63538 13.504C8.51963 13.5421 8.45017 13.664 8.48876 13.7858ZM8.99036 13.7782C9.18328 13.8468 9.34533 13.7554 9.27588 13.5345C9.20643 13.3136 9.01351 13.3288 8.89775 13.504C8.93634 13.5345 8.96721 13.5802 8.98264 13.6335C8.99807 13.6716 8.99807 13.7249 8.99036 13.7782ZM8.72798 13.9991C8.72027 14.2048 8.85917 14.3266 9.05209 14.1895C9.24501 14.0524 9.16785 13.8772 8.96721 13.8239C8.94406 13.8696 8.91319 13.9153 8.8746 13.9458C8.8283 13.9763 8.782 13.9991 8.72798 13.9991ZM8.43474 13.8239C8.2341 13.8772 8.16465 14.0524 8.34986 14.1895C8.54278 14.3266 8.68168 14.2048 8.67396 13.9991C8.61995 13.9915 8.57365 13.9763 8.52734 13.9458C8.48876 13.9153 8.45789 13.8696 8.43474 13.8239ZM8.51191 13.4964C8.39616 13.3212 8.21095 13.306 8.13378 13.5269C8.06433 13.7478 8.22638 13.8468 8.41931 13.7782C8.41159 13.7325 8.41159 13.6792 8.42702 13.6259C8.44246 13.5726 8.47333 13.5269 8.51191 13.4964ZM8.85145 13.4659C8.98264 13.306 8.93634 13.1232 8.70483 13.1156C8.47333 13.1156 8.42702 13.2984 8.55821 13.4583C8.60451 13.4355 8.65081 13.4202 8.70483 13.4202C8.75885 13.4202 8.81287 13.4355 8.85145 13.4659ZM11.6604 12.2321L11.4366 11.7979L11.4443 11.7903C11.8996 11.5923 12.3163 11.2114 12.4012 10.7011C12.4475 10.3888 12.3626 10.0994 12.1851 9.84805C12.0462 9.65002 11.8456 9.44437 11.6295 9.3225C11.6141 9.31489 11.5909 9.33012 11.6064 9.34535C11.6604 9.42152 11.7144 9.49007 11.7684 9.56624C11.9151 9.78712 12.054 10.0385 12.0694 10.305C12.0925 10.6783 11.8688 10.9525 11.5909 11.1733C11.5524 11.2038 11.5061 11.2267 11.4598 11.2419C11.4212 11.2495 11.3903 11.2571 11.3517 11.2724C11.2977 11.2876 11.2591 11.3181 11.2205 11.3638C11.1202 11.4856 10.9196 11.4628 10.8347 11.3333C10.8115 11.3028 10.7421 11.3028 10.7189 11.3333C10.6649 11.3866 10.5878 11.4552 10.5106 11.4552C10.4257 11.4552 10.3562 11.379 10.3022 11.3333C10.2791 11.3104 10.2096 11.3028 10.1865 11.3333C10.1016 11.4552 9.90095 11.4856 9.80063 11.3638C9.76205 11.3181 9.73118 11.2876 9.66944 11.2724C9.63858 11.2647 9.59999 11.2571 9.56141 11.2419C9.51511 11.2267 9.4688 11.2038 9.43022 11.1733C9.14469 10.9601 8.92862 10.6783 8.95177 10.305C8.97492 9.95468 9.20643 9.61194 9.41479 9.34535C9.43022 9.33012 9.40707 9.31489 9.39164 9.3225C9.18328 9.43675 8.97492 9.65002 8.83602 9.84043C8.65853 10.0918 8.56593 10.3812 8.61223 10.6935C8.6894 11.2038 9.11383 11.5846 9.56912 11.7827L9.57684 11.7903L9.35305 12.2244C9.77748 12.3082 10.1325 12.5596 10.1479 13.0242C10.1556 13.3441 10.1633 13.6716 10.171 13.9915C10.171 14.1286 10.1247 14.22 10.0244 14.3114C9.91638 14.4028 9.80835 14.4866 9.70803 14.5704C9.65401 14.6084 9.66944 14.7075 9.69259 14.7608C9.70803 14.7912 9.81606 14.7989 9.83922 14.8065C9.9704 14.8446 10.0707 14.8903 10.171 14.9817C10.2559 15.0502 10.4025 15.0959 10.5106 15.0959C10.6186 15.0959 10.7652 15.0578 10.8501 14.9817C10.9504 14.8979 11.0585 14.8446 11.182 14.8065C11.2051 14.7989 11.3209 14.7912 11.3286 14.7608C11.3517 14.7075 11.3672 14.6084 11.3131 14.5704C11.2051 14.4866 11.0971 14.4028 10.9967 14.3114C10.8887 14.22 10.8424 14.1286 10.8501 13.9915C10.8578 13.6716 10.8733 13.3441 10.881 13.0242C10.881 12.5672 11.236 12.3158 11.6604 12.2321ZM10.8038 14.5932C10.8578 14.5932 11.1357 14.6008 11.1357 14.6618C11.1357 14.7303 10.8578 14.776 10.8038 14.776C10.7498 14.776 10.7112 14.7379 10.7112 14.6846C10.7112 14.6313 10.7575 14.5932 10.8038 14.5932ZM10.1942 14.5932C10.1402 14.5932 9.86237 14.6008 9.86237 14.6618C9.86237 14.7303 10.1402 14.776 10.1942 14.776C10.2482 14.776 10.2868 14.7379 10.2868 14.6846C10.2868 14.6313 10.2482 14.5932 10.1942 14.5932ZM11.182 12.849L11.3054 12.9709L11.4289 12.849L11.3054 12.7271L11.182 12.849ZM9.57684 12.849L9.70031 12.9709L9.82378 12.849L9.70031 12.7271L9.57684 12.849ZM8.55049 12.3006C8.39616 12.1483 8.21867 12.0645 8.02575 11.9579L8.01031 11.9502L8.02575 11.9426C8.21867 11.836 8.38844 11.7522 8.55049 11.5999L8.55821 11.5923L8.56593 11.5999C8.72027 11.7522 8.89775 11.836 9.09068 11.9426L9.10611 11.9502L9.09068 11.9579C8.89775 12.0645 8.72798 12.1483 8.56593 12.3006H8.55049ZM12.4475 12.3082C12.2932 12.1559 12.1157 12.0721 11.9228 11.9655L11.9073 11.9579L11.9228 11.9502C12.1157 11.8436 12.2855 11.7598 12.4475 11.6075L12.4552 11.5999L12.463 11.6075C12.6173 11.7598 12.7948 11.8436 12.9877 11.9502L13.0031 11.9579L12.9877 11.9655C12.7948 12.0721 12.625 12.1559 12.463 12.3082H12.4475ZM9.56912 13.2298C9.62314 13.4659 9.68488 13.7173 9.7389 13.961C9.74661 13.9991 9.75433 14.0448 9.75433 14.0905C9.75433 14.0981 9.76205 14.1057 9.76976 14.1057C9.77748 14.1057 9.7852 14.1057 9.79291 14.0981C9.84693 14.0143 9.87008 13.9001 9.86237 13.8163L9.81606 13.2451C9.73118 13.2374 9.65401 13.2298 9.56912 13.2298ZM11.4366 13.2298C11.3826 13.4659 11.3209 13.7173 11.2668 13.961C11.2591 13.9991 11.2514 14.0448 11.2514 14.0905C11.2514 14.0981 11.2437 14.1057 11.236 14.1057C11.2283 14.1057 11.2205 14.1057 11.2128 14.0981C11.1588 14.0143 11.1357 13.9001 11.1434 13.8163L11.1897 13.2451C11.2746 13.2374 11.3517 13.2374 11.4366 13.2298ZM10.5029 9.5053L10.3794 9.71857L10.1479 9.65002L10.2096 9.88613L10.0013 10.0004L10.2173 10.1222L10.1479 10.3507L10.3871 10.2898L10.5029 10.5031L10.6263 10.2898L10.8578 10.3584L10.7961 10.1222L11.0045 10.008L10.7884 9.88613L10.8578 9.65764L10.6186 9.72618L10.5029 9.5053ZM12.1157 14.2809C12.0617 14.0677 12.0694 13.8392 12.1543 13.6564C12.2392 13.4736 12.4089 13.3441 12.625 13.2755C12.2315 13.1232 11.9536 13.2679 11.8302 13.504C11.7067 13.7401 11.7916 14.0753 12.1157 14.2809ZM7.42383 8.73602L13.5973 8.74364C13.5356 8.85027 13.5125 8.93406 13.5125 9.06354L13.5047 13.6487C13.5047 13.7401 13.4893 13.8392 13.4584 13.9229C13.2732 14.4942 12.517 14.8141 12.0077 15.035C11.8379 15.1111 11.6604 15.1721 11.4829 15.2406C11.3209 15.3016 11.1588 15.3701 11.0122 15.4615C10.8115 15.5834 10.6572 15.7357 10.5337 15.9337L10.4952 16.0023L10.4488 15.9337C10.3099 15.7205 10.1402 15.5605 9.91638 15.431C9.77748 15.3473 9.63086 15.2863 9.47652 15.2254C9.31447 15.1568 9.1447 15.0959 8.98264 15.0274C8.40387 14.776 7.49328 14.3799 7.49328 13.6335L7.501 9.04831C7.501 8.92644 7.48556 8.85027 7.42383 8.73602ZM13.335 13.6564C13.335 13.7325 13.3195 13.8087 13.2964 13.8772C13.1266 14.3799 12.3935 14.6922 11.9459 14.8826C11.6527 15.0045 11.3594 15.1188 11.0739 15.2635C10.827 15.3853 10.6341 15.5148 10.5029 15.7586C10.364 15.5148 10.1788 15.3853 9.93182 15.2559C9.64629 15.1111 9.35305 14.9969 9.06753 14.875C8.61995 14.6846 7.87912 14.3647 7.71707 13.862C7.69392 13.7858 7.67849 13.7173 7.67849 13.6411L7.6862 8.90359L13.3504 8.91121C13.3427 10.4955 13.335 12.0721 13.335 13.6564ZM9.04438 5.81124C9.04438 5.95596 9.04438 6.06259 9.04438 6.2073C9.04438 6.23777 9.01351 6.30632 8.99036 6.32917C9.03666 6.35964 9.07524 6.41295 9.09839 6.45104C9.12926 6.3901 9.16785 6.35964 9.21415 6.32917C9.191 6.30632 9.16013 6.24539 9.16013 6.2073C9.16013 6.05497 9.16013 5.89502 9.16013 5.74269C9.12154 5.76554 9.07524 5.78839 9.04438 5.81124ZM9.04438 4.8744V4.83631C9.04438 4.79061 9.03666 4.68398 8.99036 4.63828C9.02122 4.62305 9.05981 4.62305 9.10611 4.62305C9.1447 4.62305 9.18328 4.63066 9.22186 4.63828C9.17556 4.68398 9.16785 4.79061 9.16785 4.83631V4.8744V5.04196V5.04958H9.34533H9.38392C9.43022 5.04958 9.53826 5.04196 9.58456 4.99626C9.59999 5.02673 9.59999 5.07243 9.59999 5.11051C9.59999 5.14859 9.59227 5.18668 9.58456 5.22476C9.53826 5.17906 9.43022 5.17144 9.38392 5.17144H9.17556V5.17906V5.30854V5.34663V5.52942C9.13698 5.55989 9.08296 5.62082 9.05981 5.68176V5.30093V5.17906V5.17144H8.85145C8.80515 5.17144 8.69712 5.17906 8.65081 5.22476C8.63538 5.19429 8.63538 5.15621 8.63538 5.11051C8.63538 5.07243 8.6431 5.03434 8.65081 4.99626C8.69712 5.04196 8.80515 5.04958 8.85145 5.04958H8.89004H9.06753V4.95056L9.04438 4.8744Z" fill="#FFD100"/>
<path fill-rule="evenodd" clip-rule="evenodd" d="M8.98261 13.3374C9.12152 13.2308 9.32987 13.2993 9.39161 13.4973C9.45334 13.6878 9.32987 13.8629 9.15238 13.8629C9.299 13.962 9.29129 14.1828 9.12923 14.2971C8.96718 14.4113 8.75882 14.3504 8.7048 14.1828C8.65079 14.3504 8.44243 14.4113 8.28037 14.2971C8.11832 14.1752 8.1106 13.962 8.25722 13.8629C8.07973 13.8629 7.95626 13.6878 8.018 13.4973C8.07974 13.3069 8.28037 13.2384 8.42699 13.345C8.37298 13.1774 8.50416 13.0099 8.7048 13.0099C8.90544 12.9947 9.03663 13.1698 8.98261 13.3374ZM11.0507 12.8499L11.3054 12.5986L11.5601 12.8499L11.3054 13.1013L11.0507 12.8499ZM9.44562 12.8499L9.70028 12.5986L9.95494 12.8499L9.70028 13.1013L9.44562 12.8499ZM9.45334 13.1317C9.60768 13.1394 9.74658 13.147 9.90092 13.147L9.94722 13.802C9.96266 14.0305 9.83147 14.2133 9.69257 14.2742C9.70028 14.1905 9.68485 14.1219 9.66941 14.0534C9.59996 13.7487 9.52279 13.444 9.45334 13.1317ZM11.5523 13.1317C11.398 13.1394 11.2514 13.147 11.1048 13.147L11.0507 13.802C11.0353 14.0305 11.1665 14.2133 11.3054 14.2742C11.2977 14.1905 11.3131 14.1219 11.3285 14.0534C11.4057 13.7487 11.4829 13.444 11.5523 13.1317ZM12.3163 14.4799C12.0076 13.8553 12.324 13.3298 12.9182 13.345C12.6173 13.0632 11.9613 12.9337 11.7221 13.4059C11.5138 13.8172 11.7144 14.2742 12.3163 14.4799ZM7.71704 11.9512V13.6421C7.71704 13.7106 7.72476 13.7868 7.74791 13.8553C7.90996 14.3428 8.64307 14.6551 9.07521 14.8379C9.36846 14.9597 9.6617 15.074 9.94722 15.2187C10.1633 15.3253 10.3794 15.4548 10.5028 15.6681C10.6263 15.4472 10.8424 15.3253 11.0585 15.2187C11.344 15.074 11.6372 14.9597 11.9305 14.8379C12.3703 14.6551 13.1034 14.3428 13.2655 13.8553C13.2886 13.7868 13.2964 13.7182 13.2964 13.6421C13.2964 13.0784 13.2964 12.5148 13.2964 11.9512C13.0031 12.0807 12.6867 12.2711 12.4552 12.5072C12.2237 12.2635 11.9305 12.0807 11.6295 11.9512L11.8147 12.3015L11.6912 12.3244C11.3131 12.3929 10.9813 12.6062 10.9659 13.0251C10.9581 13.345 10.9504 13.6725 10.935 13.9924C10.935 14.0991 10.9659 14.1676 11.0507 14.2362C11.1511 14.3276 11.2591 14.4113 11.3671 14.4951C11.4597 14.5713 11.452 14.7084 11.4134 14.8074C11.3748 14.8912 11.2745 14.8912 11.1974 14.914C11.0816 14.9445 10.989 14.9978 10.9041 15.074C10.8038 15.1654 10.634 15.2111 10.4951 15.2111C10.3639 15.2111 10.1864 15.1654 10.0861 15.074C10.0012 14.9978 9.90864 14.9445 9.79288 14.914C9.71572 14.8912 9.6154 14.8912 9.57681 14.8074C9.53823 14.7084 9.53051 14.5713 9.62311 14.4951C9.73115 14.4113 9.83919 14.3276 9.93951 14.2362C10.0244 14.1676 10.0553 14.0991 10.0553 13.9924C10.0475 13.6725 10.0321 13.345 10.0321 13.0251C10.0244 12.6062 9.69256 12.3929 9.31444 12.3244L9.19097 12.3015L9.37617 11.9512C9.08293 12.0807 8.78969 12.2711 8.55818 12.5072C8.31896 12.2711 8.01028 12.0883 7.71704 11.9512Z" fill="#003DA6"/>
<path fill-rule="evenodd" clip-rule="evenodd" d="M9.53813 5.62196C9.56899 5.61435 9.68475 5.62196 9.70018 5.66005C9.7079 5.69813 9.69246 5.71336 9.67703 5.69813C9.63073 5.67528 9.56899 5.6372 9.53813 5.62196ZM9.12141 5.69051C9.17543 5.66766 9.2526 5.64481 9.29119 5.64481C9.55356 5.66005 9.81594 5.8657 9.96256 5.97233C9.90082 5.83523 9.76192 5.7286 9.73877 5.5915C9.66931 5.5458 9.58443 5.53057 9.49183 5.50772C9.38379 5.47725 9.32205 5.49248 9.2526 5.5458C9.19087 5.5915 9.15228 5.65243 9.12141 5.69051ZM9.31434 5.9114C9.39151 5.94186 9.58443 6.05611 9.7079 6.16274C9.73105 6.10181 9.77735 6.07135 9.83137 6.05611C9.68475 5.97995 9.45324 5.91901 9.31434 5.9114ZM10.5105 9.31603L10.6725 9.60546L11.0043 9.51406L10.9117 9.83396L11.205 10.0015L10.9117 10.1615L11.0043 10.489L10.6879 10.3976L10.5182 10.6946L10.3561 10.4052L10.0243 10.4966L10.1169 10.1767L9.82365 10.0091L10.1169 9.84919L10.0243 9.52168L10.3407 9.61307L10.5105 9.31603ZM13.304 8.95805L7.72466 8.95043V11.9514C8.02562 11.8219 8.33429 11.6315 8.5658 11.3954C8.7973 11.6315 9.08283 11.8219 9.38379 11.9514L9.43781 11.8371C8.63525 11.4334 8.18767 10.6032 8.69698 9.85681C8.95164 9.48359 9.28347 9.29318 9.66931 9.09514C9.53813 9.28556 9.40694 9.46836 9.28347 9.66639C8.98251 10.1462 8.92849 10.7099 9.49183 11.0907C9.64616 11.1973 9.74648 11.1288 9.88539 11.304C9.93941 11.3725 10.0552 11.3497 10.1015 11.2811C10.1555 11.1973 10.3021 11.1897 10.3716 11.2583C10.4024 11.2811 10.4719 11.3573 10.5105 11.3573C10.549 11.3573 10.6185 11.2887 10.6494 11.2583C10.7188 11.1897 10.8654 11.1973 10.9195 11.2811C10.9658 11.3497 11.0815 11.3725 11.1355 11.304C11.2744 11.1288 11.3747 11.1973 11.5291 11.0907C12.0924 10.7099 12.0384 10.1386 11.7452 9.66639C11.6217 9.47598 11.4905 9.28556 11.3593 9.09514C11.7452 9.30079 12.077 9.48359 12.3239 9.85681C12.8255 10.6032 12.3857 11.4334 11.5754 11.8371L11.6294 11.9514C11.9304 11.8143 12.2236 11.6315 12.4551 11.3954C12.6866 11.6315 12.9953 11.8219 13.2963 11.9514C13.2963 10.9612 13.2963 9.95582 13.304 8.95805ZM12.7561 15.3636C12.9027 15.5464 13.0416 15.7368 13.1882 15.9196C13.2963 16.0263 13.3271 16.1481 13.4815 16.1329C13.5046 16.1329 13.7438 16.1558 13.7901 16.1786C13.875 16.2167 13.9522 16.3309 14.0139 16.3614C14.0525 16.369 14.1297 16.4223 14.1374 16.468C14.1451 16.5061 14.1142 16.5442 14.0602 16.5518C13.9831 16.4757 13.8905 16.4376 13.8364 16.4223C13.6589 16.3843 13.5663 16.3766 13.4506 16.3309C13.5509 16.3995 13.6281 16.4223 13.6898 16.5061C13.6281 16.4985 13.5278 16.4909 13.466 16.4985C13.4815 16.5594 13.5123 16.6204 13.5586 16.6737C13.5278 16.6585 13.4583 16.6508 13.3966 16.6585C13.4043 16.7042 13.4197 16.7727 13.4429 16.8489C13.3811 16.8184 13.358 16.8032 13.304 16.8184C13.2731 16.6737 13.2268 16.5899 13.1805 16.5366C12.9258 16.2091 12.6558 15.9044 12.3857 15.5921L12.4011 15.4626L12.6172 15.554L12.648 15.3255L12.7561 15.3636ZM14.0911 16.6128C14.1142 16.6661 14.1451 16.7422 14.1297 16.8108C14.1683 16.7651 14.1837 16.6813 14.1683 16.6204C14.1605 16.5975 14.1528 16.5823 14.1451 16.5899C14.1374 16.5975 14.1142 16.6128 14.0911 16.6128ZM13.6512 16.5671C13.6281 16.5518 13.5741 16.5442 13.5355 16.5518C13.5432 16.5747 13.5586 16.628 13.6049 16.6432C13.6049 16.6051 13.6358 16.5747 13.6512 16.5671ZM13.5586 16.7346C13.5355 16.7118 13.4815 16.7042 13.4429 16.7042C13.4506 16.727 13.4583 16.7879 13.5046 16.8184C13.5123 16.7803 13.5432 16.7422 13.5586 16.7346ZM13.4506 16.9098C13.4274 16.8946 13.3889 16.8641 13.3271 16.8717C13.3348 16.8946 13.3657 16.9631 13.412 16.9783C13.412 16.9479 13.4274 16.9174 13.4506 16.9098ZM14.0294 16.8717L13.9985 16.9022C13.9831 16.9174 13.9522 16.925 13.929 16.9098L13.6821 16.6965C13.6281 16.6432 13.6821 16.5671 13.7516 16.6128C13.8364 16.6737 13.9368 16.727 14.0139 16.7956C14.0371 16.8184 14.0448 16.8565 14.0294 16.8717ZM13.9213 17.0393L13.8905 17.0774C13.875 17.0926 13.8364 17.1002 13.8133 17.0774L13.5895 16.8717C13.5278 16.8184 13.5972 16.7346 13.6667 16.7803L13.9136 16.9631C13.929 16.986 13.9368 17.024 13.9213 17.0393ZM13.7593 17.1764L13.7284 17.2068C13.713 17.2221 13.6821 17.2297 13.6589 17.2068L13.4737 17.0317C13.4197 16.986 13.4815 16.9022 13.5432 16.9479L13.7438 17.1002C13.767 17.1307 13.7747 17.1611 13.7593 17.1764ZM13.8982 16.6204C13.9445 16.6661 13.9985 16.7118 14.0448 16.7575C14.0294 16.6965 13.9985 16.6432 13.929 16.5747C13.9136 16.5899 13.9059 16.5975 13.8982 16.6204ZM8.24941 15.3636C8.10278 15.5464 7.96388 15.7368 7.81726 15.9196C7.70922 16.0263 7.67835 16.1481 7.52402 16.1329C7.50087 16.1329 7.26164 16.1558 7.21534 16.1786C7.13046 16.2167 7.05329 16.3309 6.99155 16.3614C6.95297 16.369 6.8758 16.4223 6.86808 16.468C6.86036 16.5061 6.89123 16.5442 6.94525 16.5518C7.02242 16.4757 7.11502 16.4376 7.16904 16.4223C7.34653 16.3843 7.43913 16.3766 7.55488 16.3309C7.45457 16.3995 7.3774 16.4223 7.31566 16.5061C7.3774 16.4985 7.47772 16.4909 7.53945 16.4985C7.52402 16.5594 7.49315 16.6204 7.44685 16.6737C7.47772 16.6585 7.54717 16.6508 7.6089 16.6585C7.60119 16.7042 7.58575 16.7727 7.5626 16.8489C7.62434 16.8184 7.64749 16.8032 7.70151 16.8184C7.73237 16.6737 7.77867 16.5899 7.82498 16.5366C8.07963 16.2091 8.34973 15.9044 8.62753 15.5921L8.6121 15.4626L8.39603 15.554L8.36516 15.3255L8.24941 15.3636ZM6.91438 16.6051C6.89123 16.6585 6.86036 16.7346 6.8758 16.8032C6.83721 16.7575 6.82178 16.6737 6.83721 16.6128C6.84493 16.5899 6.85265 16.5747 6.86036 16.5823C6.86808 16.5899 6.89123 16.6051 6.91438 16.6051ZM7.35425 16.5594C7.3774 16.5442 7.43141 16.5366 7.47 16.5442C7.46228 16.5671 7.44685 16.6204 7.40055 16.6356C7.40055 16.6051 7.36968 16.5747 7.35425 16.5594ZM7.44685 16.7346C7.47 16.7194 7.52402 16.7042 7.5626 16.7042C7.55488 16.727 7.54717 16.7879 7.50087 16.8184C7.49315 16.7803 7.46228 16.7422 7.44685 16.7346ZM7.55488 16.9022C7.57804 16.8869 7.61662 16.8565 7.67835 16.8641C7.67064 16.8869 7.63977 16.9555 7.59347 16.9707C7.59347 16.9403 7.57804 16.9174 7.55488 16.9022ZM6.97612 16.8641L7.00699 16.8946C7.02242 16.9098 7.05329 16.9174 7.07644 16.9022L7.32338 16.6889C7.3774 16.6432 7.32338 16.5594 7.25393 16.6051C7.16904 16.6661 7.06872 16.7194 6.99155 16.7879C6.9684 16.8108 6.96068 16.8489 6.97612 16.8641ZM7.08415 17.0393L7.11502 17.0774C7.13046 17.0926 7.16904 17.1002 7.19219 17.0774L7.4237 16.8717C7.48543 16.8184 7.41598 16.7346 7.34653 16.7803L7.09959 16.9631C7.07644 16.9783 7.06872 17.0164 7.08415 17.0393ZM7.24621 17.1764L7.27708 17.2068C7.29251 17.2221 7.32338 17.2297 7.34653 17.2068L7.53173 17.0393C7.58575 16.9936 7.52402 16.9098 7.46228 16.9555L7.26164 17.1078C7.23849 17.1231 7.23078 17.1535 7.24621 17.1764ZM7.16132 16.5594C7.11502 16.6051 7.00699 16.7042 6.9684 16.7499C6.98383 16.6585 7.061 16.5747 7.13817 16.5061C7.13817 16.529 7.14589 16.5442 7.16132 16.5594Z" fill="#CE0E2D"/>
<path fill-rule="evenodd" clip-rule="evenodd" d="M16.6223 11.3418C16.5915 11.3723 16.5529 11.4103 16.4911 11.4256C16.4989 11.4484 16.5143 11.4713 16.5452 11.4865C16.576 11.5017 16.5992 11.5094 16.6223 11.5017C16.5992 11.4332 16.6069 11.3799 16.6223 11.3418ZM16.4371 11.6845C16.4911 11.715 16.5529 11.6998 16.5683 11.6617C16.5915 11.6236 16.5606 11.5703 16.5143 11.5398C16.4603 11.5094 16.3985 11.5246 16.3831 11.5627C16.36 11.6008 16.3831 11.6541 16.4371 11.6845ZM15.3953 13.7258C15.3876 13.741 15.3799 13.7639 15.3799 13.7867C15.349 13.7563 15.3105 13.7334 15.2564 13.7182C15.2719 13.703 15.2873 13.6953 15.3027 13.6725L15.758 12.8194C15.7966 12.7509 15.8121 12.6823 15.7966 12.6442C15.8043 12.6214 15.8584 12.629 15.9047 12.6519C15.951 12.6747 15.9818 12.7128 15.9741 12.7356C15.9355 12.7509 15.8892 12.8042 15.8506 12.8727L15.3953 13.7258ZM15.241 13.9162C15.295 13.9467 15.3568 13.9391 15.3722 13.9086C15.3876 13.8781 15.3645 13.8248 15.3105 13.7944C15.2564 13.7639 15.1947 13.7715 15.1793 13.802C15.1561 13.8324 15.187 13.8857 15.241 13.9162ZM15.1175 14.1447C15.187 14.1828 15.2642 14.1752 15.2873 14.1295C15.3105 14.0838 15.2719 14.0152 15.2024 13.9771C15.133 13.9391 15.0558 13.9467 15.0327 13.9924C15.0095 14.0381 15.0481 14.1066 15.1175 14.1447ZM15.0172 14.3351C15.079 14.3656 15.1484 14.3656 15.1638 14.3275C15.187 14.2894 15.1484 14.2285 15.0867 14.198C15.0249 14.1676 14.9555 14.1676 14.9401 14.2056C14.9169 14.2437 14.9555 14.297 15.0172 14.3351ZM14.5388 15.3177C14.4539 15.4776 14.4925 15.7594 14.423 15.8737V15.8813C14.369 15.9879 14.2378 16.026 14.1375 15.9727C14.0372 15.9194 13.9986 15.7899 14.0526 15.6909C14.0526 15.6833 14.0603 15.6833 14.0603 15.6833C14.1221 15.5614 14.3767 15.4395 14.4616 15.2872L14.9555 14.358C14.9786 14.3808 15.0095 14.3961 15.0327 14.4037L14.5388 15.3177ZM13.9986 16.2241C14.068 16.2621 14.1375 16.2469 14.1684 16.2012C14.1915 16.1555 14.1606 16.087 14.0912 16.0489C14.0217 16.0108 13.9523 16.026 13.9214 16.0717C13.8983 16.1174 13.9369 16.186 13.9986 16.2241ZM13.852 16.5973C13.8288 16.5744 13.7979 16.5668 13.7748 16.5516L13.8211 16.4678C13.852 16.4754 13.8751 16.4906 13.8983 16.5135L13.852 16.5973ZM13.4198 17.3132C13.4738 17.3437 13.5433 17.3361 13.5664 17.2904C13.5896 17.2523 13.5587 17.1914 13.5047 17.1609C13.4507 17.1304 13.3812 17.138 13.3581 17.1837C13.3349 17.2218 13.3581 17.2828 13.4198 17.3132ZM13.2578 17.6103C13.3272 17.5341 13.3812 17.5265 13.443 17.4884C13.497 17.4503 13.4044 17.4046 13.3735 17.3894C13.3427 17.3742 13.2501 17.3208 13.2501 17.3894C13.2578 17.4579 13.2732 17.5265 13.2578 17.6103ZM16.2982 11.7302C16.2288 11.7455 16.1516 11.7759 16.113 11.8293C16.1825 11.9816 16.0667 12.2025 15.8892 12.5071C15.8661 12.5071 15.8429 12.4919 15.8275 12.4767C16.005 12.2177 16.1053 11.8673 15.9664 11.7836C16.0513 11.6998 16.1748 11.7074 16.2905 11.7302C16.2982 11.7226 16.2982 11.7302 16.2982 11.7302ZM15.9664 12.5528C15.9741 12.5605 15.9895 12.5605 16.0127 12.5681C16.1053 12.3548 16.2828 12.0197 16.4217 11.9892C16.4603 11.9054 16.414 11.8216 16.3831 11.7759C16.3291 11.7759 16.2288 11.7836 16.1825 11.8597C16.2365 11.9892 16.059 12.332 15.9278 12.5224C15.9432 12.5376 15.9587 12.5528 15.9664 12.5528ZM16.468 11.8216C16.4911 11.8902 16.5066 11.9664 16.4834 12.0273C16.3214 12.0501 16.1979 12.271 16.0436 12.5833C16.059 12.6062 16.0821 12.6138 16.1053 12.6138C16.2211 12.3243 16.4603 12.0425 16.6069 12.1111C16.63 11.9968 16.5529 11.8978 16.4757 11.814C16.4757 11.8216 16.4757 11.8216 16.468 11.8216ZM5.76466 13.5125L5.92672 13.84C5.98845 13.9695 6.03476 14.0533 6.07334 14.1904C5.98845 14.0838 5.93444 13.9848 5.8727 13.8629L5.71065 13.5354C5.67206 13.4516 5.63348 13.4059 5.63348 13.3145C5.70293 13.3754 5.72608 13.4364 5.76466 13.5125ZM5.44827 13.5582C5.47914 13.543 5.51772 13.5582 5.53316 13.5887C5.54859 13.6192 5.53316 13.6573 5.50229 13.6725C5.47142 13.6877 5.43284 13.6725 5.4174 13.642C5.40197 13.6116 5.4174 13.5735 5.44827 13.5582ZM5.92672 13.3221C5.95759 13.3069 5.99617 13.3221 6.01161 13.3526C6.02704 13.3831 6.01161 13.4211 5.98074 13.4364C5.94987 13.4516 5.91129 13.4364 5.89585 13.4059C5.88813 13.3754 5.89585 13.3374 5.92672 13.3221ZM5.16275 12.3167L5.2785 12.5452C5.34024 12.6671 5.37882 12.7433 5.40969 12.8727C5.33252 12.7737 5.2785 12.6823 5.22448 12.5681L5.10873 12.3396C5.06243 12.2558 5.03156 12.1949 5.01613 12.0958C5.09329 12.1644 5.12416 12.2329 5.16275 12.3167ZM4.81549 12.2863C4.84635 12.271 4.88494 12.2863 4.90037 12.3167C4.91581 12.3472 4.90037 12.3853 4.8695 12.4005C4.83864 12.4157 4.80005 12.4005 4.78462 12.37C4.76919 12.3472 4.78462 12.3015 4.81549 12.2863ZM5.30165 12.0501C5.33252 12.0349 5.3711 12.0501 5.38654 12.0806C5.40197 12.1111 5.38654 12.1492 5.35567 12.1644C5.3248 12.1796 5.28622 12.1644 5.27078 12.1339C5.25535 12.1111 5.27078 12.0654 5.30165 12.0501ZM7.20772 16.544L7.17686 16.483L7.23087 16.4678L7.25402 16.5135L7.20772 16.544ZM7.57042 17.138C7.63987 17.2523 7.73247 17.3208 7.84051 17.3665C7.79421 17.4427 7.77877 17.5189 7.77877 17.6255C7.69389 17.5646 7.62444 17.5417 7.53183 17.5189C7.55498 17.3818 7.53955 17.2675 7.50868 17.1685L7.50097 17.1457L7.54727 17.1L7.57042 17.138ZM7.04567 16.2241L6.92992 15.9956C6.95307 15.9879 6.9685 15.9879 6.98393 15.9727L7.08425 16.1784L7.04567 16.2241ZM6.74471 16.1403C6.77558 16.125 6.81416 16.1403 6.8296 16.1707C6.84503 16.2012 6.8296 16.2393 6.79873 16.2545C6.76786 16.2698 6.72928 16.2545 6.71384 16.2241C6.69841 16.2012 6.71384 16.1631 6.74471 16.1403ZM7.21544 15.9118C7.24631 15.8965 7.28489 15.9118 7.30033 15.9422C7.31576 15.9727 7.30033 16.0108 7.26946 16.026C7.23859 16.0413 7.20001 16.026 7.18457 15.9956C7.17686 15.9651 7.18457 15.927 7.21544 15.9118ZM6.47462 14.9521L6.57494 15.1577C6.63667 15.2872 6.69841 15.4015 6.73699 15.5386C6.64439 15.4243 6.59037 15.3177 6.52864 15.1882L6.4206 14.9673C6.3743 14.8759 6.328 14.7921 6.31256 14.6855C6.38973 14.7693 6.42832 14.8607 6.47462 14.9521ZM6.08877 14.8378C6.11964 14.8226 6.15823 14.8378 6.17366 14.8683C6.18909 14.8988 6.17366 14.9368 6.14279 14.9521C6.11192 14.9673 6.07334 14.9521 6.05791 14.9216C6.05019 14.8911 6.05791 14.8531 6.08877 14.8378ZM6.56722 14.6017C6.59809 14.5865 6.63667 14.6017 6.65211 14.6322C6.66754 14.6626 6.65211 14.7007 6.62124 14.716C6.59037 14.7312 6.55179 14.716 6.53635 14.6855C6.52092 14.655 6.53635 14.6169 6.56722 14.6017Z" fill="#FFD100"/>
<path fill-rule="evenodd" clip-rule="evenodd" d="M6.01933 15.6368C6.27399 15.5987 6.60582 15.652 6.82961 15.9034C6.53637 15.9871 6.23541 15.9186 6.01933 15.6368ZM6.01933 15.3397C6.26627 15.2712 6.58267 15.454 6.67527 15.5911C6.48235 15.6444 6.16596 15.5682 6.01933 15.3397ZM7.02253 14.8447C6.82189 14.997 6.76787 15.3626 6.82961 15.5149C6.99166 15.3931 7.11513 15.096 7.02253 14.8447ZM7.26175 15.0198C7.07655 15.2026 6.92221 15.4921 6.98395 15.8272C7.23089 15.6444 7.35436 15.3626 7.26175 15.0198ZM6.52865 13.7098C6.36659 13.8773 6.23541 14.1592 6.31258 14.4867C6.53637 14.3191 6.63669 14.0449 6.52865 13.7098ZM6.31258 13.527C6.13509 13.6641 6.10422 14.0144 6.15824 14.1668C6.29714 14.0601 6.40518 13.7783 6.31258 13.527ZM5.39427 13.984C5.61034 13.923 5.9113 14.1135 6.0039 14.2506C5.83413 14.2886 5.5486 14.2049 5.39427 13.984ZM5.4097 14.2658C5.64121 14.2429 5.94217 14.3115 6.15824 14.5628C5.89586 14.6314 5.61806 14.5476 5.4097 14.2658ZM4.78463 12.8872C5.01614 12.8339 5.27851 12.9329 5.48687 13.2147C5.25536 13.2832 4.98527 13.1918 4.78463 12.8872ZM4.85408 12.6054C5.02386 12.5673 5.23221 12.7348 5.32481 12.8719C5.14733 12.91 4.96984 12.8339 4.85408 12.6054ZM5.5486 12.2626C5.41742 12.3769 5.42513 12.6435 5.47915 12.7958C5.61034 12.6815 5.64892 12.4987 5.5486 12.2626ZM5.81098 12.3845C5.63349 12.5368 5.5486 12.8034 5.64892 13.1385C5.84956 12.9938 5.92673 12.7196 5.81098 12.3845ZM4.36792 11.7295C4.55313 11.7066 4.75376 11.7752 4.90039 12.0341C4.7229 12.057 4.52226 11.9884 4.36792 11.7295ZM4.58399 11.2344C4.75376 11.3334 4.8618 11.44 4.93125 11.5619C4.9081 11.699 4.93897 11.8589 4.96984 11.9732C4.86952 11.8589 4.77692 11.7523 4.64573 11.6838C4.58399 11.5619 4.56084 11.4324 4.58399 11.2344ZM5.12418 11.3562C5.00071 11.4857 4.93897 11.6761 5.04701 11.958C5.17048 11.8361 5.23221 11.6381 5.12418 11.3562Z" fill="#037C52"/>
<path fill-rule="evenodd" clip-rule="evenodd" d="M10.3023 5.88046C10.2483 5.87284 10.2097 5.84237 10.2097 5.79667C10.2097 5.75097 10.2483 5.71289 10.3023 5.71289C10.2715 5.72051 10.2483 5.75097 10.2483 5.79667C10.2483 5.84237 10.2715 5.88046 10.3023 5.88046ZM10.31 5.71289C10.3718 5.71289 10.4181 5.75097 10.4181 5.79667C10.4181 5.84237 10.3718 5.88046 10.31 5.88046C10.3409 5.88046 10.3641 5.84237 10.3641 5.79667C10.3641 5.75097 10.3409 5.71289 10.31 5.71289Z" fill="#E7E6E6"/>
</svg>
