<svg width="164" height="60" viewBox="0 0 164 60" fill="none" xmlns="http://www.w3.org/2000/svg">
<path fill-rule="evenodd" clip-rule="evenodd" d="M20.0847 50.1516L16.0105 43.0508C16.0083 43.0474 16.005 43.0424 16.0028 43.0384C15.388 41.9632 15.7471 40.5851 16.8101 39.9612C17.8725 39.3385 19.2343 39.7031 19.8485 40.7788C19.8811 40.8354 19.9115 40.8948 19.9392 40.9552L23.921 47.8992C26.3623 52.1536 32.289 53.2898 36.4922 50.8196C40.6975 48.3512 42.4577 42.6996 40.0175 38.4453L34.1798 28.2365C34.1798 28.2354 34.1792 28.2343 34.177 28.2332C34.177 28.232 34.177 28.2304 34.1748 28.2298L34.1482 28.1788C33.5728 27.1143 33.9402 25.7714 34.9838 25.1576C36.0462 24.5349 37.4068 24.9006 38.0227 25.973C38.0542 26.0284 38.083 26.0828 38.1085 26.1388L43.8559 36.1919C47.5251 42.5904 45.0439 50.9916 38.7204 54.7055C32.3958 58.4188 23.7533 56.5535 20.0847 50.1516ZM58.2918 42.2091C57.7905 42.008 57.3578 41.7247 56.9943 41.3596C56.6307 40.9944 56.3502 40.5655 56.1532 40.0716C55.9557 39.5776 55.8561 39.0367 55.8539 38.4492V38.4268C55.8566 37.8612 55.959 37.3326 56.161 36.8404C56.3629 36.3481 56.6473 35.9147 57.0142 35.5406C57.3811 35.1665 57.8132 34.8736 58.3107 34.662C58.8087 34.4508 59.3548 34.3433 59.9496 34.3394C60.3419 34.34 60.6961 34.3691 61.0115 34.4279C61.3263 34.4867 61.6146 34.5735 61.8763 34.6877C62.1381 34.8014 62.3854 34.9414 62.6172 35.1077C62.7058 35.1699 62.786 35.26 62.8585 35.3776C62.9315 35.4947 62.9697 35.6386 62.9741 35.8083C62.9725 35.9679 62.9343 36.1124 62.8585 36.2412C62.7832 36.37 62.682 36.4724 62.5547 36.5486C62.4275 36.6248 62.2847 36.664 62.1264 36.6656C62.0053 36.664 61.9023 36.6449 61.8188 36.6091C61.7347 36.5738 61.6627 36.5324 61.6024 36.4853C61.3722 36.3145 61.121 36.1818 60.8488 36.0877C60.5766 35.9931 60.2584 35.9449 59.8937 35.9438C59.5789 35.946 59.2862 36.011 59.0156 36.1392C58.7445 36.2675 58.5065 36.4444 58.3024 36.6701C58.0982 36.8958 57.9383 37.1568 57.8237 37.453C57.7092 37.7487 57.6511 38.0656 57.6489 38.4039V38.4268C57.6527 38.9129 57.7546 39.3441 57.9554 39.7199C58.1557 40.0956 58.4329 40.3913 58.7871 40.6064C59.1418 40.822 59.5512 40.9317 60.0166 40.9356C60.3303 40.9356 60.6241 40.8964 60.8975 40.8169C61.1708 40.738 61.4171 40.6192 61.6362 40.4608V39.3301H60.4747C60.3353 39.329 60.2091 39.2954 60.0968 39.2299C59.9845 39.1644 59.8948 39.0759 59.8284 38.9639C59.762 38.8519 59.7277 38.7253 59.7261 38.5848C59.7277 38.4436 59.762 38.3165 59.8284 38.2028C59.8948 38.0892 59.9845 37.9984 60.0968 37.9312C60.2091 37.864 60.3353 37.8293 60.4747 37.8282H62.4391C62.6006 37.8299 62.7456 37.8691 62.8745 37.9452C63.0035 38.022 63.1058 38.1256 63.1816 38.256C63.2575 38.3871 63.2962 38.5344 63.2978 38.6979V40.6192C63.2984 40.8724 63.2497 41.0891 63.1512 41.27C63.0533 41.4508 62.9011 41.6026 62.6953 41.7258C62.4833 41.8596 62.2399 41.9868 61.9643 42.106C61.6893 42.2253 61.3844 42.3228 61.0497 42.3984C60.7149 42.474 60.3519 42.5132 59.9607 42.5154C59.3498 42.5126 58.7937 42.4107 58.2918 42.2091ZM75.8513 42.3211C75.6897 42.2007 75.5641 42.0321 75.4745 41.8154L72.9413 35.6817C72.9126 35.6145 72.8888 35.5462 72.87 35.4773C72.8511 35.4084 72.8417 35.3373 72.8406 35.264C72.8423 35.1004 72.8816 34.9543 72.9568 34.8255C73.0326 34.6967 73.135 34.5948 73.2639 34.5203C73.3929 34.4452 73.5384 34.4072 73.7 34.4055C73.9235 34.4088 74.1078 34.4671 74.2527 34.5791C74.3977 34.6916 74.504 34.8367 74.5709 35.0153L76.5236 40.1326L78.499 34.9588C78.5366 34.863 78.5942 34.7734 78.6711 34.69C78.748 34.6065 78.8415 34.5382 78.9522 34.4861C79.0623 34.434 79.1868 34.4072 79.3251 34.4055C79.4828 34.4072 79.6256 34.4441 79.7534 34.5169C79.8807 34.5892 79.982 34.6883 80.0578 34.8137C80.133 34.9392 80.1712 35.0814 80.1734 35.241C80.1723 35.3104 80.1629 35.3788 80.1452 35.446C80.1275 35.5137 80.107 35.5736 80.0838 35.6252L77.5279 41.8154C77.4388 42.0321 77.3132 42.2007 77.1517 42.3211C76.9895 42.4415 76.7914 42.5025 76.5574 42.5048H76.4456C76.211 42.5025 76.0129 42.4415 75.8513 42.3211ZM66.4026 42.1105C65.8985 41.8484 65.5112 41.457 65.2406 40.9362C64.9695 40.4154 64.8328 39.7675 64.83 38.9913V35.2752C64.8317 35.1116 64.8704 34.9644 64.9462 34.8339C65.0215 34.7034 65.1244 34.5998 65.2533 34.5231C65.3823 34.4464 65.5278 34.4072 65.6894 34.4055C65.8509 34.4072 65.9965 34.4464 66.1254 34.5231C66.2543 34.5998 66.3567 34.7034 66.4325 34.8339C66.5083 34.9644 66.547 35.1116 66.5487 35.2752V38.946C66.5503 39.3755 66.6178 39.735 66.7529 40.0251C66.8868 40.3146 67.0799 40.533 67.3311 40.6797C67.5823 40.8264 67.8833 40.8998 68.2347 40.9004C68.5855 40.8998 68.8865 40.8287 69.1377 40.687C69.3889 40.5448 69.5815 40.3331 69.716 40.052C69.851 39.7703 69.9185 39.4208 69.9201 39.0025V35.2752C69.9218 35.1116 69.9605 34.9644 70.0363 34.8339C70.1121 34.7034 70.2145 34.5998 70.3434 34.5231C70.4724 34.4464 70.6179 34.4072 70.7795 34.4055C70.941 34.4072 71.0866 34.4464 71.2155 34.5231C71.3444 34.5998 71.4468 34.7034 71.5226 34.8339C71.5984 34.9644 71.6371 35.1116 71.6388 35.2752V38.9348C71.6355 39.7328 71.4949 40.3958 71.2166 40.9244C70.9388 41.4531 70.5443 41.8484 70.033 42.1111C69.5217 42.3732 68.9147 42.5048 68.212 42.5042C67.5098 42.5042 66.9061 42.3726 66.4026 42.1105ZM89.393 42.3317C89.2641 42.255 89.1618 42.1514 89.0859 42.0204C89.0107 41.8899 88.972 41.7426 88.9697 41.5785V35.3435C88.972 35.18 89.0107 35.0327 89.0859 34.9022C89.1618 34.7717 89.2641 34.6681 89.393 34.592C89.522 34.5152 89.6675 34.476 89.8296 34.4744H92.5415C93.039 34.4755 93.4783 34.5438 93.8596 34.6804C94.2408 34.8165 94.5606 35.0153 94.8179 35.2757C95.0359 35.4969 95.2019 35.7601 95.3159 36.0642C95.4294 36.3688 95.4869 36.7082 95.4875 37.0823V37.1047C95.4858 37.518 95.4211 37.8808 95.2932 38.1928C95.1654 38.5047 94.985 38.769 94.7521 38.9868C94.5186 39.2047 94.243 39.3788 93.9248 39.5099L95.1189 40.9793C95.2042 41.084 95.2717 41.1882 95.3215 41.2918C95.3713 41.3954 95.3973 41.5136 95.3984 41.6463C95.3956 41.8098 95.3558 41.9509 95.2789 42.0708C95.2014 42.1906 95.1012 42.2836 94.9784 42.3491C94.855 42.4152 94.7239 42.4482 94.5839 42.4493C94.3896 42.4471 94.2247 42.404 94.0881 42.3211C93.952 42.2376 93.8341 42.1296 93.7356 41.9974L92.0612 39.8487H90.689V41.5785C90.6867 41.7426 90.648 41.8899 90.5728 42.0204C90.4969 42.1514 90.3946 42.255 90.2657 42.3317C90.1367 42.4084 89.9912 42.4476 89.8296 42.4493C89.6675 42.4476 89.522 42.4084 89.393 42.3317ZM97.4612 42.3323C97.3334 42.2561 97.2321 42.1531 97.1569 42.0243C97.0816 41.8955 97.0429 41.7504 97.0412 41.5908V35.2998C97.0429 35.1363 97.0816 34.989 97.1574 34.8585C97.2327 34.728 97.335 34.6244 97.4645 34.5477C97.5934 34.471 97.739 34.4318 97.9005 34.4301H98.0793C98.2823 34.4324 98.4533 34.4788 98.5928 34.5701C98.7317 34.6608 98.8584 34.784 98.9724 34.938L102.286 39.3413V35.264C102.288 35.1038 102.327 34.9593 102.402 34.8305C102.478 34.7012 102.579 34.5987 102.706 34.5225C102.834 34.4464 102.977 34.4072 103.135 34.4055C103.293 34.4072 103.436 34.4464 103.563 34.5225C103.691 34.5987 103.792 34.7012 103.867 34.8305C103.943 34.9593 103.981 35.1038 103.983 35.264V41.555C103.982 41.7185 103.943 41.8658 103.867 41.9963C103.791 42.1268 103.689 42.2304 103.56 42.3071C103.431 42.3838 103.285 42.423 103.123 42.4247H103.068C102.865 42.4224 102.694 42.376 102.555 42.2847C102.415 42.1934 102.289 42.0708 102.175 41.9162L98.7377 37.3539V41.5908C98.7361 41.7504 98.6973 41.8955 98.6221 42.0243C98.5468 42.1531 98.445 42.2561 98.3178 42.3323C98.1899 42.4084 98.0472 42.4476 97.8895 42.4493C97.7312 42.4476 97.5885 42.4084 97.4612 42.3323ZM105.711 42.339C105.592 42.2668 105.498 42.1699 105.428 42.0478C105.359 41.9252 105.324 41.788 105.322 41.6356C105.323 41.5735 105.332 41.5113 105.351 41.4492C105.37 41.387 105.394 41.3248 105.423 41.2627L108.146 35.0394C108.242 34.8227 108.374 34.6541 108.544 34.5337C108.713 34.4133 108.916 34.3523 109.15 34.35H109.251C109.486 34.3523 109.686 34.4133 109.853 34.5337C110.019 34.6541 110.149 34.8227 110.244 35.0394L112.968 41.2627C112.996 41.3248 113.018 41.3842 113.034 41.4419C113.049 41.5001 113.057 41.5567 113.057 41.6132C113.056 41.7695 113.019 41.91 112.948 42.036C112.877 42.1615 112.78 42.2612 112.657 42.3356C112.535 42.4096 112.397 42.4476 112.242 42.4493C112.042 42.4471 111.874 42.3922 111.737 42.2858C111.601 42.1783 111.494 42.0332 111.416 41.8501L110.892 40.6069H107.454L106.907 41.9072C106.833 42.078 106.727 42.2108 106.59 42.3054C106.453 42.4 106.295 42.4476 106.115 42.4493C105.964 42.4476 105.83 42.4107 105.711 42.339ZM114.82 42.3351C114.695 42.2606 114.596 42.1598 114.522 42.0327C114.449 41.9056 114.411 41.7622 114.409 41.602V35.2998C114.411 35.1363 114.45 34.989 114.525 34.8585C114.601 34.728 114.703 34.6244 114.832 34.5477C114.961 34.471 115.106 34.4318 115.268 34.4301H115.457C115.642 34.4329 115.798 34.4755 115.927 34.5589C116.057 34.6418 116.16 34.7493 116.238 34.882L118.314 38.3042L120.402 34.8708C120.49 34.7241 120.598 34.6138 120.724 34.5404C120.851 34.4671 120.999 34.4301 121.172 34.4301H121.362C121.523 34.4318 121.668 34.471 121.798 34.5477C121.927 34.6244 122.029 34.728 122.105 34.8585C122.181 34.989 122.22 35.1363 122.221 35.2998V41.5796C122.22 41.7432 122.181 41.8904 122.105 42.0209C122.029 42.1514 121.927 42.255 121.798 42.3317C121.668 42.4084 121.523 42.4476 121.362 42.4493C121.204 42.4476 121.061 42.4073 120.934 42.3295C120.806 42.2511 120.705 42.1469 120.629 42.0159C120.554 41.8854 120.515 41.7398 120.514 41.5796V37.6378L119.006 39.987C118.918 40.1242 118.815 40.2317 118.699 40.309C118.583 40.3868 118.447 40.426 118.292 40.4277C118.136 40.426 118.001 40.3868 117.885 40.309C117.769 40.2317 117.666 40.1242 117.578 39.987L116.093 37.672V41.602C116.091 41.7622 116.053 41.9056 115.977 42.0327C115.902 42.1598 115.801 42.2606 115.673 42.3351C115.546 42.4096 115.404 42.4476 115.246 42.4493C115.088 42.4476 114.946 42.4096 114.82 42.3351ZM131.997 42.3323C131.869 42.2561 131.768 42.1531 131.693 42.0243C131.617 41.8955 131.579 41.7504 131.577 41.5908V35.2998C131.579 35.1363 131.617 34.989 131.693 34.8585C131.768 34.728 131.871 34.6244 132 34.5477C132.129 34.471 132.275 34.4318 132.436 34.4301H132.615C132.818 34.4324 132.989 34.4788 133.129 34.5701C133.267 34.6608 133.394 34.784 133.508 34.938L136.822 39.3413V35.264C136.824 35.1038 136.862 34.9593 136.938 34.8305C137.013 34.7012 137.115 34.5987 137.242 34.5225C137.37 34.4464 137.513 34.4072 137.67 34.4055C137.829 34.4072 137.971 34.4464 138.099 34.5225C138.226 34.5987 138.328 34.7012 138.403 34.8305C138.479 34.9593 138.517 35.1038 138.519 35.264V41.555C138.517 41.7185 138.479 41.8658 138.403 41.9963C138.327 42.1268 138.225 42.2304 138.096 42.3071C137.966 42.3838 137.821 42.423 137.659 42.4247H137.603C137.4 42.4224 137.229 42.376 137.09 42.2847C136.951 42.1934 136.825 42.0708 136.711 41.9162L133.273 37.3539V41.5908C133.272 41.7504 133.233 41.8955 133.158 42.0243C133.083 42.1531 132.981 42.2561 132.854 42.3323C132.726 42.4084 132.583 42.4476 132.425 42.4493C132.267 42.4476 132.124 42.4084 131.997 42.3323ZM142.638 42.3317C142.509 42.255 142.407 42.1514 142.331 42.0209C142.255 41.8904 142.216 41.7432 142.215 41.5796V36.0788H140.563C140.416 36.0771 140.283 36.0407 140.164 35.969C140.045 35.8973 139.95 35.801 139.879 35.6806C139.808 35.5596 139.772 35.4252 139.771 35.2768C139.772 35.1279 139.808 34.9935 139.879 34.8731C139.95 34.7521 140.045 34.6564 140.164 34.5847C140.283 34.513 140.416 34.476 140.563 34.4744H145.586C145.732 34.476 145.865 34.513 145.984 34.5847C146.104 34.6564 146.199 34.7521 146.269 34.8731C146.34 34.9935 146.376 35.1279 146.378 35.2768C146.376 35.4252 146.34 35.5596 146.269 35.6806C146.199 35.801 146.104 35.8973 145.984 35.969C145.865 36.0407 145.732 36.0771 145.586 36.0788H143.933V41.5796C143.932 41.7432 143.893 41.8904 143.817 42.0209C143.742 42.1514 143.64 42.255 143.51 42.3317C143.381 42.4084 143.236 42.4476 143.074 42.4493C142.913 42.4476 142.767 42.4084 142.638 42.3317ZM146.64 42.339C146.521 42.2668 146.427 42.1699 146.357 42.0478C146.288 41.9252 146.252 41.788 146.251 41.6356C146.252 41.5735 146.261 41.5113 146.28 41.4492C146.299 41.387 146.323 41.3248 146.352 41.2627L149.075 35.0394C149.171 34.8227 149.303 34.6541 149.473 34.5337C149.642 34.4133 149.845 34.3523 150.079 34.35H150.18C150.415 34.3523 150.615 34.4133 150.781 34.5337C150.947 34.6541 151.078 34.8227 151.173 35.0394L153.897 41.2627C153.925 41.3248 153.947 41.3842 153.963 41.4419C153.978 41.5001 153.986 41.5567 153.986 41.6132C153.985 41.7695 153.948 41.91 153.877 42.036C153.805 42.1615 153.708 42.2612 153.586 42.3356C153.464 42.4096 153.326 42.4476 153.171 42.4493C152.971 42.4471 152.803 42.3922 152.666 42.2858C152.53 42.1783 152.423 42.0332 152.345 41.8501L151.821 40.6069H148.383L147.836 41.9072C147.762 42.078 147.656 42.2108 147.519 42.3054C147.382 42.4 147.224 42.4476 147.044 42.4493C146.893 42.4476 146.759 42.4107 146.64 42.339ZM81.9164 42.2628C81.7869 42.1861 81.6846 42.0831 81.6093 41.952C81.5335 41.8216 81.4948 41.6748 81.4931 41.5113V35.3435C81.4948 35.18 81.5335 35.0332 81.6093 34.9028C81.6846 34.7723 81.7869 34.6687 81.9164 34.592C82.0453 34.5152 82.1909 34.476 82.3524 34.4744H86.6828C86.8261 34.476 86.9551 34.5113 87.0713 34.5808C87.1869 34.6502 87.2788 34.7437 87.3474 34.8608C87.416 34.9778 87.4514 35.1088 87.4531 35.2533C87.4514 35.3978 87.416 35.5277 87.3474 35.6431C87.2788 35.7584 87.1869 35.8497 87.0713 35.9175C86.9551 35.9852 86.8261 36.0194 86.6828 36.0211H83.2007V37.6266H86.1804C86.3237 37.6283 86.4532 37.6636 86.5688 37.733C86.6845 37.8024 86.7769 37.896 86.8455 38.013C86.9141 38.13 86.949 38.2611 86.9506 38.4056C86.949 38.55 86.9141 38.68 86.8455 38.7953C86.7769 38.9107 86.6845 39.002 86.5688 39.0697C86.4532 39.1369 86.3237 39.1716 86.1804 39.1733H83.2007V40.8337H86.7387C86.882 40.8354 87.0109 40.8707 87.1272 40.9401C87.2428 41.0096 87.3346 41.1031 87.4033 41.2201C87.4719 41.3372 87.5073 41.4682 87.5089 41.6127C87.5073 41.7572 87.4719 41.8871 87.4033 42.0024C87.3346 42.1178 87.2428 42.2091 87.1272 42.2768C87.0109 42.344 86.882 42.3788 86.7387 42.3804H82.3524C82.1909 42.3788 82.0453 42.3396 81.9164 42.2628ZM124.523 42.2628C124.394 42.1861 124.291 42.0831 124.216 41.952C124.14 41.8216 124.101 41.6748 124.1 41.5113V35.3435C124.101 35.18 124.14 35.0332 124.216 34.9028C124.291 34.7723 124.394 34.6687 124.523 34.592C124.652 34.5152 124.798 34.476 124.959 34.4744H129.289C129.433 34.476 129.562 34.5113 129.678 34.5808C129.794 34.6502 129.885 34.7437 129.954 34.8608C130.023 34.9778 130.058 35.1088 130.06 35.2533C130.058 35.3978 130.023 35.5277 129.954 35.6431C129.885 35.7584 129.794 35.8497 129.678 35.9175C129.562 35.9852 129.433 36.0194 129.289 36.0211H125.807V37.6266H128.787C128.93 37.6283 129.06 37.6636 129.176 37.733C129.291 37.8024 129.384 37.896 129.452 38.013C129.521 38.13 129.556 38.2611 129.557 38.4056C129.556 38.55 129.521 38.68 129.452 38.7953C129.384 38.9107 129.291 39.002 129.176 39.0697C129.06 39.1369 128.93 39.1716 128.787 39.1733H125.807V40.8337H129.345C129.489 40.8354 129.618 40.8707 129.734 40.9401C129.849 41.0096 129.941 41.1031 130.01 41.2201C130.079 41.3372 130.114 41.4682 130.116 41.6127C130.114 41.7572 130.079 41.8871 130.01 42.0024C129.941 42.1178 129.849 42.2091 129.734 42.2768C129.618 42.344 129.489 42.3788 129.345 42.3804H124.959C124.798 42.3788 124.652 42.3396 124.523 42.2628ZM155.762 42.2628C155.633 42.1861 155.53 42.0831 155.454 41.9526C155.379 41.8221 155.34 41.6748 155.338 41.5113V35.2757C155.34 35.1116 155.379 34.9649 155.454 34.8339C155.53 34.7034 155.633 34.5998 155.762 34.5231C155.89 34.4464 156.036 34.4072 156.198 34.4055C156.36 34.4072 156.505 34.4464 156.634 34.5231C156.763 34.5998 156.865 34.7034 156.941 34.8339C157.016 34.9649 157.055 35.1116 157.057 35.2757V40.8007H160.238C160.385 40.8024 160.517 40.8376 160.634 40.9076C160.751 40.9771 160.844 41.0717 160.914 41.1904C160.983 41.3086 161.018 41.4419 161.019 41.5903C161.018 41.7387 160.983 41.8725 160.914 41.9907C160.844 42.1094 160.751 42.2035 160.634 42.2735C160.517 42.3429 160.385 42.3788 160.238 42.3804H156.198C156.036 42.3788 155.89 42.3396 155.762 42.2628ZM110.256 39.0714L109.173 36.4624L108.09 39.0714H110.256ZM151.185 39.0714L150.102 36.4624L149.019 39.0714H151.185ZM93.143 38.1715C93.3389 38.0785 93.4883 37.948 93.5912 37.7812C93.6941 37.6137 93.7456 37.4188 93.7467 37.1948V37.1724C93.7422 36.7995 93.6222 36.5178 93.3853 36.3285C93.1485 36.1387 92.8187 36.0435 92.396 36.0429H90.689V38.3132H92.4297C92.7097 38.3115 92.9471 38.2644 93.143 38.1715ZM65.7851 28.6397C65.281 28.4303 64.8444 28.1402 64.4748 27.7684C64.1052 27.3971 63.8196 26.9664 63.6171 26.4764C63.4146 25.9864 63.3122 25.4589 63.3095 24.8933V24.8709C63.3122 24.3053 63.4157 23.7767 63.6204 23.2844C63.8252 22.7922 64.1135 22.3588 64.4859 21.9847C64.8582 21.61 65.2976 21.3172 65.8039 21.106C66.3102 20.8944 66.8657 20.7868 67.4716 20.7829C68.077 20.7868 68.632 20.8932 69.1361 21.1021C69.6396 21.3116 70.0767 21.6016 70.4458 21.9729C70.8154 22.3448 71.1015 22.7754 71.304 23.2654C71.5065 23.7554 71.6089 24.2829 71.6117 24.8485V24.8709C71.6089 25.4365 71.5049 25.9652 71.3007 26.4574C71.096 26.9496 70.8071 27.3831 70.4347 27.7572C70.0623 28.1318 69.623 28.4247 69.1173 28.6358C68.611 28.8475 68.0549 28.955 67.4495 28.9589C66.8436 28.955 66.2892 28.8486 65.7851 28.6397ZM104.296 28.554C103.792 28.292 103.405 27.9005 103.134 27.3797C102.863 26.8589 102.726 26.211 102.723 25.4348V21.7187C102.725 21.5552 102.764 21.4079 102.84 21.2774C102.915 21.1469 103.018 21.0433 103.147 20.9666C103.276 20.8899 103.421 20.8507 103.583 20.849C103.744 20.8507 103.89 20.8899 104.019 20.9666C104.148 21.0433 104.25 21.1469 104.326 21.2774C104.402 21.4079 104.44 21.5552 104.442 21.7187V25.3895C104.444 25.819 104.511 26.1785 104.646 26.4686C104.78 26.7581 104.973 26.9765 105.224 27.1232C105.476 27.27 105.777 27.3433 106.128 27.3439C106.479 27.3433 106.78 27.2722 107.031 27.1305C107.282 26.9883 107.475 26.7766 107.609 26.4955C107.744 26.2138 107.812 25.8644 107.814 25.446V21.7187C107.815 21.5552 107.854 21.4079 107.93 21.2774C108.006 21.1469 108.108 21.0433 108.237 20.9666C108.366 20.8899 108.511 20.8507 108.673 20.849C108.834 20.8507 108.98 20.8899 109.109 20.9666C109.238 21.0433 109.34 21.1469 109.416 21.2774C109.492 21.4079 109.531 21.5552 109.532 21.7187V25.3783C109.529 26.1763 109.388 26.8393 109.11 27.368C108.832 27.8966 108.438 28.292 107.926 28.5546C107.415 28.8167 106.808 28.9483 106.105 28.9477C105.403 28.9477 104.8 28.8161 104.296 28.554ZM56.623 28.7752C56.4941 28.6985 56.3917 28.5949 56.3159 28.4644C56.2406 28.334 56.2019 28.1867 56.1997 28.0232V21.787C56.2019 21.6235 56.2406 21.4762 56.3159 21.3457C56.3917 21.2152 56.4941 21.1116 56.623 21.0355C56.7519 20.9588 56.8974 20.9196 57.0596 20.9179H59.3913C60.0155 20.9218 60.55 21.0383 60.9954 21.2673C61.4409 21.4964 61.7828 21.8156 62.0208 22.2244C62.2592 22.6332 62.3799 23.1086 62.3821 23.6507V23.6736C62.3793 24.1312 62.2974 24.5332 62.1353 24.8799C61.9732 25.2265 61.7485 25.516 61.4602 25.7496C61.1725 25.9825 60.8377 26.1578 60.4565 26.2754C60.0758 26.393 59.6652 26.4524 59.2242 26.4524H57.9189V28.0232C57.9167 28.1867 57.8779 28.334 57.8027 28.4644C57.7269 28.5949 57.6245 28.6985 57.4956 28.7752C57.3667 28.852 57.2211 28.8912 57.0596 28.8928C56.8974 28.8912 56.7519 28.852 56.623 28.7752ZM73.5666 28.7752C73.4377 28.6985 73.3353 28.5949 73.2595 28.4639C73.1842 28.3334 73.1455 28.1861 73.1433 28.022V21.787C73.1455 21.6235 73.1842 21.4762 73.2595 21.3457C73.3353 21.2152 73.4377 21.1116 73.5666 21.0355C73.6955 20.9588 73.8411 20.9196 74.0032 20.9179H76.7151C77.2125 20.919 77.6519 20.9873 78.0331 21.124C78.4144 21.26 78.7342 21.4588 78.9915 21.7192C79.2095 21.9404 79.3755 22.2036 79.4895 22.5077C79.6029 22.8124 79.6605 23.1517 79.661 23.5258V23.5482C79.6594 23.9615 79.5946 24.3244 79.4668 24.6363C79.339 24.9482 79.1586 25.2125 78.9256 25.4304C78.6921 25.6482 78.4166 25.8224 78.0984 25.9534L79.2925 27.4228C79.3777 27.5276 79.4452 27.6317 79.495 27.7353C79.5448 27.8389 79.5708 27.9571 79.5719 28.0898C79.5692 28.2533 79.5293 28.3944 79.4524 28.5143C79.3749 28.6341 79.2748 28.7271 79.152 28.7926C79.0286 28.8587 78.8974 28.8917 78.7574 28.8928C78.5632 28.8906 78.3983 28.8475 78.2616 28.7646C78.1255 28.6812 78.0077 28.5731 77.9092 28.4409L76.2353 26.2922H74.8625V28.022C74.8603 28.1861 74.8216 28.3334 74.7463 28.4639C74.6705 28.5949 74.5681 28.6985 74.4392 28.7752C74.3103 28.852 74.1648 28.8912 74.0032 28.8928C73.8411 28.8912 73.6955 28.852 73.5666 28.7752ZM83.458 28.7752C83.3291 28.6985 83.2267 28.5949 83.1509 28.4644C83.0751 28.334 83.0364 28.1867 83.0347 28.0232V22.5223H81.383C81.2358 22.5206 81.103 22.4842 80.984 22.4125C80.8651 22.3408 80.7699 22.2445 80.6991 22.1241C80.6283 22.0032 80.5923 21.8688 80.5906 21.7204C80.5923 21.5714 80.6283 21.437 80.6991 21.3166C80.7699 21.1956 80.8651 21.0999 80.984 21.0282C81.103 20.9565 81.2358 20.9196 81.383 20.9179H86.4056C86.5522 20.9196 86.685 20.9565 86.804 21.0282C86.9235 21.0999 87.0187 21.1956 87.089 21.3166C87.1598 21.437 87.1958 21.5714 87.198 21.7204C87.1958 21.8688 87.1598 22.0032 87.089 22.1241C87.0187 22.2445 86.9235 22.3408 86.804 22.4125C86.685 22.4842 86.5522 22.5206 86.4056 22.5223H84.7533V28.0232C84.7517 28.1867 84.713 28.334 84.6372 28.4644C84.5619 28.5949 84.4595 28.6985 84.33 28.7752C84.2011 28.852 84.0556 28.8912 83.894 28.8928C83.7325 28.8912 83.5869 28.852 83.458 28.7752ZM87.4597 28.7825C87.3407 28.7103 87.2467 28.6134 87.1769 28.4913C87.1078 28.3687 87.0724 28.2315 87.0713 28.0792C87.0718 28.017 87.0812 27.9548 87.1006 27.8927C87.1189 27.8305 87.1426 27.7684 87.1714 27.7062L89.8949 21.4829C89.9906 21.2662 90.1229 21.0976 90.2928 20.9772C90.4621 20.8568 90.6646 20.7958 90.8992 20.7936H90.9999C91.2345 20.7958 91.4349 20.8568 91.6014 20.9772C91.7674 21.0976 91.898 21.2662 91.9932 21.4829L94.7167 27.7062C94.7449 27.7684 94.767 27.8277 94.7825 27.8854C94.798 27.9436 94.8058 28.0002 94.8063 28.0568C94.8046 28.213 94.7681 28.3536 94.6967 28.4796C94.6254 28.605 94.5285 28.7047 94.4057 28.7792C94.284 28.8531 94.1456 28.8912 93.9912 28.8928C93.7909 28.8906 93.6227 28.8357 93.4861 28.7293C93.3499 28.6218 93.2431 28.4768 93.1651 28.2936L92.6406 27.0504H89.2027L88.656 28.3508C88.5819 28.5216 88.4762 28.6543 88.3389 28.7489C88.2023 28.8436 88.0435 28.8912 87.8636 28.8928C87.7131 28.8912 87.5787 28.8542 87.4597 28.7825ZM96.5814 28.7064C96.4525 28.6296 96.3501 28.5266 96.2743 28.3961C96.199 28.2656 96.1603 28.1184 96.1581 27.9548V21.7192C96.1603 21.5552 96.199 21.4084 96.2743 21.2774C96.3501 21.1469 96.4525 21.0433 96.5814 20.9666C96.7103 20.8899 96.8559 20.8507 97.018 20.849C97.1796 20.8507 97.3251 20.8899 97.454 20.9666C97.5829 21.0433 97.6853 21.1469 97.7611 21.2774C97.8364 21.4084 97.8751 21.5552 97.8773 21.7192V27.2442H101.058C101.204 27.2459 101.337 27.2812 101.454 27.3512C101.571 27.4206 101.664 27.5152 101.733 27.634C101.803 27.7521 101.838 27.8854 101.839 28.0338C101.838 28.1822 101.803 28.316 101.733 28.4342C101.664 28.5529 101.571 28.647 101.454 28.717C101.337 28.7864 101.204 28.8223 101.058 28.824H97.018C96.8559 28.8223 96.7103 28.7831 96.5814 28.7064ZM111.705 28.7064C111.576 28.6296 111.474 28.5266 111.398 28.3961C111.323 28.2656 111.284 28.1184 111.282 27.9548V21.7192C111.284 21.5552 111.323 21.4084 111.398 21.2774C111.474 21.1469 111.576 21.0433 111.705 20.9666C111.834 20.8899 111.98 20.8507 112.142 20.849C112.303 20.8507 112.449 20.8899 112.578 20.9666C112.707 21.0433 112.809 21.1469 112.885 21.2774C112.96 21.4084 112.999 21.5552 113.001 21.7192V27.2442H116.182C116.328 27.2459 116.46 27.2812 116.578 27.3512C116.695 27.4206 116.788 27.5152 116.857 27.634C116.926 27.7521 116.961 27.8854 116.963 28.0338C116.961 28.1822 116.926 28.316 116.857 28.4342C116.788 28.5529 116.695 28.647 116.578 28.717C116.46 28.7864 116.328 28.8223 116.182 28.824H112.142C111.98 28.8223 111.834 28.7831 111.705 28.7064ZM68.4223 27.1608C68.7083 27.0336 68.9557 26.8572 69.1632 26.6321C69.3712 26.407 69.5317 26.146 69.6446 25.8498C69.758 25.553 69.815 25.2344 69.8167 24.8933V24.8709C69.815 24.5299 69.7564 24.2101 69.6413 23.9111C69.5256 23.6126 69.3629 23.3494 69.1521 23.1209C68.9413 22.893 68.6917 22.7144 68.4035 22.5844C68.1152 22.4556 67.797 22.3896 67.4495 22.3873C67.102 22.3896 66.785 22.454 66.4989 22.5811C66.2128 22.7082 65.966 22.8846 65.758 23.1097C65.5499 23.3348 65.3894 23.5958 65.2766 23.892C65.1631 24.1888 65.1061 24.5075 65.1045 24.8485V24.8709C65.1061 25.212 65.1648 25.5317 65.2799 25.8308C65.395 26.1292 65.5582 26.393 65.769 26.6209C65.9799 26.8488 66.2294 27.028 66.5177 27.1568C66.806 27.2868 67.1241 27.3523 67.4716 27.3545C67.8191 27.3523 68.1362 27.2879 68.4223 27.1608ZM92.0048 25.5149L90.9219 22.9059L89.839 25.5149H92.0048ZM60.0149 24.7455C60.2174 24.6413 60.3724 24.4991 60.4792 24.3193C60.5865 24.1396 60.6407 23.9357 60.6413 23.7072V23.6848C60.6369 23.294 60.5118 22.9966 60.2661 22.7933C60.0205 22.59 59.6807 22.4881 59.2469 22.4864H57.9189V24.9056H59.2801C59.5673 24.9034 59.8124 24.8502 60.0149 24.7455ZM77.3165 24.615C77.5124 24.522 77.6618 24.3916 77.7647 24.2247C77.8677 24.0572 77.9191 23.8624 77.9202 23.6384V23.616C77.9158 23.243 77.7957 22.9613 77.5589 22.772C77.3221 22.5822 76.9923 22.487 76.5695 22.4864H74.8625V24.7567H76.6033C76.8833 24.755 77.1207 24.708 77.3165 24.615Z" fill="#4C4C4C"/>
<path fill-rule="evenodd" clip-rule="evenodd" d="M23.4851 44.2422C23.4547 44.1873 23.4259 44.1319 23.3993 44.0776L11.4756 23.2977C10.8592 22.2225 11.2205 20.8454 12.2829 20.2221C13.3254 19.6084 14.6622 19.9533 15.2908 20.9888L27.3286 41.9793C27.3308 41.9804 27.3308 41.9826 27.3319 41.9843C27.3319 41.9843 27.333 41.9854 27.333 41.9877L27.3601 42.0353C27.935 43.1004 27.5687 44.4449 26.5251 45.0593C25.4633 45.6831 24.1004 45.3157 23.4851 44.2422Z" fill="#4A1EEC"/>
<path fill-rule="evenodd" clip-rule="evenodd" d="M25.6573 36.6825C25.6268 36.6299 25.5975 36.5733 25.5715 36.5196L20.4537 27.6077C19.8384 26.5353 20.1992 25.1572 21.261 24.5345C22.3057 23.9207 23.6415 24.2657 24.2684 25.2994L26.9006 29.8892L29.5013 34.4218C29.5013 34.4224 29.5024 34.4235 29.5024 34.4246C29.5035 34.428 29.5046 34.4291 29.5051 34.4302L29.5317 34.4761C30.1066 35.5424 29.7414 36.8853 28.6962 37.5007C27.6365 38.1245 26.2748 37.7572 25.6573 36.6825Z" fill="#FFAA00"/>
<path fill-rule="evenodd" clip-rule="evenodd" d="M34.9395 14.7723L34.9461 4.97953L39.1559 4.98289V14.8126H39.1492C39.1326 15.1111 38.9472 15.3675 38.6888 15.4818C38.9312 15.5999 39.1011 15.8503 39.1011 16.1403C39.1 16.5407 38.7774 16.8672 38.3812 16.8672C38.0769 16.8672 37.8157 16.6729 37.7128 16.403C37.6065 16.674 37.3465 16.8672 37.0421 16.8672C36.7394 16.8672 36.4799 16.6774 36.3737 16.4103C36.2686 16.6774 36.0079 16.8672 35.7064 16.8672C35.313 16.8672 34.9893 16.5419 34.9893 16.1403C34.9893 15.8503 35.1575 15.5999 35.3993 15.4818C35.1392 15.3692 34.9549 15.1099 34.9395 14.8103V14.7723ZM35.7291 17.0408C36.0832 17.0408 36.372 17.3326 36.372 17.6921C36.372 18.0499 36.0832 18.3445 35.7291 18.3445C35.3722 18.3445 35.085 18.0499 35.085 17.6921C35.085 17.3326 35.3722 17.0408 35.7291 17.0408ZM35.7163 18.788C36.0008 18.788 36.2304 19.0227 36.2304 19.3099C36.2304 19.5961 36.0008 19.8296 35.7163 19.8296C35.433 19.8296 35.2012 19.5961 35.2012 19.3099C35.2012 19.0227 35.433 18.788 35.7163 18.788ZM35.7108 20.5755C35.9399 20.5755 36.1264 20.7654 36.1264 20.9983C36.1264 21.2296 35.9399 21.4189 35.7108 21.4189C35.4817 21.4189 35.2952 21.2291 35.2952 20.9983C35.2952 20.7654 35.4817 20.5755 35.7108 20.5755ZM35.723 22.1822C35.8962 22.1822 36.0395 22.3283 36.0395 22.5042C36.0395 22.6811 35.8962 22.8262 35.723 22.8262C35.5481 22.8262 35.4037 22.6811 35.4037 22.5042C35.4037 22.3272 35.5481 22.1822 35.723 22.1822ZM36.3737 15.8693C36.4423 15.7002 36.5712 15.563 36.7339 15.4829C36.5823 15.4146 36.4545 15.2992 36.3737 15.1564C36.2912 15.2992 36.1656 15.4146 36.0157 15.4829C36.1767 15.563 36.3067 15.7002 36.3737 15.8693ZM37.0626 17.0408C37.4167 17.0408 37.7061 17.3326 37.7061 17.6921C37.7061 18.0499 37.4167 18.3445 37.0626 18.3445C36.7079 18.3445 36.4196 18.0499 36.4196 17.6921C36.4196 17.3326 36.7079 17.0408 37.0626 17.0408ZM37.0504 18.788C37.3343 18.788 37.5661 19.0227 37.5661 19.3099C37.5661 19.5961 37.3343 19.8296 37.0493 19.8296C36.7666 19.8296 36.5364 19.5961 36.5364 19.3099C36.5364 19.0227 36.7666 18.788 37.0504 18.788ZM37.0454 20.5755C37.274 20.5755 37.4621 20.7654 37.4621 20.9983C37.4621 21.2296 37.2734 21.4189 37.0443 21.4189C36.8164 21.4189 36.6293 21.2296 36.6293 20.9983C36.6293 20.7654 36.8164 20.5755 37.0454 20.5755ZM37.0565 22.1822C37.2325 22.1822 37.3752 22.3283 37.3752 22.5042C37.3752 22.6811 37.2325 22.8262 37.0565 22.8262C36.8828 22.8262 36.7395 22.6811 36.7395 22.5042C36.7395 22.3283 36.8828 22.1822 37.0565 22.1822ZM37.7117 15.8777C37.7775 15.703 37.9081 15.5596 38.0735 15.4818C37.9192 15.4146 37.793 15.297 37.7128 15.1508C37.6292 15.297 37.5019 15.4146 37.3492 15.4829C37.5141 15.563 37.6441 15.7047 37.7117 15.8777ZM38.4022 17.0408C38.7564 17.0408 39.0463 17.3326 39.0463 17.6921C39.0463 18.0499 38.7564 18.3445 38.4022 18.3445C38.0481 18.3445 37.7592 18.0499 37.7592 17.691C37.7592 17.3315 38.0481 17.0408 38.4022 17.0408ZM38.3912 18.788C38.6739 18.788 38.9058 19.0215 38.9058 19.3083C38.9058 19.595 38.6739 19.8296 38.3912 19.8296C38.1062 19.8291 37.8754 19.595 37.8754 19.3071C37.8754 19.0215 38.1073 18.7858 38.3912 18.788ZM38.384 20.5755C38.613 20.5755 38.8012 20.7654 38.8012 20.9972C38.8012 21.2291 38.613 21.4189 38.384 21.4189C38.1554 21.4178 37.9701 21.2268 37.9701 20.9972C37.9701 20.7654 38.156 20.5755 38.384 20.5755ZM38.3961 22.1822C38.5721 22.1822 38.7154 22.3272 38.7154 22.5025C38.7154 22.6795 38.5721 22.8245 38.3961 22.8245C38.2213 22.8245 38.0785 22.6795 38.0785 22.5025C38.0785 22.3261 38.2213 22.1811 38.3961 22.1822Z" fill="url(#paint0_linear_783_38471)"/>
<path fill-rule="evenodd" clip-rule="evenodd" d="M4.71648 56.3633L0.508381 52.1028V4.5H0.497314L0.508381 4.48992V4.48768H0.509488L4.70707 0.24176L34.8527 0.236164L39.0669 4.5H4.74581L4.71648 56.3633Z" fill="url(#paint1_linear_783_38471)"/>
<path fill-rule="evenodd" clip-rule="evenodd" d="M12.1429 56.4219L4.99048 56.4152L4.9949 52.1547H12.1827V52.1608C12.4782 52.1765 12.7305 52.3647 12.8434 52.6256C12.9607 52.3809 13.2086 52.2096 13.4947 52.2096C13.8892 52.2107 14.2129 52.5366 14.2129 52.937C14.2129 53.2461 14.0203 53.5104 13.7536 53.6152C14.022 53.7227 14.2129 53.9859 14.2129 54.2939C14.2129 54.5985 14.0242 54.8623 13.7619 54.9698C14.0242 55.0762 14.2129 55.34 14.2129 55.644C14.2129 56.0439 13.8903 56.3704 13.4947 56.3704C13.2086 56.3704 12.9607 56.2012 12.8445 55.9554C12.7316 56.2197 12.4771 56.4062 12.1816 56.4196V56.4219H12.1429ZM14.3844 55.6222C14.3844 55.2644 14.6733 54.972 15.0274 54.972C15.3815 54.972 15.672 55.2644 15.672 55.6222C15.672 55.9812 15.3815 56.2735 15.0274 56.2735C14.6733 56.2735 14.3844 55.9812 14.3844 55.6222ZM16.1108 55.634C16.1108 55.3478 16.3427 55.1132 16.626 55.1132C16.9093 55.1132 17.14 55.3478 17.14 55.634C17.14 55.9224 16.9093 56.1559 16.626 56.1559C16.3427 56.1559 16.1108 55.9224 16.1108 55.634ZM17.8771 55.6412C17.8771 55.4094 18.0657 55.2184 18.2943 55.2184C18.5234 55.2184 18.7104 55.4094 18.7104 55.6412C18.7104 55.8725 18.5211 56.0601 18.2943 56.0601C18.0646 56.0601 17.8771 55.8725 17.8771 55.6412ZM19.464 55.6289C19.464 55.4508 19.6084 55.308 19.7822 55.308C19.9565 55.308 20.0998 55.4508 20.0998 55.6289C20.0998 55.8059 19.9565 55.9504 19.7822 55.9504C19.6073 55.9504 19.464 55.8059 19.464 55.6289ZM13.2268 54.9698C13.0592 54.8998 12.9231 54.7704 12.8445 54.6058C12.7775 54.7592 12.6636 54.8875 12.5213 54.9698C12.6636 55.0527 12.7775 55.1798 12.8445 55.3327C12.9231 55.1686 13.0592 55.0381 13.2268 54.9698ZM14.3844 54.2732C14.3844 53.9148 14.6733 53.6208 15.0274 53.6208C15.3815 53.6208 15.672 53.9148 15.672 54.2732C15.672 54.6316 15.3815 54.9239 15.0274 54.9239C14.6733 54.9239 14.3844 54.6316 14.3844 54.2732ZM16.1108 54.2849C16.1108 53.9971 16.3427 53.7636 16.626 53.7636C16.9093 53.7636 17.14 53.9971 17.14 54.2849C17.14 54.5728 16.9093 54.8052 16.626 54.8052C16.3427 54.8052 16.1108 54.5728 16.1108 54.2849ZM17.8771 54.2888C17.8771 54.0581 18.0657 53.8677 18.2943 53.8677C18.5234 53.8677 18.7104 54.0598 18.7104 54.2888C18.7104 54.5212 18.5234 54.7105 18.2943 54.7105C18.0657 54.7105 17.8771 54.5212 17.8771 54.2888ZM19.464 54.2771C19.464 54.1012 19.6084 53.9551 19.7822 53.9551C19.9565 53.9551 20.0998 54.1012 20.0998 54.2771C20.0998 54.4535 19.9565 54.5985 19.7822 54.5985C19.6084 54.5985 19.464 54.4535 19.464 54.2771ZM13.2351 53.6163C13.0631 53.5491 12.9209 53.4158 12.8434 53.2489C12.7775 53.4052 12.6613 53.5328 12.5169 53.6152C12.6613 53.6986 12.7775 53.828 12.8445 53.9831C12.9231 53.8151 13.0642 53.684 13.2351 53.6163ZM14.3844 52.9163C14.3844 52.5573 14.6733 52.2628 15.0274 52.2628C15.3815 52.2628 15.672 52.5573 15.672 52.9163C15.672 53.2758 15.3815 53.5681 15.0263 53.5681C14.6733 53.5681 14.3844 53.2758 14.3844 52.9163ZM16.1097 52.9286C16.1097 52.6408 16.3416 52.4072 16.6249 52.4072C16.9082 52.4072 17.14 52.6408 17.14 52.9286C17.14 53.2142 16.9082 53.4505 16.6232 53.4505C16.3416 53.4505 16.1086 53.2142 16.1097 52.9286ZM17.8771 52.9331C17.8771 52.7035 18.0657 52.5125 18.2926 52.5125C18.5211 52.5125 18.7104 52.7035 18.7104 52.9353C18.7093 53.1655 18.52 53.3548 18.2926 53.3548C18.0646 53.3548 17.8771 53.1649 17.8771 52.9331ZM19.464 52.9208C19.464 52.7455 19.6073 52.6004 19.7822 52.6004C19.9554 52.6004 20.0987 52.7455 20.0987 52.9208C20.0987 53.0977 19.9554 53.2428 19.7822 53.2428C19.6073 53.2428 19.464 53.0977 19.464 52.9208Z" fill="url(#paint2_linear_783_38471)"/>
<path d="M108.316 59.8465C108.257 59.7838 108.227 59.7087 108.229 59.6202C108.231 59.5346 108.258 59.4646 108.314 59.413C108.368 59.3604 108.438 59.3251 108.523 59.3061C108.775 59.2462 109.077 59.0334 109.067 58.8026C108.951 58.7741 108.841 58.7237 108.737 58.6531C108.632 58.5814 108.548 58.493 108.482 58.386C108.416 58.2796 108.383 58.1575 108.38 58.0203V58.0018C108.382 57.8518 108.414 57.7179 108.483 57.6003C108.549 57.4838 108.645 57.3903 108.765 57.3237C108.888 57.2565 109.031 57.2223 109.196 57.2206C109.472 57.2246 109.686 57.3192 109.838 57.5079C109.989 57.6955 110.123 57.9559 110.125 58.2874V58.3261C110.185 59.4718 109.114 59.8521 108.983 59.8896C108.851 59.926 108.724 59.9434 108.602 59.9434C108.47 59.9411 108.375 59.9081 108.316 59.8465ZM77.1273 56.2832C76.6415 56.076 76.2182 55.7876 75.8585 55.4174C75.4988 55.0478 75.2194 54.6172 75.0208 54.1266C74.8216 53.6355 74.7209 53.1046 74.7181 52.534V52.5116C74.7209 51.946 74.8199 51.4174 75.0169 50.9251C75.2133 50.4323 75.4928 49.9994 75.8546 49.6248C76.216 49.2507 76.6448 48.9578 77.1417 48.7462C77.6386 48.535 78.188 48.4275 78.7901 48.4236C79.1796 48.4247 79.531 48.4578 79.8442 48.5233C80.1579 48.5894 80.4423 48.6823 80.6974 48.8016C80.953 48.9214 81.1877 49.0626 81.4018 49.2255C81.4942 49.2944 81.5722 49.3879 81.6364 49.5066C81.7006 49.6248 81.7338 49.7609 81.7366 49.9149C81.7349 50.0745 81.6967 50.2178 81.6209 50.345C81.5457 50.4721 81.4444 50.5729 81.3171 50.6474C81.1893 50.7218 81.0466 50.7599 80.8883 50.7616C80.7721 50.7594 80.6731 50.7414 80.5901 50.7067C80.5071 50.672 80.4357 50.6339 80.3754 50.5919C80.1369 50.4105 79.8879 50.271 79.6273 50.1747C79.3672 50.0773 79.0844 50.0286 78.779 50.0274C78.4481 50.0297 78.1449 50.0946 77.8693 50.2218C77.5938 50.3489 77.3547 50.5253 77.1522 50.7504C76.9497 50.9755 76.7931 51.2365 76.6824 51.5327C76.5712 51.829 76.5148 52.1482 76.5131 52.4886V52.5116C76.5148 52.8526 76.5701 53.1724 76.6791 53.4709C76.7881 53.7699 76.943 54.0331 77.1439 54.2616C77.3448 54.4895 77.5838 54.6682 77.8599 54.7975C78.1366 54.9269 78.4431 54.993 78.779 54.9952C79.0191 54.9952 79.2372 54.9706 79.4325 54.9218C79.6273 54.8737 79.8099 54.8031 79.9786 54.7107C80.1479 54.6183 80.3134 54.5063 80.4755 54.3742C80.543 54.317 80.6205 54.2706 80.7074 54.2358C80.7942 54.2011 80.8883 54.1832 80.989 54.1821C81.1362 54.1843 81.2701 54.2207 81.3907 54.2924C81.5119 54.3635 81.6087 54.4598 81.6812 54.5802C81.7537 54.7012 81.7908 54.8356 81.7925 54.984C81.7902 55.1201 81.7615 55.2405 81.7061 55.3452C81.6508 55.4505 81.5827 55.5367 81.5025 55.605C81.2701 55.8134 81.0183 55.9909 80.7472 56.1393C80.4761 56.2871 80.1751 56.4008 79.8431 56.4798C79.5116 56.5587 79.1381 56.5985 78.7231 56.5996C78.1454 56.5957 77.6137 56.4904 77.1273 56.2832ZM140.087 56.1947C139.583 55.9321 139.195 55.5406 138.925 55.0204C138.654 54.4996 138.517 53.8511 138.514 53.0755V49.3594C138.516 49.1953 138.554 49.0486 138.63 48.9181C138.706 48.787 138.808 48.6834 138.937 48.6073C139.066 48.5306 139.212 48.4914 139.373 48.4897C139.535 48.4914 139.681 48.5306 139.809 48.6073C139.938 48.6834 140.041 48.787 140.117 48.9181C140.192 49.0486 140.231 49.1953 140.233 49.3594V53.0302C140.234 53.4597 140.302 53.8192 140.437 54.1093C140.571 54.3988 140.764 54.6172 141.015 54.7639C141.266 54.9106 141.567 54.984 141.919 54.984C142.27 54.984 142.571 54.9129 142.822 54.7706C143.073 54.629 143.266 54.4173 143.401 54.1356C143.535 53.8545 143.603 53.5045 143.604 53.0867V49.3594C143.606 49.1953 143.645 49.0486 143.72 48.9181C143.796 48.787 143.899 48.6834 144.028 48.6073C144.156 48.5306 144.302 48.4914 144.464 48.4897C144.625 48.4914 144.771 48.5306 144.9 48.6073C145.029 48.6834 145.131 48.787 145.207 48.9181C145.282 49.0486 145.321 49.1953 145.323 49.3594V53.019C145.32 53.817 145.179 54.48 144.901 55.0086C144.623 55.5367 144.228 55.9326 143.718 56.1947C143.206 56.4574 142.599 56.5884 141.896 56.5884C141.194 56.5878 140.591 56.4568 140.087 56.1947ZM155.21 56.1947C154.706 55.9321 154.319 55.5406 154.048 55.0204C153.777 54.4996 153.641 53.8511 153.638 53.0755V49.3594C153.639 49.1953 153.678 49.0486 153.754 48.9181C153.83 48.787 153.932 48.6834 154.061 48.6073C154.19 48.5306 154.336 48.4914 154.497 48.4897C154.659 48.4914 154.804 48.5306 154.933 48.6073C155.062 48.6834 155.165 48.787 155.24 48.9181C155.316 49.0486 155.355 49.1953 155.356 49.3594V53.0302C155.358 53.4597 155.426 53.8192 155.561 54.1093C155.695 54.3988 155.888 54.6172 156.139 54.7639C156.39 54.9106 156.691 54.984 157.042 54.984C157.393 54.984 157.695 54.9129 157.946 54.7706C158.197 54.629 158.39 54.4173 158.524 54.1356C158.659 53.8545 158.727 53.5045 158.728 53.0867V49.3594C158.73 49.1953 158.768 49.0486 158.844 48.9181C158.92 48.787 159.022 48.6834 159.151 48.6073C159.28 48.5306 159.426 48.4914 159.587 48.4897C159.749 48.4914 159.894 48.5306 160.023 48.6073C160.153 48.6834 160.255 48.787 160.33 48.9181C160.406 49.0486 160.445 49.1953 160.447 49.3594V53.019C160.443 53.817 160.303 54.48 160.025 55.0086C159.747 55.5367 159.352 55.9326 158.841 56.1947C158.33 56.4574 157.723 56.5884 157.02 56.5884C156.318 56.5878 155.714 56.4568 155.21 56.1947ZM56.1089 56.4226C55.99 56.351 55.8959 56.2535 55.8267 56.1314C55.757 56.0094 55.7216 55.8722 55.7205 55.7198C55.721 55.6577 55.731 55.5955 55.7498 55.5334C55.7686 55.4712 55.7919 55.409 55.8206 55.3469L58.5442 49.123C58.6399 48.9069 58.7727 48.7383 58.942 48.6179C59.1113 48.4975 59.3138 48.4365 59.549 48.4342H59.6492C59.8838 48.4365 60.0846 48.4975 60.2506 48.6179C60.4166 48.7383 60.5478 48.9069 60.6429 49.123L63.3665 55.3469C63.3941 55.4085 63.4163 55.4684 63.4317 55.5261C63.4472 55.5838 63.455 55.6409 63.4555 55.6969C63.4539 55.8531 63.4174 55.9942 63.346 56.1197C63.2746 56.2457 63.1778 56.3454 63.0555 56.4198C62.9332 56.4938 62.7949 56.5318 62.6405 56.5335C62.4402 56.5313 62.272 56.4764 62.1358 56.3694C61.9992 56.2625 61.8924 56.1174 61.8149 55.9343L61.2903 54.6911H57.8525L57.3052 55.9909C57.2311 56.1617 57.1254 56.295 56.9887 56.3896C56.8515 56.4837 56.6927 56.5318 56.5129 56.5335C56.3624 56.5318 56.2279 56.4949 56.1089 56.4226ZM93.0196 56.4159C92.8907 56.3392 92.7883 56.2356 92.7125 56.1051C92.6367 55.9746 92.5979 55.8274 92.5963 55.6638V50.163H90.9446C90.798 50.1613 90.6646 50.1243 90.5456 50.0526C90.4267 49.981 90.3315 49.8852 90.2607 49.7642C90.1898 49.6438 90.1539 49.5094 90.1522 49.3605C90.1539 49.2121 90.1898 49.0777 90.2607 48.9567C90.3315 48.8363 90.4267 48.74 90.5456 48.6689C90.6646 48.5972 90.798 48.5602 90.9446 48.5586H95.9672C96.1138 48.5602 96.2466 48.5972 96.3661 48.6689C96.4851 48.74 96.5803 48.8363 96.6511 48.9567C96.7214 49.0777 96.7579 49.2121 96.7596 49.3605C96.7579 49.5094 96.7214 49.6438 96.6511 49.7642C96.5803 49.8852 96.4851 49.981 96.3661 50.0526C96.2466 50.1243 96.1138 50.1613 95.9672 50.163H94.3149V55.6638C94.3133 55.8274 94.2751 55.9746 94.1993 56.1051C94.1235 56.2356 94.0211 56.3392 93.8916 56.4159C93.7627 56.4926 93.6177 56.5318 93.4556 56.5335C93.294 56.5318 93.1491 56.4926 93.0196 56.4159ZM97.8601 56.4226C97.7412 56.351 97.6471 56.2535 97.5779 56.1314C97.5082 56.0094 97.4728 55.8722 97.4717 55.7198C97.4723 55.6577 97.4822 55.5955 97.501 55.5334C97.5199 55.4712 97.5431 55.409 97.5719 55.3469L100.295 49.123C100.391 48.9069 100.524 48.7383 100.693 48.6179C100.863 48.4975 101.065 48.4365 101.3 48.4342H101.4C101.635 48.4365 101.836 48.4975 102.002 48.6179C102.168 48.7383 102.299 48.9069 102.394 49.123L105.118 55.3469C105.145 55.4085 105.167 55.4684 105.183 55.5261C105.198 55.5838 105.206 55.6409 105.207 55.6969C105.205 55.8531 105.169 55.9942 105.097 56.1197C105.026 56.2457 104.929 56.3454 104.807 56.4198C104.684 56.4938 104.546 56.5318 104.392 56.5335C104.191 56.5313 104.023 56.4764 103.887 56.3694C103.75 56.2625 103.644 56.1174 103.566 55.9343L103.042 54.6911H99.6037L99.0564 55.9909C98.9823 56.1617 98.8766 56.295 98.7399 56.3896C98.6027 56.4837 98.4439 56.5318 98.2641 56.5335C98.1136 56.5318 97.9791 56.4949 97.8601 56.4226ZM108.802 56.4159C108.673 56.3392 108.571 56.2356 108.495 56.1051C108.419 55.9746 108.381 55.8274 108.379 55.6638V50.163H106.727C106.581 50.1613 106.447 50.1243 106.328 50.0526C106.209 49.981 106.114 49.8852 106.043 49.7642C105.973 49.6438 105.937 49.5094 105.935 49.3605C105.937 49.2121 105.973 49.0777 106.043 48.9567C106.114 48.8363 106.209 48.74 106.328 48.6689C106.447 48.5972 106.581 48.5602 106.727 48.5586H111.75C111.897 48.5602 112.029 48.5972 112.149 48.6689C112.268 48.74 112.363 48.8363 112.434 48.9567C112.504 49.0777 112.541 49.2121 112.542 49.3605C112.541 49.5094 112.504 49.6438 112.434 49.7642C112.363 49.8852 112.268 49.981 112.149 50.0526C112.029 50.1243 111.897 50.1613 111.75 50.163H110.098V55.6638C110.096 55.8274 110.058 55.9746 109.982 56.1051C109.906 56.2356 109.804 56.3392 109.674 56.4159C109.545 56.4926 109.4 56.5318 109.238 56.5335C109.077 56.5318 108.932 56.4926 108.802 56.4159ZM121.12 56.4226C121.001 56.351 120.907 56.2535 120.838 56.1314C120.768 56.0094 120.733 55.8722 120.732 55.7198C120.732 55.6577 120.742 55.5955 120.761 55.5334C120.78 55.4712 120.803 55.409 120.832 55.3469L123.555 49.123C123.651 48.9069 123.784 48.7383 123.953 48.6179C124.122 48.4975 124.325 48.4365 124.56 48.4342H124.66C124.895 48.4365 125.096 48.4975 125.262 48.6179C125.428 48.7383 125.559 48.9069 125.654 49.123L128.378 55.3469C128.405 55.4085 128.427 55.4684 128.443 55.5261C128.458 55.5838 128.466 55.6409 128.467 55.6969C128.465 55.8531 128.428 55.9942 128.357 56.1197C128.286 56.2457 128.189 56.3454 128.067 56.4198C127.944 56.4938 127.806 56.5318 127.652 56.5335C127.451 56.5313 127.283 56.4764 127.147 56.3694C127.01 56.2625 126.904 56.1174 126.826 55.9343L126.301 54.6911H122.864L122.316 55.9909C122.242 56.1617 122.137 56.295 122 56.3896C121.863 56.4837 121.704 56.5318 121.524 56.5335C121.373 56.5318 121.239 56.4949 121.12 56.4226ZM130.239 56.4165C130.112 56.3398 130.01 56.2373 129.935 56.1085C129.859 55.9791 129.821 55.8346 129.819 55.6745V49.384C129.821 49.2199 129.859 49.0732 129.935 48.9427C130.01 48.8117 130.113 48.7086 130.242 48.6319C130.371 48.5552 130.517 48.516 130.678 48.5143H130.857C131.06 48.5166 131.232 48.563 131.371 48.6538C131.509 48.745 131.636 48.8677 131.75 49.0222L135.064 53.425V49.3476C135.066 49.188 135.105 49.0435 135.18 48.9142C135.256 48.7854 135.357 48.6829 135.485 48.6067C135.612 48.5306 135.755 48.4914 135.913 48.4897C136.071 48.4914 136.213 48.5306 136.341 48.6067C136.468 48.6829 136.57 48.7854 136.645 48.9142C136.721 49.0435 136.759 49.188 136.761 49.3476V55.6392C136.759 55.8027 136.721 55.9494 136.645 56.0805C136.569 56.211 136.467 56.3146 136.338 56.3913C136.208 56.468 136.063 56.5066 135.901 56.5083H135.846C135.642 56.5066 135.471 56.4596 135.332 56.3689C135.193 56.2776 135.067 56.155 134.953 56.0004L131.516 51.4381V55.6745C131.514 55.8346 131.475 55.9791 131.4 56.1085C131.325 56.2373 131.223 56.3398 131.096 56.4165C130.968 56.4926 130.826 56.5318 130.667 56.5335C130.509 56.5318 130.366 56.4926 130.239 56.4165ZM162.699 56.4159C162.57 56.3392 162.467 56.2356 162.392 56.1051C162.316 55.9746 162.277 55.8274 162.276 55.6633V49.3594C162.277 49.1953 162.316 49.0486 162.392 48.9181C162.467 48.787 162.57 48.6834 162.699 48.6073C162.828 48.5306 162.973 48.4914 163.135 48.4897C163.297 48.4914 163.442 48.5306 163.571 48.6073C163.7 48.6834 163.803 48.787 163.878 48.9181C163.954 49.0486 163.992 49.1953 163.995 49.3594V55.6633C163.992 55.8274 163.954 55.9746 163.878 56.1051C163.803 56.2356 163.7 56.3392 163.571 56.4159C163.442 56.4926 163.297 56.5318 163.135 56.5335C162.973 56.5318 162.828 56.4926 162.699 56.4159ZM65.2306 56.347C65.1017 56.2703 64.9993 56.1667 64.9235 56.0362C64.8483 55.9058 64.8095 55.759 64.8079 55.5955V49.3594C64.8095 49.1958 64.8483 49.0486 64.9235 48.9181C64.9993 48.7876 65.1017 48.6834 65.2306 48.6073C65.3601 48.5306 65.5051 48.4914 65.6672 48.4897C65.8288 48.4914 65.9743 48.5306 66.1032 48.6073C66.2322 48.6834 66.3345 48.7876 66.4103 48.9181C66.4861 49.0486 66.5249 49.1958 66.5265 49.3594V54.8849H69.7077C69.8543 54.886 69.986 54.9218 70.1033 54.9918C70.2206 55.0613 70.3141 55.1554 70.3827 55.2741C70.4519 55.3928 70.4873 55.5261 70.489 55.6745C70.4873 55.8229 70.4519 55.9562 70.3827 56.0749C70.3141 56.1936 70.2206 56.2877 70.1033 56.3577C69.986 56.4271 69.8543 56.463 69.7077 56.4646H65.6672C65.5051 56.463 65.3601 56.4238 65.2306 56.347ZM83.7225 56.347C83.5936 56.2703 83.4906 56.1667 83.4154 56.0362C83.3396 55.9058 83.3008 55.759 83.2992 55.595V49.4277C83.3008 49.2642 83.3396 49.1169 83.4154 48.9864C83.4906 48.8559 83.5936 48.7523 83.7225 48.6762C83.8514 48.5994 83.9969 48.5602 84.1585 48.5586H88.4889C88.6322 48.5602 88.7617 48.5955 88.8773 48.665C88.993 48.7344 89.0854 48.8279 89.154 48.945C89.2221 49.0614 89.2575 49.1925 89.2591 49.3375C89.2575 49.482 89.2221 49.6119 89.154 49.7273C89.0854 49.8426 88.993 49.9339 88.8773 50.0017C88.7617 50.0689 88.6322 50.1036 88.4889 50.1053H85.0068V51.7102H87.987C88.1298 51.7119 88.2593 51.7478 88.3749 51.8172C88.4906 51.8866 88.583 51.9796 88.6516 52.0966C88.7202 52.2142 88.755 52.3447 88.7567 52.4898C88.755 52.6342 88.7202 52.7642 88.6516 52.879C88.583 52.9943 88.4906 53.0862 88.3749 53.1534C88.2593 53.2211 88.1298 53.2558 87.987 53.2575H85.0068V54.9179H88.5448C88.6881 54.9196 88.817 54.9549 88.9332 55.0243C89.0489 55.0938 89.1407 55.1867 89.2099 55.3043C89.2779 55.4214 89.3134 55.5518 89.315 55.6969C89.3134 55.8414 89.2779 55.9713 89.2099 56.0866C89.1407 56.2014 89.0489 56.2933 88.9332 56.361C88.817 56.4282 88.6881 56.463 88.5448 56.4646H84.1585C83.9969 56.463 83.8514 56.4238 83.7225 56.347ZM114.214 56.347C114.086 56.2703 113.983 56.1667 113.907 56.0362C113.832 55.9058 113.793 55.759 113.791 55.595V49.4277C113.793 49.2642 113.832 49.1169 113.907 48.9864C113.983 48.8559 114.086 48.7523 114.214 48.6762C114.343 48.5994 114.489 48.5602 114.65 48.5586H118.981C119.124 48.5602 119.254 48.5955 119.369 48.665C119.485 48.7344 119.577 48.8279 119.646 48.945C119.714 49.0614 119.749 49.1925 119.751 49.3375C119.749 49.482 119.714 49.6119 119.646 49.7273C119.577 49.8426 119.485 49.9339 119.369 50.0017C119.254 50.0689 119.124 50.1036 118.981 50.1053H115.499V51.7102H118.479C118.622 51.7119 118.751 51.7478 118.867 51.8172C118.983 51.8866 119.075 51.9796 119.144 52.0966C119.212 52.2142 119.247 52.3447 119.249 52.4898C119.247 52.6342 119.212 52.7642 119.144 52.879C119.075 52.9943 118.983 53.0862 118.867 53.1534C118.751 53.2211 118.622 53.2558 118.479 53.2575H115.499V54.9179H119.037C119.18 54.9196 119.309 54.9549 119.425 55.0243C119.541 55.0938 119.633 55.1867 119.702 55.3043C119.77 55.4214 119.805 55.5518 119.807 55.6969C119.805 55.8414 119.77 55.9713 119.702 56.0866C119.633 56.2014 119.541 56.2933 119.425 56.361C119.309 56.4282 119.18 56.463 119.037 56.4646H114.65C114.489 56.463 114.343 56.4238 114.214 56.347ZM147.496 56.347C147.367 56.2703 147.265 56.1667 147.189 56.0362C147.113 55.9058 147.075 55.759 147.073 55.5955V49.3594C147.075 49.1958 147.113 49.0486 147.189 48.9181C147.265 48.7876 147.367 48.6834 147.496 48.6073C147.625 48.5306 147.77 48.4914 147.932 48.4897C148.094 48.4914 148.239 48.5306 148.368 48.6073C148.497 48.6834 148.6 48.7876 148.675 48.9181C148.751 49.0486 148.79 49.1958 148.792 49.3594V54.8849H151.973C152.119 54.886 152.251 54.9218 152.368 54.9918C152.486 55.0613 152.579 55.1554 152.648 55.2741C152.717 55.3928 152.752 55.5261 152.754 55.6745C152.752 55.8229 152.717 55.9562 152.648 56.0749C152.579 56.1936 152.486 56.2877 152.368 56.3577C152.251 56.4271 152.119 56.463 151.973 56.4646H147.932C147.77 56.463 147.625 56.4238 147.496 56.347ZM60.654 53.1556L59.5711 50.5466L58.4883 53.1556H60.654ZM102.405 53.1556L101.322 50.5466L100.239 53.1556H102.405ZM125.665 53.1556L124.582 50.5466L123.499 53.1556H125.665ZM100.201 47.5909C99.8831 47.4229 99.6391 47.1877 99.4698 46.8858C99.4416 46.8354 99.4216 46.7839 99.4095 46.7318C99.3973 46.6798 99.3912 46.6254 99.3912 46.5694C99.3951 46.4014 99.4515 46.2626 99.5605 46.1528C99.669 46.043 99.8062 45.9859 99.9717 45.982C100.104 45.9848 100.21 46.0156 100.29 46.0738C100.37 46.1321 100.431 46.1993 100.474 46.2754C100.555 46.4132 100.664 46.5224 100.799 46.603C100.935 46.6842 101.113 46.7257 101.333 46.7274C101.554 46.7257 101.732 46.6842 101.868 46.603C102.004 46.5224 102.112 46.4132 102.193 46.2754C102.236 46.1993 102.298 46.1321 102.377 46.0738C102.457 46.0156 102.563 45.9848 102.695 45.982C102.861 45.9859 102.998 46.043 103.107 46.1528C103.215 46.2626 103.272 46.4014 103.276 46.5694C103.276 46.6254 103.27 46.6798 103.257 46.7318C103.245 46.7839 103.225 46.8354 103.198 46.8858C103.028 47.1877 102.784 47.4229 102.467 47.5909C102.149 47.7583 101.771 47.844 101.333 47.8462C100.896 47.844 100.518 47.7583 100.201 47.5909ZM30.7403 33.9879C30.7087 33.9325 30.6799 33.8787 30.6545 33.8222L27.0152 27.4337C26.4005 26.3613 26.7607 24.9831 27.8231 24.3593C28.8678 23.7466 30.2024 24.0916 30.8327 25.1259L32.8778 28.7502L34.5837 31.7261C34.5837 31.7261 34.5848 31.7283 34.5859 31.7294C34.587 31.7306 34.587 31.7317 34.5881 31.7328L34.6141 31.7798C35.1902 32.8461 34.8233 34.1906 33.7786 34.8044C32.7173 35.4282 31.3567 35.062 30.7403 33.9879Z" fill="#F74C4C"/>
<defs>
<linearGradient id="paint0_linear_783_38471" x1="37.4178" y1="4.79641" x2="37.5374" y2="21.7482" gradientUnits="userSpaceOnUse">
<stop stop-color="#4382B4"/>
<stop offset="1" stop-color="#6AABDE"/>
</linearGradient>
<linearGradient id="paint1_linear_783_38471" x1="4.32085" y1="852.179" x2="6.69645" y2="813.321" gradientUnits="userSpaceOnUse">
<stop stop-color="#4382B4"/>
<stop offset="1" stop-color="#6AABDE"/>
</linearGradient>
<linearGradient id="paint2_linear_783_38471" x1="5.00044" y1="54.0805" x2="28.5005" y2="54.18" gradientUnits="userSpaceOnUse">
<stop stop-color="#4382B4"/>
<stop offset="1" stop-color="#6AABDE"/>
</linearGradient>
</defs>
</svg>
