<svg width="20" height="21" viewBox="0 0 20 21" fill="none" xmlns="http://www.w3.org/2000/svg">
<path d="M5.14556 1.63618L17.6474 8.6687C19.2286 9.55696 19.2286 11.7347 17.6474 12.623L5.14556 19.6555C3.53533 20.5621 1.5 19.4564 1.5 17.6768V3.61485C1.5 1.83528 3.53533 0.729553 5.14556 1.63618Z" fill="#072630"/>
<path d="M5.14556 1.63618L4.7776 2.28971L4.77786 2.28986L5.14556 1.63618ZM17.6474 8.6687L17.2797 9.32238L17.2801 9.3226L17.6474 8.6687ZM17.6474 12.623L17.2801 11.9691L17.2797 11.9693L17.6474 12.623ZM5.14556 19.6555L4.77786 19.0018L4.7776 19.002L5.14556 19.6555ZM1.5 3.61485H2.25H1.5ZM4.77786 2.28986L17.2797 9.32238L18.0151 8.01503L5.51327 0.982508L4.77786 2.28986ZM17.2801 9.3226C18.3511 9.92423 18.3511 11.3674 17.2801 11.9691L18.0147 13.2769C20.1062 12.102 20.1062 9.18969 18.0147 8.01481L17.2801 9.3226ZM17.2797 11.9693L4.77786 19.0018L5.51327 20.3092L18.0151 13.2766L17.2797 11.9693ZM4.7776 19.002C3.61228 19.6581 2.25 18.8206 2.25 17.6768H0.75C0.75 20.0922 3.45838 21.4662 5.51353 20.309L4.7776 19.002ZM2.25 17.6768V3.61485H0.75V17.6768H2.25ZM2.25 3.61485C2.25 2.47104 3.61228 1.63359 4.7776 2.28971L5.51353 0.982654C3.45838 -0.174485 0.75 1.19951 0.75 3.61485H2.25Z" fill="#1E1E23"/>
</svg>
