<svg width="20" height="16" viewBox="0 0 20 16" fill="none" xmlns="http://www.w3.org/2000/svg">
<path d="M19.375 0.5H0.6875C0.584375 0.5 0.5 0.584375 0.5 0.6875V2C0.5 2.10312 0.584375 2.1875 0.6875 2.1875H19.375C19.4781 2.1875 19.5625 2.10312 19.5625 2V0.6875C19.5625 0.584375 19.4781 0.5 19.375 0.5ZM19.375 7.15625H0.6875C0.584375 7.15625 0.5 7.24062 0.5 7.34375V8.65625C0.5 8.75937 0.584375 8.84375 0.6875 8.84375H19.375C19.4781 8.84375 19.5625 8.75937 19.5625 8.65625V7.34375C19.5625 7.24062 19.4781 7.15625 19.375 7.15625ZM19.375 13.8125H0.6875C0.584375 13.8125 0.5 13.8969 0.5 14V15.3125C0.5 15.4156 0.584375 15.5 0.6875 15.5H19.375C19.4781 15.5 19.5625 15.4156 19.5625 15.3125V14C19.5625 13.8969 19.4781 13.8125 19.375 13.8125Z" fill="black"/>
</svg>
