<svg width="24" height="25" viewBox="0 0 24 25" fill="none" xmlns="http://www.w3.org/2000/svg">
<path d="M22.0617 7.43984C21.9422 6.99462 21.7078 6.5886 21.382 6.26243C21.0563 5.93625 20.6505 5.70136 20.2055 5.58125C18.5672 5.14063 12 5.14062 12 5.14062C12 5.14062 5.43281 5.14062 3.79453 5.57891C3.34927 5.69862 2.94334 5.93339 2.61751 6.25962C2.29169 6.58586 2.05744 6.99208 1.93828 7.4375C1.5 9.07812 1.5 12.5 1.5 12.5C1.5 12.5 1.5 15.9219 1.93828 17.5602C2.17969 18.4648 2.89219 19.1773 3.79453 19.4188C5.43281 19.8594 12 19.8594 12 19.8594C12 19.8594 18.5672 19.8594 20.2055 19.4188C21.1102 19.1773 21.8203 18.4648 22.0617 17.5602C22.5 15.9219 22.5 12.5 22.5 12.5C22.5 12.5 22.5 9.07813 22.0617 7.43984ZM9.91406 15.6406V9.35938L15.3516 12.4766L9.91406 15.6406Z" fill="#707070"/>
</svg>
